<?xml version="1.0" encoding="UTF-8"?>
<svg id="b" data-name="Layer 2" xmlns="http://www.w3.org/2000/svg" viewBox="0 0 960.30872 1044.03946">
  <defs>
    <style>
      .d {
        fill: #fff;
      }

      .e {
        fill: #939598;
      }
    </style>
  </defs>
  <g id="c" data-name="b">
    <path class="e" d="M304.62903,36.30612c-56.65802,25.87163-148.19177,19.3431-148.19177,19.3431l-104.69412,124.0493c12.57788,62.052,48.07254,94.90735,28.92969,193.29132C58.02902,489.33347,7.99063,569.25412,1.74722,653.36136c-6.35263,85.61804.47931,166.69147,91.86142,256.13196,57.17981,55.99066,179.49988,88.80957,252.86768,103.06805,44.50488,8.65826,90.12006,20.78717,133.72693,31.47809,42.40552-10.67871,89.40411-22.58911,133.61169-31.47803,73.28894-14.72565,195.69397-47.07739,252.88586-103.06805,91.37-89.44049,98.21411-170.51398,91.86157-256.13202-6.24341-84.10718-56.28186-164.02786-78.93774-280.37149-19.14893-98.384,16.45496-131.23932,29.03284-193.29134l-104.80334-124.0493s-91.52161,6.52853-148.17346-19.3431C601.09149,9.05103,542.4798.96917,480.50665.04695c-61.96704-.9223-119.64435,11.76479-175.87762,36.25916"/>
    <path class="d" d="M363.1958,312.56088c-6.69849.98901-12.20166,6.25555-4.23511,10.79401l4.23511-10.79401ZM421.8197,291.70093l-11.55853-32.41849-10.03558,30.87131,21.59412,1.54718ZM637.80328,338.03211c14.61041,37.1875,72.92487,37.06616,88.83978.52179,15.18079-34.85757,1.18311-83.06363-42.18103-84.67151-44.45026-1.65028-59.4187,40.39114-49.57727,77.79709l23.35974,6.37689c1.62-.15164,3.93774-5.20584,7.52979-6.38293,9.82935-3.22186,16.26685,3.78,16.09094,13.20279l14.5498,4.72656-15.06543-2.80923c-7.03833,10.63019-21.54553,8.59152-22.80151-4.82361l-20.74463-3.93781-.00018-.00003ZM552.94977,323.36096v65.24344l-1.15887,1.15891h-28.92358v-71.03787l-65.56506-7.71176,30.85309,78.74966h-25.0647c-2.58478,0-7.03827-4.18658-7.8938-6.77127l-26.84247-73.50131c-1.04968-1.20135-2.3299-1.41367-3.81647-1.58356-9.47131-1.10431-21.8186.47324-31.34454.46716l-9.93243,28.08023,59.38226,25.50159c-21.46063-3.74362-42.5451-9.5441-63.23511-16.21225l-13.33026,37.25424c-.86157,2.57864-5.30902,6.7652-7.8938,6.7652h-25.0647l20.82355-54.03683c-10.69696-4.06525-33.55914-15.24756-27.82538-29.79733,4.52631-11.49176,34.83331-14.79245,45.59698-15.35068l23.19592-59.7767h31.4538l24.88873,63.86615c24.08179,2.17822,47.82379,6.91089,71.61432,10.93359v-49.80173l-1.15887-1.15894h-46.66492v-23.93611h124.95947v23.93611h-47.05316v57.13736l49.35883,11.58276c-6.36481-46.31299,20.09546-87.89328,67.59766-94.10034,61.8092-8.06973,104.23901,42.99405,90.30811,102.75256-18.5907,79.75681-137.66467,78.76175-156.34644.21841l-50.91815-8.87061v-.00009Z"/>
    <path class="d" d="M714.93054,499.78952v11.19449l6.17664.00607c-1.98401-11.32794,5.73376-19.39163,10.79407-28.56564-9.84741-2.2753-9.79285,6.4133-13.1239,13.11789-5.38794-5.4971-3.38562-15.48419-13.87024-13.11789l10.02344,17.36508ZM661.70667,482.41837v28.56564l4.90857-.10919,1.06787-1.01328-.57031-16.62485c1.802-.40045,1.23767.22446,1.72925.98291,2.30566,3.6041,4.32605,8.992,6.35876,12.90549l4.2594.38834,8.47632-14.28891v17.75949h6.17065v-28.56564c-2.245.26089-5.62451-.77057-7.34167.75842-2.86987,2.56656-5.63672,14.91989-9.62305,17.77161-.37012-2.36023-7.63293-17.60175-8.47021-18.16595-1.44409-.98901-5.10876-.07889-6.96545-.36407M650.14209,482.41837h-18.51794v28.56564h18.51794v-5.4061h-11.57062l-.00604-6.95328,8.49445.01212.00604-4.19263-8.50055-.4429.00604-6.18277h11.57068v-5.40009ZM607.33002,482.41837c-4.08337-.58249-9.27112.41867-13.50012,0v28.56564h13.50012c1.37738,0,7.46906-2.97305,8.60974-4.11981,8.32458-8.3367,2.91241-22.81363-8.60974-24.44583M583.02985,510.97794l-10.09021-27.33392c-1.52899-2.11755-5.1756-1.1225-7.56006-1.13464l-10.88507,28.46857,6.1767-.37009,2.77887-5.84906,10.60596.15775,2.77283,5.71555,6.20099.34583v.00003ZM546.00616,485.52493c-5.80048-3.22787-10.89111-4.33215-17.14667-1.35303-13.05115,6.21915-8.48834,27.70404,7.4812,26.82425,4.42926-.24271,12.72955-3.61011,6.08563-7.65103-15.55695,10.92749-20.22284-17.04355-5.27869-15.56308,2.15997.21841,4.03479,2.05078,6.00073,1.48651l2.85773-3.74362h.00006ZM511.29419,510.97794l-10.4057-27.79507-7.24457-.67349-10.88501,28.46857,6.18274-.37009,2.77283-5.84906,10.60596.15775,2.77283,5.71555,6.20099.34583-.00006.00003ZM457.2998,507.50736v-11.96503h-10.02954l.33374,3.91351,3.49481.75238c.90405,5.51535-1.37122,6.21915-6.34656,5.18771-8.50055-1.75958-8.39734-16.60666.58246-17.59567,4.06519-.44897,6.07959,1.48654,9.88391,1.59576,2.99121-3.41595,2.60901-3.93781-1.35913-5.46072-10.1994-3.91351-22.07343.63708-22.07343,12.76596,0,13.32416,15.81183,18.3844,25.51373,10.80615M414.8761,500.17786c-4.51416-3.11261-10.078-14.6954-14.22821-17.03137-1.77167-1.00113-3.13684-.81912-5.05414-.72812v28.56564l6.17059-.00607c.3822-.27908-.77057-.98294-.77057-1.15283v-16.60059c5.0542,2.66971,10.32678,14.5134,14.21606,17.04355,1.63214,1.0618,3.27032.73413,5.06628.71594v-28.56564h-5.40002v17.75949ZM381.7113,482.41837h-6.17065v28.56564h6.17065v-28.56564ZM353.55829,482.41837c-3.85895-.54605-8.73718.39441-12.72955,0v28.56564l6.15845-.01212.01215-10.80008c6.15845-1.94159,6.27374,8.60367,10.02344,10.42999,1.91125.93442,4.8418.16382,6.9472.37616l-7.69958-11.95898c8.10614-4.4899,6.98975-15.23541-2.71216-16.60059M309.97565,482.41837h-6.17059v20.4595c0,.22452,1.88696,3.31281,2.31171,3.85892,4.49597,5.70947,14.64685,5.56995,19.3006.01819.4126-.49146,2.29956-3.65259,2.29956-3.87711v-20.4595h-6.17059v18.91232c0,3.1308-5.66699,5.4971-8.92523,3.53128-.52179-.31552-2.64545-3.17935-2.64545-3.53128v-18.91232ZM267.0423,506.8642c10.30865,10.32077,30.28882.30338,24.79773-15.17474-5.09668-14.37985-28.95392-11.06705-28.97821,5.01175-.00604,2.71216,2.28741,8.26996,4.18048,10.16299M252.89905,482.41837h-22.37073l-.00604,5.4061,7.71783-.00607v23.16559l6.94116-.00607c.38226-.27908-.77057-.98294-.77057-1.15283v-22.00668l8.4884.00607v-5.4061h-.00006ZM217.22839,465.6297l519.67847-.18808c35.15491,6.43756,35.37939,56.03302,0,62.51917l-518.32544.00604c-34.73621-5.84906-35.68884-54.73462-1.35303-62.33716"/>
    <path class="d" d="M268.16418,228.61755c17.13452-.97083,33.56525,2.36029,48.08466,11.64351,1.90521,1.2195,10.71515,7.66924,10.703,9.34998-.00604.89185-8.94952,13.63966-10.02954,14.68929-6.01892,5.86118-10.59985-.21841-15.68439-2.8396-47.67816-24.56104-86.07916,13.08148-77.40875,62.81042,6.64386,38.07941,46.7923,53.77594,78.37347,32.61264,3.24005-2.17215,4.61127-5.91577,9.67761-4.95105,2.04474.39441,13.92487,12.66278,14.19183,14.42242-14.47699,19.99835-40.62775,26.58762-64.29694,24.9433-93.48749-6.49213-95.40485-156.89857,6.38904-162.68088"/>
    <path class="d" d="M744.62891,191.32933c.77661.16989,2.02051,1.36522,2.58472,2.04477l33.28003,50.07474-16.9646-.38219c2.08728,8.07576,6.55896,14.98657,10.61804,22.12799-.46106,4.47784-5.60022,4.78723-9.08911,3.73758-2.94263-1.73532-.80701-12.01361-1.54724-15.2961-.13953-.61891-1.35913-.56429-1.78381-1.51688-1.40771-3.19751,1.09827-10.49669-5.91577-9.0587-.8009-6.46788,2.23279-14.22211-2.6637-19.33699-5.83691-6.07959-25.94446-17.83836-34.172-18.31766-4.48999-.26701-11.99536,6.01283-15.22937,9.07083-3.99854-6.66814-11.51611-13.80956-15.05945-20.42307-.50354-.94044-1.04358-1.46835-.75232-2.72432h56.69446l.00012-.00002Z"/>
    <path class="d" d="M749.65283,258.50159c-11.02454-18.29951-31.66003-29.25125-52.45923-32.43663,3.13086-5.83694,13.81555-17.80809,20.4231-18.53616,7.4751-.8252,19.64648,6.17059,25.76855,10.52104,4.08337,2.90022,10.08411,7.10493,10.81226,12.33508.66748,4.72659-1.39551,21.49101-3.03979,26.1629-.29126.8252-.38232,1.84451-1.50476,1.95377"/>
    <path class="d" d="M614.46906,418.49829c-9.21649,1.49863-9.2226,17.46823,0,18.97296,14.68329,2.38449,14.67719-21.36963,0-18.97296M612.90363,415.42206c21.1026-4.37466,21.81256,28.56564.64319,25.24673-12.54144-1.96588-12.85089-22.71661-.64319-25.24677"/>
    <path class="d" d="M373.22357,431.44684l-5.38794-12.34122-3.86499,12.34726,9.25287-.00607.00006.00003ZM380.16473,440.71793l-3.74969-.10315-2.33594-6.36478-11.54639-.37009c-1.55939,3.74966-.84949,7.93625-6.27374,6.83197l10.14478-25.33774,4.13196.63708,9.62909,24.7067h-.00006Z"/>
    <path class="d" d="M641.26965,424.85516c-2.57257,0-3.94995,1.45618-4.27759,3.86493-.49756,3.62839-1.04358,9.22256,3.62836,9.44708,6.89264.32153,7.25671-13.31808.64923-13.31201M633.16962,422.19153l3.00946.10315.07886,2.21466c1.84448.06671,2.57867-1.73532,4.39893-2.15396,13.42725-3.11868,10.67261,25.63504-3.62225,16.8251l-.00604,7.72385-3.85895-.00607v-24.70673Z"/>
    <path class="d" d="M201.7782,415.41962c4.75085-.97687,9.08905-.13956,12.5354,3.29462l-2.02045,1.8324c-15.67834-10.64233-22.26154,16.67947-7.57825,17.12238,3.61621.10315,6.48615-3.42813,8.84027-1.18314-2.53015,5.36365-10.41174,5.2059-15.05945,2.71216-9.17401-4.93283-6.92297-21.67297,3.28247-23.77838"/>
    <path class="d" d="M258.29602,422.19153l3.01556.09708.07886,2.22678c3.36139-3.81647,12.33514-2.76071,12.33514,2.69397v13.51224h-3.85889v-14.28284c-1.26202-2.73035-7.71173-1.07996-7.71173.7706v13.51224h-3.85895v-18.53006Z"/>
    <path class="d" d="M499.72656,422.19153l3.01556.09708.07886,2.22678c3.36139-3.81647,12.33514-2.76071,12.33514,2.69397v13.51224h-3.85895v-14.28284c0-2.65146-7.71173-1.43192-7.71173.7706v13.51224h-3.85895v-18.53006h.00006Z"/>
    <path class="d" d="M454.98084,432.22772c-1.84448,1.00113-8.76141.52786-7.65106,4.16837,1.17706,3.86499,9.79901.86157,7.65106-4.16837M458.84583,440.72217l-3.00946-.10315-.07886-2.21466c-3.31891,1.13464-4.50201,3.30679-8.52478,1.97803-8.33063-2.74857,1.14679-12.8873,7.76031-10.47244.16986-2.25711.29126-4.405-2.29352-5.07849-3.30072-.8555-7.35376,4.82974-7.40839-.33371,2.76068-2.52402,9.27716-3.57977,11.78302-.54605.2912.35797,1.77173,3.81036,1.77173,4.02881v12.74167h-.00006Z"/>
    <path class="d" d="M491.13684,436.75406l.09705-4.52634c-2.48157,1.28024-5.89758.1517-7.65106,2.78497l.716,2.245c2.23889,1.89304,4.4353.25482,6.83801-.5036M495.09888,440.72217l-3.00946-.10315-.46716-2.22073c-14.05835,8.4277-15.49023-9.98096-.37622-8.48834l-.76453-4.26544c-2.3299-1.81415-5.16339-.44897-7.3598.95258l-1.89307-1.70496c2.58478-2.9306,9.53204-4.05307,12.09857-.94046.2912.35797,1.77173,3.81036,1.77173,4.02881v12.74167l-.00006.00003Z"/>
    <path class="d" d="M694.77197,436.75406l.09705-4.52634c-2.48157,1.28024-5.89758.1517-7.65112,2.78497l.71594,2.245c2.23889,1.89304,4.4353.25482,6.83801-.5036M698.73401,440.72217l-3.00952-.10315-.46716-2.22073c-14.05835,8.4277-15.49023-9.98096-.37622-8.48834l-.76453-4.26544c-2.32983-1.81415-5.16345-.44897-7.35986.95258l-1.89307-1.70496c2.58472-2.9306,9.53198-4.05307,12.09851-.94046.29126.35797,1.77173,3.81036,1.77173,4.02881v12.74167l.00012.00003Z"/>
    <path class="d" d="M723.78833,424.88489c-7.20813.27301-6.77124,13.65787.66138,13.28772,6.17065-.30942,6.66211-13.56686-.66138-13.28772M721.6648,422.37296c15.53271-3.17331,14.28894,22.98358-1.12854,17.75342-7.45691-2.53012-6.92908-16.10913,1.12854-17.75342"/>
    <path class="d" d="M225.49835,424.88303c-7.20209.27301-6.7713,13.65787.66742,13.28772,6.16455-.30942,6.65601-13.56073-.66742-13.28772M223.37476,422.37109c14.50732-2.96698,14.88348,20.38065.64923,18.30554-8.79779-1.28629-9.72003-16.44888-.64923-18.30554"/>
    <path class="d" d="M551.00757,424.88489c-7.20813.27301-6.7713,13.65787.66138,13.28772,6.17059-.30942,6.66211-13.56686-.66138-13.28772M548.88397,422.37296c14.51337-2.96091,14.87744,20.37457.64923,18.30554-8.97986-1.31055-9.45923-16.50958-.64923-18.30554"/>
    <path class="d" d="M327.31708,424.88428c-7.20813.27301-6.7713,13.65787.66138,13.28778,6.35266-.31552,6.78949-13.57297-.66138-13.28778M325.19348,422.37235c14.51947-2.95486,14.87134,20.37457.64923,18.30554-9.05872-1.32269-9.25287-16.55811-.64923-18.30554"/>
    <path class="d" d="M664.02014,429.13937c.68567-5.46069-8.38525-5.23621-9.23462-1.14066-.36414,1.72919.77661,1.06183,1.89905,1.14066,2.4209.18207,4.91467-.12134,7.33557,0M667.10852,431.45715h-12.34119c-.4126,3.57977,1.89905,6.77734,5.6488,6.69846,3.4342-.07883,5.61841-4.11371,6.62561-.12134-4.01062,4.18658-12.79626,3.76184-14.76208-2.15396-5.12097-15.38705,15.17468-19.56757,14.82886-4.42316"/>
    <polygon class="d" points="544.46503 415.24246 544.47107 417.55414 535.98267 417.56024 535.98267 440.71973 532.12384 440.71973 532.12384 417.56024 523.63544 417.55414 523.64148 415.24246 544.46503 415.24246"/>
    <path class="d" d="M385.56781,422.19153v13.51224c0,2.62726,7.39624,3.07623,8.4823,0v-13.51224h3.08838v18.53006c-2.88812.92227-2.73645-2.04471-3.10046-2.31781-.32159-.23053-3.19147,3.08835-7.28705,2.31174-1.11035-.20633-4.27148-3.03372-4.27148-3.47058v-15.05341h3.08832Z"/>
    <path class="d" d="M566.83392,422.19153v13.51224c0,3.10654,8.48236,2.71826,8.48236,0v-13.51224h3.08832v18.53006c-2.88812.92227-2.73639-2.04471-3.10046-2.31781-.32159-.23053-3.19147,3.08835-7.28705,2.31174-1.11035-.20633-4.27148-3.03372-4.27148-3.47058v-15.05341h3.08838-.00006Z"/>
    <path class="d" d="M241.32593,422.19153v13.51224c0,3.10654,8.4823,2.71826,8.4823,0v-13.51224h3.08838v18.53006c-2.88812.92227-2.73645-2.04471-3.10046-2.31781-.32159-.23053-3.19147,3.08835-7.28705,2.31174-1.11035-.20633-4.26544-3.03372-4.26544-3.47058v-15.05341h3.08228Z"/>
    <path class="d" d="M340.05878,425.27985c-.12744-.19415-3.16113-.9465-3.08832-3.08228l3.06403-.03638c-.07281-5.33936,3.32495-7.83917,8.51263-6.9169l-.00604,2.29956c-3.40381.25482-5.67914.64316-5.39398,4.6416l5.40002.01212v2.30566l-4.62946.00607v16.21225h-3.85895c0-2.26318.42474-14.79852,0-15.44168"/>
    <path class="d" d="M422.59271,437.63382c12.10461.24271.7099,5.69131-2.37238,1.99014-.80701-.97083-1.34088-4.09555-1.46832-5.47287-.30939-3.17935,1.99622-10.45425-2.3299-9.64731l-.00604-2.31168,3.09436.00607c-.18201-.80698-.04852-7.14142,1.91125-6.17667,1.9234,1.52292,1.02539,4.09552,1.16498,6.17667l5.41217-.00607v2.31168l-5.40613.00607v13.12396Z"/>
    <path class="d" d="M707.98999,437.63382c12.42004.36404.24268,5.85507-2.6637,1.5108-1.78992-2.67575-1.58362-11.50394-.42468-14.62869l-3.08826-.01212v-2.31168l3.09436.00607,1.15283-6.19492,1.94165.46115-.01819,5.73376,5.41211-.00607v2.31168l-5.40613.00607v13.12393Z"/>
    <path class="d" d="M413.33136,426.0492c-1.72925-.60675-8.49445-2.49374-8.51874,1.16495-.01819,3.56766,9.75647,1.86877,9.37421,8.4884-.33978,5.86722-12.33514,7.52972-12.414,1.16492.68561-.72198,9.18005,3.93781,9.30139-1.94766.0304-1.38943-.2002-.94046-1.01324-1.35303-3.6344-1.8627-11.09735-2.46338-7.56006-8.71286,3.17938-5.6185,13.27563-1.54724,10.83044,1.19528"/>
    <path class="d" d="M761.97888,426.0492c-1.72925-.60675-8.49451-2.49374-8.51868,1.16495-.01819,3.56766,9.75647,1.86877,9.37427,8.4884-.33972,5.86722-12.33508,7.52972-12.41406,1.16492.68567-.72806,9.17407,3.93781,9.30139-1.94766.0304-1.38943-.2002-.94046-1.01331-1.35303-3.16113-1.61395-8.56726-1.69281-8.34277-6.383.26697-5.67307,11.55847-7.49939,11.61316-1.13458"/>
    <path class="d" d="M290.65564,439.13736c-.10919.16382-3.20361,1.3288-3.61017,1.40161-16.83722,3.02155-11.77692-26.57553,3.64655-16.40643-.64313,3.62833-3.47668.49753-5.66095.5946-8.88885.40045-5.67914,19.4826,4.50812,11.3765.96472.54605,1.65033,2.23279,1.11639,3.03372"/>
    <path class="d" d="M736.52942,422.19153l3.08228-.00607.01208,3.09442c2.57263-2.22073,3.88318-3.81647,7.70569-3.09442l-.0061,3.86499c-1.79602-2.05084-6.93506.34583-6.93506,1.92947v12.74167h-3.85889v-18.53006Z"/>
    <path class="d" d="M671.73682,422.19153l3.08228-.00607.01208,3.09442c2.57263-2.22073,3.88318-3.81647,7.70569-3.09442l-.0061,3.86499c-1.79602-2.05084-6.93506.34583-6.93506,1.92947v12.74167h-3.85889v-18.53006Z"/>
    <path class="d" d="M583.03229,422.19153l3.08228-.00607.01215,3.09442c2.57257-2.22073,3.88318-3.81647,7.70569-3.09442l-.00604,3.86499c-1.79596-2.05084-6.93512.34583-6.93512,1.92947v12.74167h-3.85895v-18.53006Z"/>
    <path class="d" d="M431.07745,422.19153l3.08228-.00607.01215,3.09442c2.57257-2.22073,3.88318-3.81647,7.70569-3.09442l-.00604,3.86499c-1.79596-2.05084-6.93512.34583-6.93512,1.92947v12.74167h-3.85895v-18.53006Z"/>
    <rect class="d" x="464.24036" y="414.47369" width="3.08228" height="26.24789"/>
    <rect class="d" x="304.57501" y="414.47369" width="3.08228" height="26.24789"/>
    <rect class="d" x="472.72876" y="422.19153" width="3.08228" height="18.53006"/>
    <rect class="d" x="295.32214" y="422.19153" width="3.08228" height="18.53006"/>
    <path class="d" d="M473.19959,414.53986c3.33105-1.0679,4.55664,2.89417,2.66364,4.22296-3.35535,2.34811-5.63062-3.27643-2.66364-4.22296"/>
    <path class="d" d="M298.32617,414.55438c1.86877,1.17102.42474,6.64996-3.05194,4.21082-2.427-1.70496.44897-5.84296,3.05194-4.21082"/>
    <path class="d" d="M600.77295,505.57974v-17.75949c16.83722-2.99731,16.83722,20.75684,0,17.75949"/>
    <path class="d" d="M275.06897,488.01627c13.72461-3.5434,15.5752,18.87589,1.35303,17.59567-8.65826-.77664-8.61578-15.72083-1.35303-17.59567"/>
    <path class="d" d="M346.99695,495.54599v-8.50052c11.51001-1.9234,11.15808,10.36322,0,8.50052"/>
    <path class="d" d="M573.00153,500.16998h-7.70569l3.08832-10.80615c1.32269.61887,5.06024,10.41174,4.61737,10.80615"/>
    <path class="d" d="M501.26593,500.16998h-7.70569l3.08832-10.80615c1.32269.61887,5.06024,10.41174,4.61737,10.80615"/>
    <path class="d" d="M158.60632,782.06448c-9.61694,0-18.08105-1.99011-25.40448-5.98859-7.33557-3.98633-13.07538-9.98706-17.21341-18.01434-4.15622-8.00903-6.22522-17.89294-6.22522-29.65778,0-11.75873,2.06903-21.6366,6.22522-29.66382,4.138-8.00903,9.87784-14.00977,17.21341-18.00824,7.32343-3.99237,15.78754-5.98859,25.40448-5.98859,10.03558,0,18.57251,1.95978,25.59259,5.89154,7.01398,3.9317,12.01965,9.90814,15.01697,17.91724l-15.06549,9.21649-1.77777-.04248c-2.245-5.43036-5.28479-9.31354-9.12549-11.64954-3.83466-2.36633-8.72504-3.55554-14.64081-3.55554-8.67645,0-15.44171,2.87598-20.30176,8.60364-4.8479,5.70947-7.25668,14.81067-7.25668,27.2793,0,12.4201,2.40878,21.49707,7.25668,27.22473,4.86005,5.74591,11.62524,8.60974,20.30176,8.60974,13.56683,0,21.86108-6.59534,24.88873-19.78601h1.77777l15.20508,7.90594c-2.8396,9.91425-7.71783,17.35297-14.64081,22.31616-6.90479,4.93286-15.98169,7.39014-27.23077,7.39014"/>
    <polygon class="d" points="238.12842 734.76492 238.12842 763.30624 287.90588 763.30624 287.90588 780.56821 217.49902 780.56821 217.49902 676.23813 286.78339 676.23813 286.78339 693.50009 238.12842 693.50009 238.12842 717.9216 280.65527 717.9216 280.65527 734.76492 238.12842 734.76492"/>
    <path class="d" d="M346.60498,720.77817c9.98096,0,14.97449-4.65979,14.97449-13.99158,0-9.47131-4.99353-14.22217-14.97449-14.22217h-18.76062v28.21375h18.76062ZM307.21497,780.56699v-104.33008h41.87158c10.78186,0,18.92444,2.50586,24.42151,7.48724,5.52136,4.95715,8.2821,11.81335,8.2821,20.53839,0,6.34052-1.61395,11.5282-4.81757,15.5752-3.21576,4.05914-8.00299,7.14746-14.36169,9.26501v1.49866c3.27032,1.43799,5.90363,3.55554,7.90588,6.36475,2.02045,2.80316,3.93781,6.96545,5.75195,12.48688l10.43604,31.11395h-21.19366l-10.1994-31.20502c-1.06787-3.11261-2.245-5.54565-3.55554-7.29913-1.31055-1.74133-2.98523-3.00342-5.00568-3.78607-2.00226-.77661-4.62341-1.17102-7.8634-1.17102h-11.04279v43.46124h-20.62939.00006Z"/>
    <polygon class="d" points="474.86816 676.23691 474.86816 693.59598 444.73712 693.59598 444.73712 780.56699 424.19879 780.56699 424.19879 693.59598 394.07379 693.59598 394.07379 676.23691 474.86816 676.23691"/>
    <rect class="d" x="491.29523" y="676.2363" width="20.62939" height="104.33008"/>
    <polygon class="d" points="605.26715 676.23691 605.26715 693.49887 559.74292 693.49887 559.74292 721.10587 601.05627 721.10587 601.05627 738.17972 559.74292 738.17972 559.74292 780.56699 539.11353 780.56699 539.11353 676.23691 605.26715 676.23691"/>
    <rect class="d" x="623.48108" y="676.2363" width="20.62939" height="104.33008"/>
    <polygon class="d" points="691.93298 734.76492 691.93298 763.30624 741.71045 763.30624 741.71045 780.56821 671.30359 780.56821 671.30359 676.23813 740.58801 676.23813 740.58801 693.50009 691.93298 693.50009 691.93298 717.9216 734.45984 717.9216 734.45984 734.76492 691.93298 734.76492"/>
    <path class="d" d="M797.32739,763.20798c10.75757,0,18.8031-2.73645,24.13635-8.23352,5.33325-5.48499,8.00293-14.3374,8.00293-26.5755,0-12.21991-2.66968-21.07233-8.00293-26.56946-5.33325-5.48499-13.37878-8.23352-24.13635-8.23352h-15.67834v69.61206h15.67834v-.00006ZM798.54077,676.23691c16.93433,0,29.85803,4.38678,38.7832,13.14819,8.91321,8.73712,13.37878,21.73975,13.37878,39.01379,0,17.21948-4.46558,30.22809-13.37878,39.0199-8.92517,8.77356-21.84888,13.14819-38.7832,13.14819h-37.52124v-104.33008h37.52124Z"/>
  </g>
</svg>