<?xml version="1.0" encoding="utf-8"?>
<!-- Generator: Adobe Illustrator 21.0.0, SVG Export Plug-In . SVG Version: 6.00 Build 0)  -->
<svg version="1.1" id="Layer_1" xmlns="http://www.w3.org/2000/svg" xmlns:xlink="http://www.w3.org/1999/xlink" x="0px" y="0px"
	 viewBox="0 0 338.5 33.8" style="enable-background:new 0 0 338.5 33.8;" xml:space="preserve">
<style type="text/css">
	.st0{fill:#FFFFFF;}
</style>
<path class="st0" d="M3,31.3h9.9c0,0,0-8.9,0-9.4c0.5,0,10.1,0,10.1,0v-8c0,0-9.6,0-10.1,0c0-0.4,0-2.8,0-3.3c0.5,0,10.1,0,10.1,0
	v-8H3V31.3z"/>
<path class="st0" d="M36.3,2.7h-10v28.6h22v-8.2c0,0-11.6,0-12,0C36.3,22.6,36.3,2.7,36.3,2.7z"/>
<rect x="51.5" y="2.7" class="st0" width="10.2" height="28.6"/>
<path class="st0" d="M81.9,10.2c3.2,0,6.7,0.8,9.9,2.3c0,0,0.8,0.4,0.8,0.4V4.7l-0.2-0.1c-1.7-0.7-2.4-1-3.8-1.4
	c-2.2-0.6-4.8-1-7.3-1C71,2.3,64.1,8.2,64.1,17c0,8.6,7,14.7,17,14.7c4.6,0,9.3-1.4,12.7-3.8l0.1-0.1V15.3H81.7v6.2c0,0,2.6,0,3,0
	c0,0.3,0,1.2,0,1.4c-0.1,0-0.2,0.1-0.2,0.1c-1.4,0.6-2,0.8-3.5,0.8c-5.4,0-7.5-1.9-7.5-6.6C73.4,12,75.6,10.2,81.9,10.2z"/>
<path class="st0" d="M124.7,31.3V2.7h-9.5c0,0,0,9.3,0,9.8c-0.5,0-9,0-9.5,0c0-0.5,0-9.8,0-9.8h-9.6v28.6h9.6c0,0,0-9.4,0-9.9
	c0.5,0,9,0,9.5,0c0,0.5,0,9.9,0,9.9S124.7,31.3,124.7,31.3z"/>
<path class="st0" d="M127,11c0,0,8.2,0,8.7,0c0,0.5,0,20.4,0,20.4h10.6c0,0,0-19.9,0-20.4c0.5,0,8.7,0,8.7,0V2.7h-28L127,11L127,11z
	"/>
<path class="st0" d="M266.7,31.3c0,0,0-19.9,0-20.4c0.5,0,8.7,0,8.7,0V2.7h-28V11c0,0,8.2,0,8.7,0c0,0.5,0,20.4,0,20.4
	S266.7,31.3,266.7,31.3z"/>
<path class="st0" d="M181.4,23.6c-3.8,0.2-6.2-1.5-7.3-2.6c-1.3-1.2-2.1-2.8-2.1-4.1c0-2.7,2.8-6.6,8.9-6.6c4,0,6.6,0.9,8.5,3
	l0.4,0.5V5l-0.1-0.1c-0.9-0.6-1.3-0.7-2.4-1.1c-2.7-1-4.8-1.4-7.8-1.4c-3.5,0-6.6,0.7-9.2,2c-5,2.6-8,7.3-8,12.7
	c0,8.6,6.8,14.5,16.5,14.5c4.1,0,7.4-0.8,11.1-2.8l0.1-0.1v-6.6l0-2.5l-0.4,0.4C189.6,20.1,186.3,23.4,181.4,23.6z"/>
<path class="st0" d="M213.5,10V2.7h-20.9v28.5h21.2v-7.1c0,0-11.1,0-11.6,0c0-0.4,0-2.8,0-3.2c0.5,0,10.7,0,10.7,0v-7.2
	c0,0-10.2,0-10.7,0c0-0.4,0-3.3,0-3.7C202.6,10,213.5,10,213.5,10z"/>
<path class="st0" d="M328.1,24.1c0,0-11.1,0-11.6,0c0-0.4,0-2.8,0-3.2c0.5,0,10.7,0,10.7,0v-7.2c0,0-10.2,0-10.7,0
	c0-0.4,0-3.3,0-3.7c0.5,0,11.3,0,11.3,0V2.7h-20.9v28.5h21.2L328.1,24.1L328.1,24.1z"/>
<path class="st0" d="M236.4,16.8c-0.8-1-11.6-14.1-11.6-14.1h-8.7v28.5h9.4c0,0,0-12.6,0-13.8c0.8,0.9,12.1,13.8,12.1,13.8h8.2V2.7
	h-9.4C236.4,2.7,236.4,15.5,236.4,16.8z"/>
<g>
	<path class="st0" d="M333.6,6.5L333.6,6.5c0.4-0.2,0.8-0.5,0.8-1c0-0.4-0.1-0.7-0.4-0.8c-0.2-0.2-0.6-0.3-1.3-0.3
		c-0.5,0-0.8,0-1.1,0.1v4h0.6V6.7h0.5c0.5,0,0.8,0.2,0.9,0.7c0.1,0.5,0.2,0.9,0.3,1h0.7c-0.1-0.1-0.2-0.4-0.3-1
		C334.2,6.8,333.9,6.5,333.6,6.5z M332.7,6.2h-0.5V4.9c0.1,0,0.3,0,0.5,0c0.7,0,1,0.4,1,0.7C333.7,6,333.2,6.2,332.7,6.2z"/>
	<path class="st0" d="M332.9,2.7L332.9,2.7c-2,0-3.6,1.6-3.6,3.6c0,2,1.6,3.6,3.6,3.6c2,0,3.6-1.6,3.6-3.6
		C336.5,4.3,334.9,2.7,332.9,2.7z M332.9,9.4c-1.6,0-2.9-1.3-2.9-3.1c0-1.7,1.3-3,2.9-3h0c1.6,0,2.9,1.4,2.9,3.1
		C335.8,8,334.5,9.4,332.9,9.4z"/>
</g>
<path class="st0" d="M299.9,16.6c1.6-1.4,2.5-3.4,2.5-5.6c0-2.7-1.5-5.4-3.8-6.9c-1.9-1.1-3.4-1.4-7.5-1.4h-14v28.5h9.1
	c0,0,0-10.4,0-10.9c0.3,0,0.8,0,0.8,0c1.2,0,1.4,0,1.9,0.2c1.1,0.3,1.5,1.1,2.3,3.1l0.3,0.6c0,0,1.1,2.4,1.1,2.4
	c0,0,0.8,1.8,0.8,1.8c0,0,0.5,1.3,0.5,1.3c0,0,0.7,1.6,0.7,1.6h10.7l-0.3-0.8c0,0-0.7-1.6-0.7-1.6l-0.9-1.9c0,0-0.7-1.6-0.7-1.6
	l-1.1-2.4c-1.2-2.7-2.4-3.9-3.8-4.7c0.6-0.4,1.1-0.8,1.5-1.2L299.9,16.6z M290.2,14.2c0,0-0.9,0-0.9,0c0,0-0.5,0-0.5,0s-2.2,0-2.6,0
	c0-0.4,0-4.5,0-4.9c0.4,0,3.3,0,3.3,0c2.7,0,3.5,0.6,3.5,2.4C292.9,13.3,292.1,14.1,290.2,14.2z"/>
</svg>
