<?xml version="1.0" encoding="utf-8"?>
<svg xmlns="http://www.w3.org/2000/svg" viewBox="0 -217.747 1202.382 817.747" xmlns:bx="https://boxy-svg.com" width="1202.382px" height="817.747px"><defs><clipPath id="a"><path fill="none" d="M349.175 520.627H645.41v44.046H349.175z"/></clipPath><clipPath id="b"><path fill="none" d="M698.037 408.147h64.11v80.68h-64.11z"/></clipPath><clipPath id="c"><path fill="none" d="M630.337 408.147h64.11v80.68h-64.11z"/></clipPath><clipPath id="d"><path fill="none" d="M562.637 408.147h64.11v80.68h-64.11z"/></clipPath><clipPath id="e"><path fill="none" d="M494.937 408.147h64.11v80.68h-64.11z"/></clipPath><clipPath id="f"><path fill="none" d="M765.737 408.147h64.11v80.68h-64.11z"/></clipPath><clipPath id="g"><path fill="none" d="M833.437 408.147h64.11v80.68h-64.11z"/></clipPath><clipPath id="h"><path fill="none" d="M97.037 408.147h386.46v80.68H97.037z"/></clipPath><clipPath id="i"><path fill="none" d="M268.207 322.607h458.17v60.69h-458.17z"/></clipPath><bx:export><bx:file format="svg"/></bx:export></defs><g transform="matrix(1, 0, 0, 1, 104.841057, -36.291138)"><g clip-path="url(#a)"><g><path fill="#f4f1ea" d="M370.877 563.664c-11.404 0-20.687-9.43-20.687-21.011s9.276-21.011 20.687-21.011h252.825c11.404 0 20.687 9.43 20.687 21.011 0 11.582-9.277 21.011-20.687 21.011H370.877Z"/><path fill="#a1f1ff" d="M623.702 522.65c10.86 0 19.665 8.96 19.665 20.003 0 11.044-8.805 20.002-19.665 20.002H370.877c-10.86 0-19.666-8.952-19.666-20.002s8.806-20.002 19.666-20.002h252.825Zm0-2.023H370.877c-2.935 0-5.785.587-8.47 1.736a21.568 21.568 0 0 0-6.897 4.733c-4.085 4.159-6.341 9.68-6.341 15.557s2.25 11.398 6.341 15.556a21.666 21.666 0 0 0 6.898 4.733 21.269 21.269 0 0 0 8.469 1.737h252.825c2.935 0 5.784-.587 8.469-1.737a21.568 21.568 0 0 0 6.898-4.733c4.084-4.158 6.34-9.68 6.34-15.556s-2.25-11.398-6.34-15.557a21.665 21.665 0 0 0-6.898-4.733 21.27 21.27 0 0 0-8.47-1.736"/><path fill="#001ede" d="m377.17 533.297-.068.037c-.006 0-.012.006-.018.012-.019.012-.03.024-.05.03-.011.007-.024.013-.03.025-.012.006-.024.018-.036.024a.185.185 0 0 1-.043.031c-.006.006-.019.012-.025.018-.024.013-.036.03-.055.043 0 0-.006.006-.012.006-.526.422-1.003 1.1-1.137 1.688-.245.795-.16 2 .477 2.22h.012c.024.006.037.012.055.012.012 0 .024.006.03.006.013 0 .031 0 .043.006h.178s.055-.006.085-.012h.012c.031-.006.062-.012.092-.024.006 0 .012-.007.025-.007l.091-.036.037-.019.073-.036c.025-.013.05-.03.074-.043.012-.006.024-.012.03-.019.08-.042.153-.091.227-.14.006-.006.012-.012.024-.012.025-.013.043-.03.067-.05.013-.012.03-.024.05-.036a.11.11 0 0 1 .042-.03l.067-.056c.006-.006.013-.012.025-.018.024-.024.049-.049.08-.073.757-.716 1.173-1.847.965-2.832-.104-.483-.311-.899-.776-.91h-.135a1.476 1.476 0 0 0-.477.177h-.006v.006l.006.012Zm-8.837 7.301c0-.043-.006-.085-.012-.134v-.03a.744.744 0 0 1-.043-.105c-.006-.018-.012-.036-.024-.055 0-.012-.013-.024-.013-.03l-.012-.025a2.111 2.111 0 0 0-.501-.611l-.019-.019c-.452-.397-1.076-.715-1.596-.782h-.012a2.619 2.619 0 0 0-.397-.05h-.03a2.821 2.821 0 0 0-1.016.11c-.006 0-.012 0-.024.007a.087.087 0 0 0-.037.012c-.324.104-.581.275-.667.526v.012a.178.178 0 0 0-.012.055c0 .025-.006.037-.012.061v.013a.736.736 0 0 0 .049.33.298.298 0 0 0 .024.067c0 .006.006.012.013.025.055.116.14.25.256.39.587.747 1.62 1.169 2.58 1.132.24-.006.478-.043.704-.11.422-.122.801-.342.807-.721v-.05l-.006-.018Zm-1.681-5.27c-.649-.007-1.138.317-.869 1.296.05.201.122.403.208.587.006.012.012.024.025.036 0 .006.006.013.012.025.458.905 1.4 1.608 2.385 1.785.183.03.367.055.544.055h.085c.276-.006.52-.073.68-.244l.048-.068c.012-.018.025-.036.037-.06 0-.007.006-.013.012-.019a.95.95 0 0 0 .086-.263v-.037c.091-.844-.74-2.134-1.615-2.599-.452-.28-1.1-.495-1.626-.495h-.012Zm1.253 8.016c0-.037-.006-.073-.012-.116 0-.012-.006-.03-.012-.05a.716.716 0 0 0-.294-.384c-.006-.007-.012-.013-.024-.013a.129.129 0 0 1-.037-.024c-.312-.202-.783-.318-1.235-.36a3.865 3.865 0 0 0-.844 0 1.146 1.146 0 0 0-.153.024c-.086.012-.183.03-.287.055a2.982 2.982 0 0 0-.9.403c-.005 0-.012.006-.024.012-.3.196-.52.435-.513.68v.03c.012.122.085.238.244.354.012.013.03.025.043.031 0 0 .006.006.012.006.03.025.067.049.104.067.037.025.074.043.11.068h.006c.037.018.068.036.11.055.007 0 .013.006.025.012.03.012.067.03.098.043a.088.088 0 0 0 .043.012c.024.012.055.018.085.03a.3.3 0 0 1 .067.025.769.769 0 0 1 .062.018c.03.006.055.019.091.025a.706.706 0 0 0 .147.037h.018c.05.006.092.018.135.024.245.037.501.055.758.043h.012c.043 0 .092 0 .135-.006h.037c.036 0 .067-.007.104-.013.024 0 .048-.006.073-.012.024 0 .049-.006.073-.012l.104-.019c.013 0 .025 0 .037-.006.049-.006.092-.024.135-.03h.006c.385-.092.746-.245 1.02-.465.007-.006.02-.012.025-.024.019-.013.037-.031.055-.05s.037-.03.055-.048l.019-.019c.116-.11.208-.238.281-.373v-.024l.012-.025h.006-.018l.006.019Zm13.184-4.421s-.03.012-.049.012c-.018.006-.037.012-.061.024h-.006a3.26 3.26 0 0 0-.85.453s-.006 0-.006.006a.24.24 0 0 0-.061.049c-.007.006-.013.012-.025.018-.012.013-.03.025-.049.037a.11.11 0 0 1-.043.03c-.012.007-.018.019-.03.025-.019.012-.03.03-.05.049 0 0-.011.006-.011.012a2.496 2.496 0 0 0-.483.593c-.098.178-.025.043-.031.068 0 .006 0 .012-.006.024s-.012.03-.018.05a.047.047 0 0 1-.013.03.047.047 0 0 1-.012.03c-.006.019-.012.03-.012.05s-.006.036-.006.036a.574.574 0 0 0 .012.367.624.624 0 0 0 .245.305l.012.013c.012.006.024.012.03.024.05.037.103.068.16.092.275.147.623.22 1.002.232a3.478 3.478 0 0 0 1.694-.367c.38-.183.71-.434.936-.746.36-.422.41-.758.269-1.009-.288-.538-1.413-.69-2.122-.562a1.88 1.88 0 0 0-.385.08h-.019v-.013h-.012v-.012Zm-3.632 8.065h-.03a.739.739 0 0 0-.319.062s-.024.012-.036.024a.085.085 0 0 0-.025.018s-.006 0-.012.007c-.41.28-.44 1.064-.275 1.62.269 1.12 1.18 2.11 2.299 2.422 1.535.489 1.437-1.34.935-2.33-.269-.642-.953-1.272-1.638-1.59-.025-.012-.043-.018-.061-.03h-.007c-.287-.13-.574-.196-.825-.184s0-.006 0-.006l-.006-.013Zm-7.815-10.487c.403.477 1.192 1.077 1.773.93.19-.037.36-.16.483-.392l.019-.03s.006-.019.012-.03c.024-.05.036-.092.055-.141a.255.255 0 0 1 .024-.061c.012-.031.025-.056.025-.092a.4.4 0 0 0 .024-.129c0-.012 0-.024.006-.03.135-.777-.134-1.847-.678-2.422-.392-.47-1.003-.905-1.51-.935-.429-.037-.79.208-.9.96a2.576 2.576 0 0 0 0 .892 2.92 2.92 0 0 0 .66 1.474l.007.006Zm-.624 14.303a2.81 2.81 0 0 0 .36-.214c.826-.538 1.456-1.443 1.499-2.421.03-.386-.043-.655-.177-.826l-.013-.012c-.012-.018-.024-.03-.036-.049a.662.662 0 0 0-.306-.171c-.006 0-.018 0-.024-.006-.025 0-.037-.013-.055-.013-.025 0-.05-.006-.074-.012h-.012c-.6-.061-1.437.343-1.939.783-.782.587-1.339 1.932-1.051 2.727l.012.037c.183.69 1.192.526 1.834.183h-.006l-.012-.006Zm3.693 1.064s.007-.012.013-.018c.11-.153.201-.318.275-.477.41-.77.403-2.11-.049-2.746l-.024-.03c-.471-.801-1.346-.05-1.694.63a3.325 3.325 0 0 0-.349 2.28c.012.074.03.153.055.233.373 1.339 1.23.899 1.767.14l.006-.012Zm1.444-19.207c-.153-.177-.312-.214-.453-.153-.202.067-.403.306-.562.765-.11.28-.184.587-.208.843-.062.483-.05.997.073 1.48.11.483.306.85.526 1.021.153.135.3.147.428.08.208-.092.416-.385.569-.936.116-.367.183-.764.183-1.02v-.282a3.647 3.647 0 0 0-.08-.71c-.097-.507-.268-.886-.476-1.094m8.328 11.832c.05-.006.092-.012.14-.024.02 0 .031-.006.05-.006a.584.584 0 0 0 .11-.025c.024 0 .037-.012.061-.012a.453.453 0 0 0 .086-.024.739.739 0 0 1 .11-.03c.006 0 .018-.007.024-.007a2.43 2.43 0 0 0 .569-.257c.257-.159.36-.336.33-.52-.018-.195-.183-.41-.562-.648-.41-.287-.985-.452-1.56-.495h-.024c-.055 0-.116-.006-.171-.006h-.294c-.03 0-.067 0-.104.006a.752.752 0 0 0-.122.012c-.025 0-.05.006-.068.006-.048.006-.097.013-.146.025-.013 0-.025 0-.037.006l-.171.037h-.006a2.38 2.38 0 0 0-.386.134l-.048.025s-.025.012-.043.018c0 0-.006 0-.013.006-.507.232-.63.49-.532.74.068.232.312.452.667.642.605.33 1.358.47 2.055.398h.012s.055-.007.085-.013h-.012v.012Zm-13.453 1.425v-.036l.006-.05a.609.609 0 0 0-.17-.568c-.227-.257-.643-.349-1.083-.343a2.6 2.6 0 0 0-.63.056c-.165.03-.312.067-.446.103-.857.257-1.615.905-1.976 1.707-.207.415-.232.721-.14.953v.013a.191.191 0 0 0 .03.06c.006.013.019.031.03.05.007.006.013.012.013.024.012.025.03.043.049.068a.724.724 0 0 0 .3.195c.501.214 1.302.14 1.87-.049.96-.244 2.025-1.32 2.135-2.164v-.013l.012-.006Zm7.308 6.341c.03-.055.055-.11.085-.165.006-.012.013-.03.025-.049.122-.263.19-.587.214-.941a3.528 3.528 0 0 0-.294-1.682 2.454 2.454 0 0 0-.477-.734 1.778 1.778 0 0 0-.263-.245c-.996-.764-1.492.997-1.4 1.896 0 .428.165.942.41 1.376.232.416.544.765.88.893l.03.012c.319.116.594 0 .802-.367l-.012.006Zm5.625-3.95H382s.037 0 .05-.006c.024 0 .048-.006.066-.006.037-.006.074-.012.117-.024h.012c.073-.019.147-.037.208-.068.489-.214.538-.678.36-1.162a.15.15 0 0 0-.024-.055v-.012a3.1 3.1 0 0 0-.764-1.107c-.667-.715-2.086-1.113-2.88-.8l-.037.011c-.288.092-.434.276-.483.496-.092.312.03.697.232 1.052.128.238.287.458.44.617.649.74 1.682 1.193 2.666 1.076v-.012Zm-3.803-9.203s.006 0 .012.006c.006 0 .019.006.03.013.576.207 1.523-.056 2.104-.422.9-.465 1.712-1.823 1.572-2.673v-.036c-.055-.746-1.168-.716-1.847-.459-1.125.373-2.091 1.37-2.287 2.544a1.64 1.64 0 0 0-.03.281c-.019.404.165.636.446.752h.006l-.006-.006Z"/><path fill="#2744ff" d="m375.427 529.726-.037.085c-.012.025-.025.05-.03.074-.013.03-.025.055-.031.092-.012.024-.019.055-.025.08-.012.03-.018.054-.03.09-.006.025-.013.056-.025.08a.691.691 0 0 1-.024.092l-.019.086c-.006.03-.012.055-.018.091-.006.03-.012.055-.012.092 0 .03-.006.055-.012.086 0 .03-.006.067-.013.091 0 .025-.006.055-.006.08 0 .03 0 .067-.006.098v.257c0 .036 0 .067.006.104 0 .024 0 .048.006.073 0 .03.007.067.013.104 0 .024.006.049.012.073l.018.098c0 .025.012.049.012.073.007.031.013.062.025.092.006.025.012.055.024.08.006.03.013.055.025.08.012.03.024.06.03.09a.297.297 0 0 0 .025.068c.012.025.018.05.03.074 0 .006.007.018.013.024 0 .006 0 .012.006.018.104.245.226.404.367.483a.046.046 0 0 0 .024.013s.006 0 .012.006c.245.134.538.061.869-.233.232-.19.434-.446.587-.746.03-.055.06-.116.085-.177.184-.348.282-.807.288-1.266.018-.464-.055-.923-.251-1.278-.018-.03-.03-.06-.049-.092-.006-.012-.012-.024-.024-.03l-.025-.03a.893.893 0 0 0-.11-.16s0-.006-.006-.006l-.037-.036s-.018-.019-.03-.025c-.006 0-.012-.012-.019-.012a.133.133 0 0 0-.049-.03.565.565 0 0 0-.464-.062h-.006s-.03.012-.05.012c-.005 0-.012 0-.024.006-.012 0-.024.007-.036.013l-.037.018c-.006 0-.012.006-.018.006a1.96 1.96 0 0 0-.654.58c-.007.007-.013.02-.025.026 0 0-.006.006-.006.012a2.501 2.501 0 0 0-.178.293c-.006.013-.012.03-.024.05-.012.03-.03.054-.043.079-.012.024-.024.049-.03.073v-.012h.006Zm-14.383 6.39c.067.196.165.398.287.575.062.092.129.183.202.275.012.018.03.037.05.055a3.35 3.35 0 0 0 1.773 1.064c.006 0 .018 0 .024.006.024 0 .043.006.067.012.019 0 .037.007.055.013a.12.12 0 0 1 .043.006c.025 0 .049.006.073.012h.031s.049.006.08.006h.201c.104 0 .208 0 .318-.012.092-.006.184-.025.263-.037a.115.115 0 0 0 .05-.012c.011 0 .024-.006.03-.006.373-.092.556-.306.605-.575v-.018s.006-.037.006-.061v-.08a1.458 1.458 0 0 0-.055-.367c0-.006-.006-.018-.006-.024-.006-.025-.012-.037-.018-.061s-.019-.05-.025-.074v-.012a3.103 3.103 0 0 0-.837-1.18 2.346 2.346 0 0 0-.49-.373c-.012-.006-.024-.012-.03-.019-.05-.024-.092-.049-.135-.073-.018-.006-.03-.018-.049-.024-.043-.025-.085-.043-.134-.068-.012-.006-.03-.012-.05-.024-.048-.025-.097-.037-.146-.061-.006 0-.012-.006-.024-.006-.624-.227-1.315-.288-1.774-.092l-.036.012a.59.59 0 0 0-.404.391c-.098.233-.055.514.049.802l.018.018-.012.012Zm21.256 1.18v.086c-.006.569.544.783 1.156.8.421.013.88-.066 1.235-.195a.22.22 0 0 0 .067-.024c.605-.196 1.254-.716 1.633-1.284 0-.006.006-.013.012-.013l.037-.055c.006-.012.018-.024.024-.036s.012-.025.018-.03c.013-.02.025-.038.031-.062 0-.006.006-.012.006-.012l.037-.074c.024-.06.049-.116.073-.17.012-.025.019-.056.03-.08a.302.302 0 0 1 .025-.08v-.012c0-.025.012-.043.012-.061 0-.006 0-.019.007-.025 0-.018.006-.03.006-.049 0-.012 0-.024.006-.036v-.098a.62.62 0 0 0-.202-.612c-.238-.244-.648-.33-1.076-.324-.275 0-.55.03-.765.092-1.02.232-1.944.984-2.287 1.969a1.669 1.669 0 0 0-.104.397h.013l.006-.012Zm-3.027-4.256a2.588 2.588 0 0 0-.122.722v.049c0 .17.024.324.073.464l.012.031c.171.428.532.526.942.47.202-.024.41-.085.618-.164.012 0 .024-.013.03-.013.006 0 .012-.006.025-.006l.036-.018h.006c1.058-.44 1.957-1.535 1.994-2.703.128-1.798-1.804-1.07-2.666-.318-.434.33-.79.911-.966 1.492h.006l.012-.006Zm-12.37 1.651c.232.086.44.129.61.129.692.012.9-.581.845-1.248v-.012s-.007-.061-.007-.092-.006-.055-.012-.08v-.018a3.12 3.12 0 0 0-.354-1.064c-.294-.636-1.058-1.265-1.768-1.535-.006 0-.012 0-.018-.006a.298.298 0 0 1-.067-.024.047.047 0 0 1-.03-.012l-.056-.019c-.012 0-.024-.006-.043-.012-.018 0-.03-.012-.049-.012-.012 0-.024-.006-.036-.006-.019 0-.037-.006-.055-.012-.006 0-.019 0-.025-.007-.024 0-.043-.006-.067-.012h-.012c-.098-.012-.196-.024-.282-.012h-.036l-.086.018h-.006c-.63.117-.679.808-.605 1.443.146 1.138 1.04 2.245 2.158 2.605h-.012l.012-.012Zm3.295 17.746a2.233 2.233 0 0 0-.091-.306.969.969 0 0 0-.245-.379.643.643 0 0 0-.563-.159h-.03c-.324.067-.679.288-.997.587-.012.012-.03.025-.043.037-.41.397-.758.923-.874 1.388-.104.3-.153.679-.135 1.046v.08c.03.47.171.892.459 1.082l.049.03c.012.006.024.012.03.018h.013c.232.098.55.062.96-.195.807-.453 1.382-1.358 1.51-2.275a2.531 2.531 0 0 0-.03-.96l-.013.006Zm7.675-.71c-.251.068-.453.276-.55.692-.02.067-.031.134-.044.208-.024.14-.042.28-.042.421v.147c.02.714.29 1.398.764 1.933.306.336.783.703 1.235.807.025 0 .043.006.061.012h.214s.043 0 .062-.006h.012s.036-.006.049-.012c.006 0 .018 0 .024-.007a.087.087 0 0 0 .037-.012c.012 0 .024-.012.036-.012.007 0 .013 0 .019-.006a.16.16 0 0 0 .055-.03c.14-.08.263-.215.36-.423l.013-.036c.342-.765.067-2.165-.6-2.844-.47-.532-1.204-.997-1.736-.844h.018l.013.013Zm5.558-2.317a3.42 3.42 0 0 0-1.168-.452c-.012 0-.03 0-.049-.007-.018 0-.03 0-.049-.006-.66-.098-1.247.068-1.272.759v.122c.006.134.03.287.08.47.287 1.15 1.376 2.117 2.525 2.33.276.05.563.074.82.043h.024s.037-.006.061-.012a.115.115 0 0 0 .05-.012c.012 0 .03-.006.048-.012.025-.007.037-.013.055-.019.012 0 .03-.012.043-.018.018-.006.037-.012.055-.025.012-.006.03-.018.049-.024.012-.006.024-.012.043-.024a.165.165 0 0 0 .049-.043c.006-.006.018-.013.024-.025.019-.018.037-.036.055-.06l.012-.013a.257.257 0 0 0 .055-.086.93.93 0 0 0 .086-.25v-.037c.104-.838-.734-2.122-1.596-2.593v-.012.006Zm4.678-7.9c.196-.306.116-.643-.532-.924a3.027 3.027 0 0 0-.618-.196c-.036-.012-.085-.018-.122-.024-.734-.147-1.565-.049-2.22.318-.63.336-1.113.954-.214 1.388l.043.024c.807.44 2.269.435 3.088-.091.294-.171.483-.337.581-.496h-.006Zm-28.783-.282v.037a.986.986 0 0 0 .153.25s.006.007.006.013a.074.074 0 0 0 .03.03c.006.006.013.019.025.025l.012.012.037.037c.269.25.69.452 1.113.58h.006s.049.013.073.025c.006 0 .018 0 .025.006a.178.178 0 0 0 .055.012c.012 0 .03.007.042.013.013 0 .025.006.037.006.025 0 .043.012.055.012h.019s.048.012.073.012c.134.025.269.043.391.05.508.073 1.34-.08 1.816-.38.214-.134.361-.287.373-.477v-.03c0-.208-.159-.447-.562-.704-.789-.507-1.896-.648-2.795-.385-.3.098-.63.226-.825.422-.11.11-.178.239-.165.391v.025h.006-.006l.006.018Zm6.959 7.717s-.006 0-.013-.006a.862.862 0 0 0-.27-.122h-.035c-.838-.177-2.19.514-2.74 1.327-.373.489-.71 1.278-.648 1.847 0 .018 0 .036.006.055v.012c.067.44.385.74 1.137.63a3 3 0 0 0 .826-.22c.012-.007.024-.013.037-.013s.024-.012.03-.012c.856-.391 1.56-1.18 1.823-2.048a2.64 2.64 0 0 0 .128-.801c0-.263-.086-.496-.287-.643l.006-.006Zm4.115-17.067c.012.03.03.061.049.092.006.012.012.025.024.037.013.024.025.036.037.055.012.024.025.043.037.067.006.012.012.024.024.03.025.031.037.056.061.08 0 0 0 .006.007.006.19.239.421.428.703.538.513.117.746-.318.923-.82.03-.072.055-.158.073-.238.135-.495.104-1.119-.067-1.693a.114.114 0 0 0-.012-.043c0-.012-.012-.03-.012-.05-.202-.641-.581-1.204-1.1-1.424l-.031-.012a.426.426 0 0 0-.166-.037h-.048c-.282 0-.502.239-.624.502-.385.684-.361 1.975.116 2.892 0 0 0 .006.006.012v.006Zm-6.231 13.949v-.03c-.012-.3-.214-.557-.728-.698a2.933 2.933 0 0 0-.923-.128h-.025c-.042 0-.085 0-.128.006a3.062 3.062 0 0 0-1.73.654c-.63.465-1.217 1.498-.386 1.896l.037.024c.71.41 2.128.287 2.862-.263.52-.342 1.027-.936 1.02-1.437v-.024Zm23.524 1.094v-.012s0-.043-.006-.067v-.013s-.006-.048-.012-.067v-.012a.128.128 0 0 0-.025-.067c0-.006 0-.013-.006-.013a.298.298 0 0 0-.024-.067c0-.006 0-.012-.006-.024-.006-.019-.019-.037-.025-.055 0-.013-.012-.019-.012-.03-.006-.02-.018-.031-.024-.05a.128.128 0 0 0-.025-.036.128.128 0 0 0-.024-.037c-.013-.019-.025-.03-.03-.05-.007-.011-.013-.017-.02-.03-.012-.024-.03-.036-.042-.06 0 0-.006-.013-.012-.013a3.168 3.168 0 0 0-.838-.758 2.547 2.547 0 0 1-.135-.092c-.03-.018-.055-.03-.085-.049-.019-.006-.037-.018-.05-.024a3.122 3.122 0 0 0-1.296-.288h-.22a.911.911 0 0 0-.128.012c-.025 0-.049 0-.067.007-.037 0-.074.012-.11.012-.025 0-.05.006-.074.012-.036.006-.073.012-.11.025-.024.006-.043.012-.067.012-.043.012-.08.024-.116.036a.113.113 0 0 0-.043.013 3.045 3.045 0 0 0-.135.055h-.006c-.055.03-.116.055-.17.091l-.025.013s-.05.03-.074.049c0 0-.012.006-.018.012a.162.162 0 0 1-.037.03c-.012.013-.024.019-.03.031l-.013.012c-.012.013-.03.03-.042.05a.598.598 0 0 0-.129.421c0 .025 0 .043.006.067v.013s0 .03.013.049c0 .006 0 .018.006.024 0 .012.006.024.012.037s.006.024.012.036c0 .007.006.019.012.025 0 .018.013.03.019.049v.012a.191.191 0 0 0 .03.061c.08.16.19.324.312.465 0 0 .006.006.006.012.012.012.025.03.037.037.006.012.018.018.024.03.006.007.013.013.013.019.14.153.293.281.44.373.024.012.043.03.067.049.012.012.03.024.049.03l.122.074s.019.012.03.018c.05.024.093.049.135.073.007 0 .013.006.019.006.049.025.104.05.153.074h.006c.672.293 1.455.355 2.146.116.288-.092.465-.22.563-.373s.018-.037.024-.055c0-.006.006-.012.012-.024s.013-.025.013-.037.006-.025.012-.03c0-.013 0-.025.006-.031 0-.013.006-.03.012-.043v-.16.025Zm-13.153 6.916c-.184-.599-.385-.923-.587-1.033l-.012-.006c-.233-.123-.459.03-.642.312 0 0-.013.024-.019.03-.067.11-.134.245-.19.385a3.63 3.63 0 0 0-.232 1.162v.061c-.024.722.196 1.64.642 2.073.104.092.196.123.288.117h.024c.251-.025.453-.337.575-.594.202-.415.294-.91.306-1.412.006-.38-.03-.758-.129-1.095h-.024Z"/><path fill="#738eff" d="M383.413 533.254s.006.055.012.08c0 .024.006.036.012.06 0 .013.006.031.012.05.007.03.019.055.031.085v.013a.775.775 0 0 0 .153.256c.092.086.183.153.287.202l.025.012s.036.019.055.025c.03.012.055.024.085.03.196.068.404.08.612.056h.012l.073-.013s.025 0 .031-.006a.146.146 0 0 0 .055-.012c.018 0 .03-.006.049-.012l.043-.013s.043-.012.067-.024l.03-.012s.05-.019.074-.03c.006 0 .012-.007.024-.013l.074-.037c.006 0 .012-.006.024-.012l.074-.037c.006 0 .012-.012.024-.012.025-.012.043-.024.067-.037.013-.006.019-.012.031-.024l.055-.037a.162.162 0 0 1 .037-.03c.012-.013.03-.025.042-.037.013-.012.031-.024.05-.037l.03-.03.049-.05a.085.085 0 0 0 .018-.024c.019-.024.037-.042.055-.067 0-.006.006-.012.012-.012a.51.51 0 0 0 .05-.073s0-.007.006-.013c.018-.024.03-.049.048-.073l.007-.012c.012-.025.024-.05.042-.074 0-.006.006-.012.013-.024.012-.025.018-.043.03-.067a.087.087 0 0 0 .012-.037c0-.012.013-.03.013-.049.006-.025.012-.049.018-.067v-.019c.024-.116.037-.238.024-.367v-.048c-.036-.63-.568-.881-1.13-.875-.313 0-.625.08-.87.226-.464.245-.696.82-.66 1.297v.03-.012l.013.006Zm-24.9 4.727v.012s0 .037.006.061.006.05.012.074v.012s.012.037.018.061l.012.05c.05.176.141.335.263.464l.013.012.048.05c.013.005.025.017.031.024a.162.162 0 0 0 .037.03c.012.012.03.025.049.037.006.006.012.012.024.012.025.012.049.03.067.043h.006c.251.147.557.22.857.202.03 0 .06 0 .091-.006h.013s.055-.007.079-.013h.024s.05-.012.068-.012c.012 0 .024-.006.03-.006.025-.006.037-.012.055-.018a.087.087 0 0 0 .037-.013l.049-.018.043-.018a.298.298 0 0 1 .043-.019.183.183 0 0 0 .048-.024c.013-.006.025-.012.031-.019l.055-.03s.012-.012.025-.012a.215.215 0 0 0 .055-.043s.012-.006.012-.012l.067-.056c.11-.103.196-.232.257-.379 0-.012 0-.024.006-.03v-.025s.012-.049.012-.067v-.14s0-.037-.006-.056c0-.012-.006-.03-.012-.049 0-.024-.006-.036-.012-.055 0-.012-.013-.03-.013-.048a.255.255 0 0 0-.024-.062l-.018-.042c-.013-.025-.025-.043-.031-.068a.128.128 0 0 0-.024-.036.252.252 0 0 0-.043-.068c-.006-.012-.012-.024-.025-.03-.018-.025-.03-.05-.049-.074a.085.085 0 0 1-.018-.024c-.024-.024-.043-.049-.061-.073l-.018-.019-.074-.073s-.012-.006-.012-.012a.462.462 0 0 0-.086-.068l-.012-.012c-.03-.024-.061-.043-.092-.067 0 0-.006 0-.012-.006-.03-.025-.067-.037-.104-.055a1.323 1.323 0 0 0-.373-.117c-.55-.103-1.278.172-1.418.698s-.007.036-.013.055v.177h.006-.006.006Zm8.23-8.647v.05s0 .042.006.067c0 .018 0 .036.007.055 0 .018.006.03.012.049a.22.22 0 0 0 .012.067c0 .012.006.024.012.037.006.024.012.055.025.079 0 .006.006.012.006.025l.036.091s0 .006.007.012a.73.73 0 0 0 .048.098c.074.14.172.27.288.373h.006s.055.05.08.074c.006 0 .012.006.018.012.024.018.049.037.073.049.012.006.025.012.03.024a.213.213 0 0 1 .056.037c.018.012.037.018.055.024.012.007.03.013.043.025.024.012.049.024.073.03 0 0 .006 0 .012.007l.043.012c.11.036.214.049.306.049h.104c.012 0 .03-.006.043-.013h.006c.312-.085.526-.385.63-.715s.006-.037.012-.049c0-.006.006-.018.006-.024s0-.013.006-.025c0-.012.006-.03.012-.049.03-.153.05-.3.037-.434.018-.416-.245-.82-.581-1.07 0 0-.006-.006-.012-.006-.135-.092-.275-.16-.422-.196s-.288-.037-.416 0c-.03.006-.055.019-.086.03-.391.16-.568.618-.611 1.034v.025c-.006.036-.006.073-.006.116v.073l.024-.043Zm19.886 8.727s-.012.049-.012.073v.134c0 .068 0 .129.006.196.006.05.025.086.037.129a.33.33 0 0 0 .043.08c0 .005.006.011.012.017.012.025.03.043.049.068 0 .006.012.012.018.024.018.025.037.037.055.055l.025.025a.24.24 0 0 0 .06.049c.007.006.02.012.025.024.025.018.05.03.067.049a.046.046 0 0 0 .025.012c.024.012.049.03.08.043.006 0 .018.006.024.012.03.013.055.025.092.037.006 0 .012.006.024.006a.6.6 0 0 0 .098.03h.018a.578.578 0 0 0 .11.025h.013a.673.673 0 0 0 .11.012h.134c.043 0 .074 0 .116-.006h.013c.042 0 .073-.012.11-.018h.012c.037-.006.073-.019.11-.03h.012c.03-.013.067-.025.104-.037h.006c.294-.135.52-.38.63-.655s.012-.036.018-.055c0-.012.007-.018.013-.03 0-.013.006-.025.012-.03 0-.02.012-.031.012-.05.067-.275.043-.55-.122-.764 0 0-.025-.03-.037-.05a.085.085 0 0 1-.018-.024c-.006-.012-.019-.018-.025-.03a.267.267 0 0 0-.043-.037l-.012-.012a1.17 1.17 0 0 0-.336-.184.936.936 0 0 0-.275-.079h-.012s-.031 0-.05-.006h-.134c-.556.024-1.082.465-1.217 1.003h.012l-.012-.006Zm2.917 6.31s.006-.024.006-.03a.307.307 0 0 0 .012-.074v-.201l-.018-.037c0-.006 0-.012-.006-.019-.006-.024-.018-.048-.025-.073a1.092 1.092 0 0 0-.623-.6 1.278 1.278 0 0 0-.526-.128c-.11 0-.214.013-.33.037-.257.055-.49.177-.63.385a.72.72 0 0 0-.165.49v.012c.018.385.428.825.917.941.067.019.14.025.214.031h.049c.44 0 .954-.275 1.107-.69l.018-.056v.012Zm-18.15 11.588s-.036-.049-.066-.067c0 0-.013-.006-.013-.012a.395.395 0 0 1-.055-.05c-.012-.005-.024-.018-.036-.024a.162.162 0 0 0-.037-.03c-.025-.013-.043-.025-.067-.037-.006 0-.013-.006-.025-.012a.982.982 0 0 0-.202-.074c-.232-.06-.483.007-.703.153 0 0-.006 0-.012.006-.012.013-.03.025-.049.037s-.03.025-.049.037c-.238.202-.41.495-.428.813-.073.63.398 1.431 1.1 1.303h.044c.886-.196 1.13-1.444.587-2.049l.012.006Zm1.493-27.695v.013s0 .024.006.03c.067.38.22.63.416.77.281.215.63.184.917-.048l.012-.012c.012-.013.03-.025.043-.037l.043-.043.012-.012c.165-.171.294-.416.36-.728v-.012s.007-.037.013-.055v-.03s.006-.013.006-.025v-.05c.012-.128 0-.256-.03-.378s-.013-.055-.025-.074c-.128-.397-.458-.727-.899-.69-.52.091-.91.74-.88 1.35 0 .013 0 .025.006.031Zm5.803 1.407s0 .03.006.049v.012s.006.024.006.037 0 .018.006.03v.025s.006.03.013.049c.104.348.342.642.678.721h.019c.012 0 .024 0 .03.006.012 0 .025 0 .037.006h.012c.092.013.196 0 .306-.024l.049-.012h.012c.024-.006.049-.013.073-.025.013 0 .025-.006.037-.012a.184.184 0 0 0 .061-.024c.019-.007.037-.013.055-.025.012-.006.025-.012.043-.024a.666.666 0 0 0 .067-.037c.006 0 .013-.006.025-.012.03-.019.055-.037.085-.055 0 0 .007 0 .007-.006.183-.135.336-.318.44-.52v-.006l.036-.086c0-.006.007-.012.013-.024a.345.345 0 0 0 .024-.074c0-.012.006-.024.012-.037.007-.024.013-.036.013-.06 0-.019.006-.031.012-.05 0-.018.006-.036.006-.055s.006-.036.006-.055c0-.036.006-.073.006-.116v-.159c-.024-.416-.214-.862-.617-.99-.05-.013-.092-.031-.147-.031a.992.992 0 0 0-.3.006c-.147.025-.3.08-.44.165-.38.214-.691.6-.71 1.034a1.84 1.84 0 0 0 0 .367h.025l-.006.012Zm-16.315 4.256c.214.092.477.134.728.128.556-.006 1.088-.281 1.1-.917v-.049a1.232 1.232 0 0 0-.232-.82 1.369 1.369 0 0 0-.935-.63c-.453-.115-.942-.036-1.29.331a.92.92 0 0 0-.202.465c-.104.562.207 1.302.825 1.504h.006v-.012Zm21.25 20.46c-.05-.66-.648-1.192-1.278-1.265h-.05a.75.75 0 0 0-.33 0c-.703.116-.91 1.064-.666 1.688.128.379.49.66.88.788a1.6 1.6 0 0 0 .398.086h.037a.992.992 0 0 0 .513-.092c.27-.14.416-.403.471-.697.037-.171.043-.348.025-.514v.007Zm-6.445 1.407s-.007 0-.013-.006c-.012-.006-.03-.018-.049-.024l-.042-.019s-.007 0-.013-.006h-.018c-.508-.263-.923.098-1.113.556v.013s-.012.03-.012.036-.006.019-.012.025a.047.047 0 0 1-.013.03.047.047 0 0 1-.012.031.047.047 0 0 1-.012.03c0 .013-.006.025-.006.031-.03.129-.049.257-.049.373 0 .055.006.116.012.177 0 .025.006.037.012.062v.012c.117.532.624.948 1.034.935h.061s.037 0 .049-.006c.012 0 .024 0 .037-.006h.006a.8.8 0 0 0 .373-.22c.183-.171.305-.391.348-.636.147-.526-.14-1.131-.593-1.388h.025Zm-18.058-10.732h.073c.508-.03 1.003-.367 1.138-.856.098-.538-.483-.99-1.083-1.033h-.024c-.129-.013-.257 0-.373.03-.404.11-.801.459-.887.862v.037c-.085.508.496.905.985.96.055.006.116.012.17.012l.001-.012Zm7.265 9.27s0-.042.006-.067v-.018c0-.08 0-.159-.013-.239a1.019 1.019 0 0 0-.103-.373c-.013-.024-.025-.036-.031-.055 0-.006-.006-.012-.012-.018-.006-.012-.012-.024-.025-.03s-.018-.025-.03-.037l-.013-.012c-.207-.239-.538-.33-.88-.312h-.073c-.288.03-.575.134-.79.3l-.012.012s-.006.006-.012.006c-.012.006-.024.018-.03.024l-.013.012c-.03.025-.06.055-.085.08l-.019.018c-.024.025-.042.05-.067.074-.006.012-.018.024-.024.036a.271.271 0 0 1-.05.068c-.011.018-.024.03-.03.048-.012.025-.024.037-.03.056-.013.024-.025.042-.03.067a.183.183 0 0 1-.025.049c-.013.024-.019.049-.025.073 0 .012-.006.03-.012.049l-.018.08c0 .012-.006.03-.006.048a.359.359 0 0 1-.013.08v.238s0 .043.006.068c0 .018 0 .036.007.055 0 .024.006.049.012.073 0 .012.006.03.012.043.006.024.012.049.024.073 0 .013.007.025.013.037.006.024.018.049.024.067l.018.037.031.061.025.043c.012.012.024.03.03.049.012.018.025.03.037.049.006.006.012.012.012.018 0 0 .006 0 .006.006.006.006.012.019.025.025.042.039.089.072.14.098.019.012.043.024.055.036.013.006.025.012.037.025s.024.012.043.018.036.018.055.024c.006 0 .018.007.024.013a.22.22 0 0 1 .068.024c.006 0 .012 0 .024.006.024 0 .049.013.073.013h.025s.049.006.073.006h.226s.037 0 .056-.006c.012 0 .03 0 .042-.007.019 0 .03-.006.05-.012.011 0 .03-.006.048-.012.012 0 .03-.006.049-.012s.03-.013.049-.013c.012 0 .03-.012.049-.012.012 0 .03-.012.049-.018.012-.006.03-.012.049-.019l.043-.018c.018-.006.036-.018.048-.024.013-.006.025-.013.031-.019.024-.012.037-.024.061-.036.006 0 .012-.007.025-.013a.271.271 0 0 0 .067-.049h.006c.3-.214.526-.525.6-.868v-.024c0-.019.005-.037.005-.055h-.006l.019-.006Zm21.298-3.797c.129-.367.006-.82-.263-1.18-.006-.012-.012-.018-.018-.03a.339.339 0 0 1-.037-.05c-.257-.318-.624-.544-1.027-.538h-.11c-.092.006-.19.03-.288.061-.03.013-.055.025-.08.031 0 0-.011 0-.011.006l-.074.037-.067.03s-.018.013-.024.019c-.031.018-.055.036-.086.055a.802.802 0 0 0-.214.244v.013c-.012.024-.025.049-.043.08 0 .005-.006.018-.012.03a.184.184 0 0 1-.025.06c0 .013-.006.031-.012.05 0 .012-.006.03-.012.049a.22.22 0 0 1-.012.067v.226c0 .037.006.074.012.11v.013c.006.03.012.06.024.091 0 .006 0 .013.007.025.006.024.012.049.024.073 0 .012.012.03.012.043 0 .018.012.03.019.049.012.024.018.049.03.067 0 .006.006.012.006.019.214.446.66.825 1.162.862h.098c.03 0 .061 0 .092-.006h.006a.665.665 0 0 0 .153-.025h.06s.025-.012.031-.018c.324-.08.526-.257.624-.477l.018-.043c0-.012.013-.024.013-.037v.013l.024-.019Zm-25.64-.08s.012-.018.018-.03a.133.133 0 0 0 .03-.049l.038-.067s0-.006.006-.012c.201-.386.226-.844-.03-1.223-.233-.3-.74-.453-1.212-.386-.287.031-.562.147-.746.361-.458.471-.568 1.309-.11 1.743.012.012.025.018.03.03l.013.013c.122.11.281.183.483.22.153.049.3.067.446.049.031 0 .062-.006.092-.012h.012l.08-.019h.012a.572.572 0 0 0 .08-.024h.012c.024-.012.055-.019.08-.03h.006a1.45 1.45 0 0 0 .605-.484c.018-.024.03-.049.049-.073l.012-.012-.006.006Z"/></g></g><path fill="#231f20" d="M400.81 535.23h9.57l-.27 2.396h-6.634v3.639h6.28v2.44h-6.28v3.516h6.696v2.483h-9.362v-14.475Zm11.325 11.471c0-2.752 2.709-3.492 5.167-3.492.783 0 1.199.019 1.59.062v-.33c0-1.034-1.076-1.468-2.275-1.468-1.119 0-2.067.477-2.953.972l-.954-2.024c.599-.373 2.17-1.217 4.054-1.217 2.544 0 4.629 1.12 4.629 4.177v6.323h-2.483l-.06-1.572c-.392.66-1.26 1.737-3.187 1.737-2.128 0-3.534-1.303-3.534-3.162l.006-.006Zm6.739-1.67-.973-.06c-2.855-.062-3.283.825-3.283 1.528 0 .618.477 1.077 1.467 1.077 1.945 0 2.727-1.26 2.789-2.544Zm5.106-5.668h2.085l.165 1.755h.061c.19-.972 1.015-1.92 2.52-1.92.452 0 .91.086 1.363.25v2.171l-.122.086c-.538-.25-1.076-.373-1.547-.373-1.346 0-2.049.85-2.049 2.049v6.323h-2.482v-10.335l.006-.006Zm8.06 0h2.292l.104 1.694c.642-1.076 2.19-1.859 3.596-1.859 2.232 0 3.614 1.18 3.614 3.742v6.757h-2.483v-6.218c0-1.382-.703-2.006-1.944-2.006-1.486 0-2.71 1.18-2.71 2.562v5.662h-2.482v-10.334h.012Zm17.568 0h2.317l.165 2.52c.477-1.26 1.486-2.685 3.327-2.685 2.935 0 4.158 2.422 4.158 5.063 0 3.284-1.633 5.602-4.568 5.602-1.45 0-2.483-.643-3.057-1.346v5.106h-2.336v-14.26h-.006Zm7.399 4.862c0-1.963-.807-2.752-2.024-2.752-2.086 0-2.893 2.146-2.893 3.779v1.553c.807.514 1.902.746 2.336.746 1.651 0 2.587-1.32 2.587-3.327h-.006Zm4.011.33c0-3.535 2.544-5.35 5.186-5.35s5.185 1.815 5.185 5.35-2.544 5.314-5.185 5.314-5.186-1.633-5.186-5.314Zm7.895 0c0-2.232-1.303-3.223-2.71-3.223s-2.727 1.015-2.727 3.223 1.321 3.161 2.728 3.161 2.709-1.052 2.709-3.161Zm4.482-6.66-.018-1.137.018-1.137c.416-.061.825-.086 1.26-.086s.85.018 1.32.086l.043 1.137-.043 1.137c-.415.043-.85.086-1.278.086s-.868-.043-1.302-.086Zm.061 1.468h2.483v10.334h-2.483v-10.334Zm5.167 0h2.293l.104 1.694c.642-1.076 2.19-1.859 3.596-1.859 2.232 0 3.62 1.18 3.62 3.742v6.757h-2.483v-6.218c0-1.382-.703-2.006-1.944-2.006-1.486 0-2.71 1.18-2.71 2.562v5.662h-2.482v-10.334h.006Zm12.982 6.782v-4.88h-1.614v-1.615c.868-.103 1.694-.495 1.798-1.467l.147-1.553 2.146-.147v2.874h2.19l-.166 1.902h-2.024v4.898c0 1.052.287 1.614 1.572 1.614.19 0 .39-.018.617-.043v2.049c-.416.043-1.094.086-1.425.086-2.85 0-3.247-1.694-3.247-3.718h.006Zm6.115 2.605.973-2.006c.91.495 1.963.887 3.143.887 1.51 0 1.902-.416 1.84-1.034-.146-1.364-5.87-.556-5.87-4.36 0-2.067 1.737-3.039 4.134-3.039 2.275 0 3.968.954 3.968.954l-.954 1.859c-.746-.416-1.712-.685-2.751-.685-1.547 0-1.92.391-1.92.911 0 1.51 5.87.538 5.87 4.36 0 2.067-1.572 3.266-4.256 3.266-1.78 0-3.082-.539-4.177-1.113Zm15.355-4.195c0-3.535 2.544-5.35 5.186-5.35s5.185 1.815 5.185 5.35-2.544 5.314-5.185 5.314-5.186-1.633-5.186-5.314Zm7.895 0c0-2.232-1.303-3.223-2.71-3.223s-2.727 1.015-2.727 3.223 1.321 3.161 2.728 3.161 2.709-1.052 2.709-3.161Zm4.55-5.192h2.292l.104 1.694c.642-1.076 2.19-1.859 3.596-1.859 2.232 0 3.62 1.18 3.62 3.742v6.757h-2.483v-6.218c0-1.382-.703-2.006-1.944-2.006-1.486 0-2.71 1.18-2.71 2.562v5.662h-2.482v-10.334h.006Zm17.048 7.338c0-2.752 2.709-3.492 5.167-3.492.783 0 1.198.019 1.59.062v-.33c0-1.034-1.076-1.468-2.275-1.468-1.119 0-2.067.477-2.953.972l-.954-2.024c.599-.373 2.17-1.217 4.048-1.217 2.544 0 4.629 1.12 4.629 4.177v6.323h-2.483l-.061-1.572c-.391.66-1.26 1.737-3.18 1.737-2.128 0-3.534-1.303-3.534-3.162l.006-.006Zm6.739-1.67-.973-.06c-2.85-.062-3.284.825-3.284 1.528 0 .618.477 1.077 1.468 1.077 1.945 0 2.727-1.26 2.789-2.544Zm5.106 1.964v-12.09l2.482-.287v11.924c0 .93.496 1.18.93 1.18.122 0 .33 0 .556-.043v2.049a6.018 6.018 0 0 1-1.284.147c-1.345 0-2.684-.453-2.684-2.874v-.006Zm5.827 0v-12.09l2.483-.287v11.924c0 .93.495 1.18.93 1.18.122 0 .33 0 .556-.043v2.049a6.018 6.018 0 0 1-1.284.147c-1.346 0-2.685-.453-2.685-2.874v-.006Zm11.986-.85v-4.88h-1.615v-1.615c.868-.103 1.694-.495 1.798-1.467l.147-1.553 2.146-.147v2.874h2.19l-.166 1.902h-2.024v4.898c0 1.052.287 1.614 1.572 1.614.19 0 .391-.018.617-.043v2.049c-.416.043-1.094.086-1.425.086-2.85 0-3.247-1.694-3.247-3.718h.007Zm6.842-6.782h2.085l.165 1.755h.062c.183-.972 1.015-1.92 2.519-1.92.453 0 .911.086 1.364.25v2.171l-.123.086c-.538-.25-1.076-.373-1.547-.373-1.345 0-2.048.85-2.048 2.049v6.323h-2.483v-10.335l.006-.006Zm7.357 7.338c0-2.752 2.708-3.492 5.167-3.492.782 0 1.198.019 1.59.062v-.33c0-1.034-1.077-1.468-2.275-1.468-1.12 0-2.067.477-2.954.972l-.954-2.024c.6-.373 2.171-1.217 4.048-1.217 2.544 0 4.63 1.12 4.63 4.177v6.323h-2.483l-.061-1.572c-.392.66-1.26 1.737-3.18 1.737-2.128 0-3.535-1.303-3.535-3.162l.007-.006Zm6.738-1.67-.972-.06c-2.85-.062-3.284.825-3.284 1.528 0 .618.477 1.077 1.468 1.077 1.944 0 2.727-1.26 2.788-2.544Zm3.675-5.582.062-.086h2.5l2.813 7.173 2.459-7.173h2.605l.042.086-3.907 10.248h-2.562l-4.012-10.248Zm11.124 5.106c0-3.474 2.335-5.35 5.228-5.35 2.605 0 4.629 1.546 4.629 4.818 0 .287-.086 1.033-.165 1.241l-.104.086h-7.112c.147 1.718 1.529 2.378 2.917 2.378 1.468 0 2.146-.495 2.856-1.033l1.32 1.694c-.807.642-2.152 1.486-4.28 1.486-2.77 0-5.29-1.615-5.29-5.314v-.006Zm5.081-3.229c-1.364 0-2.336.685-2.605 2.11h4.898c-.018-.991-.599-2.11-2.293-2.11Zm6.843 5.669v-12.09l2.482-.287v11.924c0 .93.496 1.18.93 1.18.122 0 .33 0 .556-.043v2.049a6.018 6.018 0 0 1-1.284.147c-1.345 0-2.684-.453-2.684-2.874v-.006Zm8.432-6.825-.354-.825-.33.825-.887 1.284-1.468-1.033.93-1.364.538-.415-.685-.062-1.486-.452.538-1.718 1.425.556.722.373-.227-.807v-1.468h1.86v1.468l-.227.868.783-.477 1.32-.495.496 1.675-1.345.435-.869.085.66.557.887 1.216-1.467 1.077-.826-1.303h.012Z"/></g><g transform="matrix(1, 0, 0, 1, 104.841057, -36.291138)"><g clip-path="url(#b)"><g><path fill="#fff" d="M701.797 488.827c-2.08 0-3.76-1.68-3.76-3.76v-36.58h64.11v36.58c0 2.08-1.68 3.76-3.76 3.76h-56.59Zm0-80.68c-2.08 0-3.76 1.68-3.76 3.76v36.58h64.11v-36.58c0-2.08-1.68-3.76-3.76-3.76h-56.59Z"/><path fill="#d40119" d="m710.877 469.307 4.8-9.1c3.66 2.58 7.96 3.3 11.04 3.3 6.88 0 9.97-3.66 10.25-11.11-2.15 2.15-5.59 4.16-10.68 4.16-8.53 0-16.42-6.52-16.42-16.27 0-10.75 8.24-17.99 21.65-17.28 11.9.64 18.28 10.04 18.28 23.73 0 18.43-8.53 27.31-22.87 27.31-5.95 0-11.76-1.94-16.06-4.73m25.1-28.76c0-4.16-3.15-6.95-7.03-6.95s-6.88 2.8-6.88 6.95 3.15 6.88 6.88 6.88 7.03-2.58 7.03-6.88"/><path fill="#bcbdbf" d="M753.697 451.177a.66.66 0 0 1-.66-.66v-4.04a.66.66 0 1 1 1.32 0v4.04c0 .37-.3.66-.66.66m-46.45 0a.66.66 0 0 1-.66-.66v-4.04a.66.66 0 1 1 1.32 0v4.04c0 .37-.3.66-.66.66"/><path fill="#bcbdbf" d="M698.037 448.117h64.11v.74h-64.11v-.74Z"/></g></g><g clip-path="url(#c)"><g><path fill="#fff" d="M634.097 488.827c-2.08 0-3.76-1.68-3.76-3.76v-36.58h64.11v36.58c0 2.08-1.68 3.76-3.76 3.76h-56.59Zm0-80.68c-2.08 0-3.76 1.68-3.76 3.76v36.58h64.11v-36.58c0-2.08-1.68-3.76-3.76-3.76h-56.59Z"/><path fill="#d40119" d="m643.717 463.617 19.64-16.56c3.08-2.65 4.66-4.8 4.66-7.53 0-3.23-2.37-4.88-5.16-4.88-3.58 0-6.95 2.51-8.96 6.52l-9.61-6.16c3.65-7.67 11.11-11.9 19.28-11.9s17.49 6.17 17.49 16.2c0 4.66-2.94 9.89-8.17 14.12l-12.55 10.18h20.5v10.25h-37.14v-10.25l.02.01Z"/><path fill="#bcbdbf" d="M685.997 451.177a.66.66 0 0 1-.66-.66v-4.04a.66.66 0 1 1 1.32 0v4.04c0 .37-.3.66-.66.66m-46.45 0a.66.66 0 0 1-.66-.66v-4.04a.66.66 0 1 1 1.32 0v4.04c0 .37-.3.66-.66.66"/><path fill="#bcbdbf" d="M630.337 448.117h64.11v.74h-64.11v-.74Z"/></g></g><g clip-path="url(#d)"><g><path fill="#fff" d="M566.397 488.827c-2.08 0-3.76-1.68-3.76-3.76v-36.58h64.11v36.58c0 2.08-1.68 3.76-3.76 3.76h-56.59Zm0-80.68c-2.08 0-3.76 1.68-3.76 3.76v36.58h64.11v-36.58c0-2.08-1.68-3.76-3.76-3.76h-56.59Z"/><path fill="#d40119" d="m575.157 459.567 11.61-3.8c.86 4.52 3.3 6.59 7.31 6.81 5.23.14 7.24-1.86 7.1-4.16-.57-6.74-24.52-5.09-24.23-20.65.21-7.17 6.09-11.76 14.12-13.05v-7.17h9.18v7.24c6.74 1.29 12.62 5.52 13.98 12.76l-10.97 3.44c-1.07-4.88-3.51-6.59-7.67-6.59-3.73 0-5.73 1.36-5.52 3.51.57 5.95 24.09 4.52 24.09 20.36 0 8.24-6.38 12.69-13.91 14.19v6.96h-9.18v-6.67c-8.46-.93-14.98-5.59-15.92-13.19"/><path fill="#bcbdbf" d="M618.297 451.177a.66.66 0 0 1-.66-.66v-4.04a.66.66 0 1 1 1.32 0v4.04c0 .37-.3.66-.66.66m-46.45 0a.66.66 0 0 1-.66-.66v-4.04a.66.66 0 1 1 1.32 0v4.04c0 .37-.3.66-.66.66"/><path fill="#bcbdbf" d="M562.637 448.117h64.11v.74h-64.11v-.74Z"/></g></g><g clip-path="url(#e)"><g><path fill="#fff" d="M498.697 488.827c-2.08 0-3.76-1.68-3.76-3.76v-36.58h64.11v36.58c0 2.08-1.68 3.76-3.76 3.76h-56.59Zm0-80.68c-2.08 0-3.76 1.68-3.76 3.76v36.58h64.11v-36.58c0-2.08-1.68-3.76-3.76-3.76h-56.59Z"/><path fill="#d40119" d="M503.267 417.537h8.1l-.25 2.09h-5.53v3.17h4.99v2.1h-4.99v5.24h-2.32v-12.6Zm9.63 0h4.63c3.17 0 4.81 1.53 4.81 3.85 0 1.85-.86 3.22-2.52 3.82l2.79 4.93h-2.54l-2.52-4.61h-2.32v4.61h-2.32v-12.6h-.01Zm7.01 3.96c0-1.26-.94-1.87-2.18-1.87h-2.5v3.75h2.57c1.35 0 2.11-.7 2.11-1.87m3.87 2.31c0-3.75 2.74-6.43 6.16-6.43s6.16 2.68 6.16 6.43c0 4.18-2.93 6.46-6.16 6.46s-6.16-2.29-6.16-6.46m9.99 0c0-2.7-1.71-4.32-3.84-4.32s-3.85 1.62-3.85 4.32c0 2.88 1.89 4.32 3.85 4.32s3.84-1.44 3.84-4.32m4.12-6.28h1.91l4.5 7.36 4.42-7.36h1.91v12.6h-2.32v-8.12l-3.33 5.57h-1.42l-3.35-5.58v8.13h-2.32v-12.6Z"/><path fill="#bcbdbf" d="M550.597 451.177a.66.66 0 0 1-.66-.66v-4.04a.66.66 0 1 1 1.32 0v4.04c0 .37-.3.66-.66.66m-46.44 0a.66.66 0 0 1-.66-.66v-4.04a.66.66 0 0 1 1.32 0v4.04c0 .37-.3.66-.66.66"/><path fill="#bcbdbf" d="M494.937 448.117h64.11v.74h-64.11v-.74Z"/></g></g><g clip-path="url(#f)"><g><path fill="#fff" d="M769.497 488.827c-2.08 0-3.76-1.68-3.76-3.76v-36.58h64.11v36.58c0 2.08-1.68 3.76-3.76 3.76h-56.59Zm0-80.68c-2.08 0-3.76 1.68-3.76 3.76v36.58h64.11v-36.58c0-2.08-1.68-3.76-3.76-3.76h-56.59Z"/><path fill="#d40119" d="m778.577 469.307 4.8-9.1c3.66 2.58 7.96 3.3 11.04 3.3 6.88 0 9.97-3.66 10.25-11.11-2.15 2.15-5.59 4.16-10.68 4.16-8.53 0-16.42-6.52-16.42-16.27 0-10.75 8.24-17.99 21.65-17.28 11.9.64 18.28 10.04 18.28 23.73 0 18.43-8.53 27.31-22.87 27.31-5.95 0-11.76-1.94-16.06-4.73m25.1-28.76c0-4.16-3.15-6.95-7.03-6.95s-6.88 2.8-6.88 6.95 3.15 6.88 6.88 6.88 7.03-2.58 7.03-6.88"/><path fill="#bcbdbf" d="M821.397 451.177a.66.66 0 0 1-.66-.66v-4.04a.66.66 0 1 1 1.32 0v4.04c0 .37-.3.66-.66.66m-46.45 0a.66.66 0 0 1-.66-.66v-4.04a.66.66 0 1 1 1.32 0v4.04c0 .37-.3.66-.66.66"/><path fill="#bcbdbf" d="M765.737 448.117h64.11v.74h-64.11v-.74Z"/><path fill="#d40119" d="m823.807 429.397-.41-.98-.4.98-1.05 1.52-1.74-1.23 1.1-1.62.64-.49-.81-.07-1.77-.54.64-2.04 1.69.66.86.45-.27-.96v-1.74h2.21v1.74l-.27 1.03.93-.56 1.57-.59.59 1.98-1.59.52-1.03.1.78.66 1.06 1.45-1.75 1.27-.98-1.54Z"/></g></g><g clip-path="url(#g)"><g><path fill="#fff" d="M837.197 488.827c-2.08 0-3.76-1.68-3.76-3.76v-36.58h64.11v36.58c0 2.08-1.68 3.76-3.76 3.76h-56.59Zm0-80.68c-2.08 0-3.76 1.68-3.76 3.76v36.58h64.11v-36.58c0-2.08-1.68-3.76-3.76-3.76h-56.59Z"/><path fill="#bcbdbf" d="M889.097 451.177a.66.66 0 0 1-.66-.66v-4.04a.66.66 0 1 1 1.32 0v4.04c0 .37-.3.66-.66.66m-46.45 0a.66.66 0 0 1-.66-.66v-4.04a.66.66 0 1 1 1.32 0v4.04c0 .37-.3.66-.66.66"/><path fill="#bcbdbf" d="M833.437 448.117h64.11v.74h-64.11v-.74Z"/><path fill="#d40119" d="M840.267 416.877h3.56c2.13 0 3.49 1.26 3.49 3.15 0 1.98-1.74 3.08-3.32 3.08h-1.97v3.27h-1.75v-9.5h-.01Zm5.21 3.15c0-1.03-.46-1.56-1.74-1.56h-1.72v3.07h1.7c.95 0 1.76-.46 1.76-1.51m3.12-3.15h6.28l-.17 1.57h-4.36v2.39h4.12v1.6h-4.12v2.31h4.4v1.63h-6.15v-9.5Zm7.64 0h3.49c2.39 0 3.62 1.15 3.62 2.9 0 1.4-.65 2.43-1.9 2.88l2.1 3.72h-1.91l-1.9-3.47h-1.75v3.47h-1.75v-9.5Zm5.28 2.98c0-.95-.7-1.41-1.64-1.41h-1.89v2.82h1.94c1.02 0 1.59-.53 1.59-1.41m-21.25 10.59h3.56c2.13 0 3.49 1.26 3.49 3.15 0 1.98-1.74 3.08-3.32 3.08h-1.97v3.27h-1.75v-9.5h-.01Zm5.21 3.15c0-1.03-.46-1.56-1.74-1.56h-1.72v3.07h1.7c.95 0 1.76-.46 1.76-1.51m3.12-3.15h6.28l-.17 1.57h-4.36v2.39h4.12v1.6h-4.12v2.31h4.4v1.63h-6.15v-9.5Zm7.64 0h3.49c2.39 0 3.62 1.15 3.62 2.9 0 1.4-.65 2.43-1.9 2.88l2.1 3.72h-1.91l-1.9-3.47h-1.75v3.47h-1.75v-9.5Zm5.28 2.98c0-.95-.7-1.41-1.64-1.41h-1.89v2.82h1.94c1.02 0 1.59-.53 1.59-1.41m2.91 5.46.79-1.41c.94.62 1.8.9 2.81.9.8 0 1.56-.34 1.56-1.25 0-1.93-4.91-.75-4.91-4.19 0-1.67 1.56-2.59 3.42-2.59 1.27 0 2.47.5 3.17.98l-.69 1.37c-.9-.56-1.63-.77-2.47-.77-1.19 0-1.71.35-1.71 1.05 0 1.68 4.92.88 4.92 4.15 0 2.12-1.63 2.95-3.23 2.95-1.36 0-2.69-.47-3.66-1.17m7.85-3.73c0-2.82 2.06-4.84 4.64-4.84s4.64 2.02 4.64 4.84c0 3.15-2.21 4.87-4.64 4.87s-4.64-1.72-4.64-4.87m7.53 0c0-2.03-1.29-3.26-2.89-3.26s-2.9 1.22-2.9 3.26c0 2.17 1.42 3.26 2.9 3.26s2.89-1.09 2.89-3.26m3.11-4.73h1.35l4.7 6.25v-6.25h1.75v9.5h-1.29l-4.76-6.42v6.42h-1.75v-9.5Z"/></g></g><path fill="#d40119" d="M97.037 408.147h386.46v80.68H97.037v-80.68Z"/><g clip-path="url(#h)"><path fill="#fff" d="M446.187 475.277c12 0 21.69-5.29 21.69-17.14 0-20.2-27.21-13.04-27.21-21.17 0-2.24 2.31-3.8 8.2-3.8 5.29 0 9.99 1.42 14.01 3.65l4.02-10.81c-4.32-2.24-10.96-4.1-18.19-4.1-13.12 0-22.21 4.92-22.21 16.4 0 19.68 26.84 12.3 26.84 20.72 0 4.25-4.17 4.7-8.57 4.7-5.22 0-10.58-1.79-15.06-4.25l-3.65 11.55c4.69 2.31 12.08 4.25 20.13 4.25m-52.83-.6h13.94v-18.41l17.37-33.4-.15-.37h-13.72l-10.51 21.84-10.51-21.84h-13.72l-.15.37 17.44 33.54v18.26l.01.01Zm-37.19-21.02 5.44-16.7 5.59 16.7h-11.03Zm-20.27 21.02h13.19l3.43-10.14h18.41l3.5 10.14h13.19l-18.86-52.18h-14.31l-18.56 52.18h.01Zm-27.06-10.58h-6.11v-31.16h6.11c6.34 0 12.3 4.4 12.3 14.76s-4.17 16.4-12.3 16.4m-20.06 10.58h20.65c16.85 0 26.31-12.75 26.31-26.98s-9.02-25.2-26.31-25.2h-20.65v52.18Zm-22.27 0h14.01v-52.18h-14.01v52.18Zm-38.22 0h33.62v-10.58h-19.68v-41.59h-13.94v52.18-.01Zm-33.07-10.51c-7.01 0-12.67-4.92-12.67-15.65s5.67-15.5 12.67-15.5 12.6 5.07 12.6 15.5-5.66 15.65-12.6 15.65m0 11.11c14.76 0 26.76-8.72 26.76-26.76 0-17-12-26.61-26.76-26.61s-26.76 9.62-26.76 26.61c0 18.04 11.93 26.76 26.76 26.76m-78.5-.6h14.01v-20.35h17.52v20.35h13.94v-52.18h-13.94v19.75h-17.52v-19.75h-14.01v52.18Z"/></g></g><path fill="#d40119" d="M 373.048 286.316 L 831.218 286.316 L 831.218 347.006 L 373.048 347.006 L 373.048 286.316 Z"/><g clip-path="url(#i)" transform="matrix(1, 0, 0, 1, 104.841057, -36.291138)"><path fill="#fff" d="M691.327 371.227h23.87v-7.01h-14.65v-6.71h12.5v-6.91h-12.5v-6.71h14.36l.78-6.96h-24.36v34.3Zm-36.09 0h9.21v-18.03l13.62 18.03h7.2v-34.3h-9.21v17.49l-13.38-17.49h-7.45v34.3h.01Zm-20.48.39h.24c7.89 0 14.31-5.39 14.31-13.43v-21.27h-9.16v22.4c0 2.89-2.35 4.9-5.24 4.9s-5.29-2.01-5.29-4.9v-22.4h-9.16v21.27c0 8.04 6.42 13.43 14.31 13.43m-33.15 0c9.16 0 13.13-5.78 13.13-13.28v-21.42h-9.16v23.43c0 2.6-1.67 4.21-3.92 4.21-2.4 0-3.63-2.11-3.63-4.02v-3.13l-8.13.93v1.62c0 7.4 4.02 11.66 11.71 11.66m-52.61-.39h9.9l15.39-28.47v-5.83h-25.73v6.67h15.68l-15.24 27.64v-.01Zm-29.64 0h25.38v-7.01h-14.02l8.58-6.96c3.58-2.89 5.59-6.47 5.59-9.65 0-6.86-6.22-11.07-11.96-11.07s-10.68 2.89-13.18 8.13l6.57 4.22c1.37-2.74 3.68-4.46 6.13-4.46 1.91 0 3.53 1.13 3.53 3.33 0 1.86-1.08 3.33-3.19 5.15l-13.43 11.32v7.01-.01Zm-36.97 0h9.16v-12.1l11.42-21.96-.1-.24h-9.02l-6.91 14.36-6.91-14.36h-9.02l-.1.24 11.47 22.05v12.01h.01Zm-26.78-20.58h-5.24v-6.81h5.24c2.89 0 4.26 1.18 4.26 3.58 0 2.2-1.42 3.23-4.26 3.23m.73 13.62h-5.98v-7.4h5.98c2.89 0 4.31 1.03 4.31 3.87 0 2.25-1.47 3.53-4.31 3.53m-15.19 6.96h16.56c6.57 0 12.06-3.28 12.06-9.16 0-5.49-3.63-7.5-7.01-8.38 3.04-.73 6.22-3.28 6.22-7.35 0-5.88-4.95-9.41-11.71-9.41h-16.12v34.3Zm-44.71 0h9.16v-13.04h.78l8.13 13.04h10.29l-11.08-17.74 10.78-16.56h-9.41l-8.43 12.89h-1.08v-12.89h-9.16v34.3h.02Zm-22.17-6.91c-4.61 0-8.33-3.23-8.33-10.29s3.72-10.19 8.33-10.19 8.28 3.33 8.28 10.19-3.72 10.29-8.28 10.29m0 7.3c9.7 0 17.59-5.73 17.59-17.59 0-11.17-7.89-17.49-17.59-17.49s-17.59 6.32-17.59 17.49c0 11.86 7.84 17.59 17.59 17.59m-38.35-7.3c-4.61 0-8.33-3.23-8.33-10.29s3.73-10.19 8.33-10.19 8.28 3.33 8.28 10.19-3.72 10.29-8.28 10.29m0 7.3c9.7 0 17.59-5.73 17.59-17.59 0-11.17-7.89-17.49-17.59-17.49s-17.59 6.32-17.59 17.49c0 11.86 7.84 17.59 17.59 17.59m-34.87-20.97h-5.24v-6.81h5.24c2.89 0 4.26 1.18 4.26 3.58 0 2.2-1.42 3.23-4.26 3.23m.73 13.62h-5.98v-7.4h5.98c2.89 0 4.31 1.03 4.31 3.87 0 2.25-1.47 3.53-4.31 3.53m-15.19 6.96h16.56c6.57 0 12.06-3.28 12.06-9.16 0-5.49-3.63-7.5-7.01-8.38 3.04-.73 6.22-3.28 6.22-7.35 0-5.88-4.95-9.41-11.71-9.41h-16.12v34.3Z"/></g><path fill="#fff" d="M 754.368 264.746 L 867.788 264.746 L 867.788 228.926 L 804.468 228.926 L 804.468 208.246 L 857.978 208.246 L 857.978 171.786 L 804.468 171.786 L 804.468 151.106 L 865.868 151.106 L 870.128 115.506 L 754.368 115.506 L 754.368 264.746 Z M 636.268 264.746 L 742.228 264.746 L 742.228 228.926 L 686.368 228.926 L 686.368 115.506 L 636.268 115.506 L 636.268 264.746 Z M 535.168 204.416 L 545.828 170.096 L 557.128 204.416 L 535.168 204.416 Z M 464.388 264.746 L 516.198 264.746 L 524.728 237.666 L 568.218 237.666 L 577.168 264.746 L 628.338 264.746 L 572.908 115.516 L 518.758 115.516 L 464.398 264.746 L 464.388 264.746 Z M 397.878 266.446 C 434.978 266.446 464.818 250.456 464.178 218.906 C 463.328 168.166 387.858 174.776 385.508 160.496 C 384.228 154.956 391.048 151.116 405.978 151.116 C 417.918 151.116 435.398 155.166 450.318 162.626 L 463.538 127.446 C 450.318 120.196 427.938 113.806 403.208 113.806 C 362.698 113.806 334.558 131.286 335.198 160.706 C 336.048 214.006 412.158 202.496 414.508 218.906 C 415.788 227.856 402.998 228.926 390.848 228.926 C 375.068 228.926 359.078 223.596 346.078 216.776 L 334.138 253.656 C 348.848 260.686 372.298 266.446 397.878 266.446 M 1043.72 75.346 L 1034.96 75.346 L 1034.96 23.766 L 1043.72 23.766 C 1056.02 23.766 1063.51 32.106 1063.51 47.936 C 1063.51 63.766 1059.55 75.356 1043.72 75.356 M 1001.62 99.086 L 1044.99 99.086 C 1080.33 99.086 1097.57 74.926 1097.57 47.926 C 1097.57 20.926 1081.32 0.156 1044.99 0.156 L 1001.62 0.156 L 1001.62 99.086 Z M 894.298 99.086 L 927.648 99.086 L 927.648 53.726 L 963.688 99.086 L 989.128 99.086 L 989.128 0.156 L 955.778 0.156 L 955.778 44.106 L 920.448 0.156 L 894.308 0.156 L 894.308 99.076 L 894.298 99.086 Z M 824.458 59.086 L 831.528 36.336 L 839.018 59.086 L 824.458 59.086 Z M 777.538 99.086 L 811.878 99.086 L 817.528 81.136 L 846.358 81.136 L 852.288 99.086 L 886.208 99.086 L 849.468 0.166 L 813.578 0.166 L 777.538 99.086 Z M 700.968 99.086 L 771.208 99.086 L 771.208 75.346 L 734.178 75.346 L 734.178 0.156 L 700.968 0.156 L 700.968 99.086 Z M 647.608 100.216 C 672.198 100.216 691.978 89.616 691.558 68.706 C 690.988 35.076 640.968 39.456 639.408 29.986 C 638.558 26.316 643.078 23.766 652.978 23.766 C 660.888 23.766 672.478 26.456 682.368 31.396 L 691.128 8.076 C 682.368 3.276 667.528 -0.964 651.138 -0.964 C 624.288 -0.964 605.628 10.626 606.058 30.126 C 606.628 65.456 657.078 57.826 658.628 68.706 C 659.478 74.646 650.998 75.346 642.938 75.346 C 632.478 75.346 621.878 71.816 613.258 67.286 L 605.348 91.736 C 615.098 96.396 630.648 100.216 647.598 100.216 M 500.988 99.086 L 534.338 99.086 L 534.338 53.726 L 570.378 99.086 L 595.818 99.086 L 595.818 0.156 L 562.468 0.156 L 562.468 44.106 L 527.138 0.156 L 500.998 0.156 L 500.998 99.076 L 500.988 99.086 Z M 415.168 99.086 L 490.348 99.086 L 490.348 75.346 L 448.378 75.346 L 448.378 61.636 L 483.848 61.636 L 483.848 37.466 L 448.378 37.466 L 448.378 23.756 L 489.078 23.756 L 491.908 0.156 L 415.178 0.156 L 415.178 99.076 L 415.168 99.086 Z M 329.018 99.086 L 404.198 99.086 L 404.198 75.346 L 362.228 75.346 L 362.228 61.636 L 397.698 61.636 L 397.698 37.466 L 362.228 37.466 L 362.228 23.756 L 402.928 23.756 L 405.758 0.156 L 329.028 0.156 L 329.028 99.076 L 329.018 99.086 Z M 270.458 100.216 L 271.308 100.216 C 296.318 100.216 316.668 86.936 316.668 61.496 L 316.668 0.156 L 283.178 0.156 L 283.178 63.326 C 283.178 70.676 278.518 75.196 270.888 75.196 C 263.258 75.196 258.598 70.676 258.598 63.326 L 258.598 0.156 L 225.108 0.156 L 225.108 61.486 C 225.108 86.926 245.458 100.206 270.468 100.206 M 162.098 75.486 C 149.808 75.486 139.768 67.286 139.768 49.486 C 139.768 31.686 149.798 23.766 162.098 23.766 C 174.398 23.766 184.148 32.246 184.148 49.486 C 184.148 66.726 174.258 75.486 162.098 75.486 M 207.878 118.446 L 214.238 118.166 L 216.928 94.146 C 210.568 94.006 203.928 92.876 199.828 88.776 C 210.708 80.296 217.348 67.436 217.348 49.486 C 217.348 17.266 192.618 -0.964 162.088 -0.964 C 131.558 -0.964 106.698 17.256 106.698 49.486 C 106.698 83.676 131.288 100.216 162.098 100.216 C 166.058 100.216 170.158 99.936 173.968 99.366 C 180.328 109.396 189.938 118.446 207.888 118.446"/></svg>