<svg xmlns="http://www.w3.org/2000/svg" viewBox="0 0 1404 600"><path fill="#d40119" d="M451.496 231.395v65.866h502.008v-65.866H451.496z"/><g><path fill="#fff" d="M468.63 244.507H486.8c7.62 0 13.197 3.977 13.197 10.603 0 4.584-3.589 7.455-7.013 8.283 3.81.994 7.897 3.259 7.897 9.443 0 6.627-6.185 10.327-13.584 10.327H468.63v-38.656Zm21.095 11.818c0-2.706-1.546-4.03-4.804-4.03h-5.909v7.675h5.91c3.202 0 4.803-1.16 4.803-3.645Zm.884 15.02c0-3.203-1.601-4.362-4.86-4.362h-6.737v8.338h6.737c3.203 0 4.86-1.436 4.86-3.976ZM504.031 263.78c0-12.59 8.835-19.714 19.825-19.714 10.934 0 19.824 7.124 19.824 19.714 0 13.364-8.89 19.825-19.824 19.825-10.99 0-19.825-6.461-19.825-19.825Zm29.157 0c0-7.731-4.197-11.486-9.332-11.486-5.191 0-9.388 3.865-9.388 11.486 0 7.952 4.197 11.597 9.388 11.597 5.135 0 9.332-3.645 9.332-11.597Z"/></g><g><path fill="#fff" d="M546.87 263.78c0-12.59 8.835-19.714 19.825-19.714 10.934 0 19.824 7.124 19.824 19.714 0 13.364-8.89 19.825-19.824 19.825-10.99 0-19.825-6.461-19.825-19.825Zm29.157 0c0-7.731-4.197-11.486-9.332-11.486-5.191 0-9.388 3.865-9.388 11.486 0 7.952 4.197 11.597 9.388 11.597 5.135 0 9.332-3.645 9.332-11.597ZM591.328 244.507h10.327v14.524h1.214l9.498-14.524h10.603l-12.149 18.666 12.48 19.99h-11.596l-9.167-14.69h-.883v14.69h-10.327v-38.656Z"/></g><g><path fill="#fff" d="M641.709 244.507h18.168c7.62 0 13.197 3.977 13.197 10.603 0 4.584-3.589 7.455-7.013 8.283 3.81.994 7.897 3.259 7.897 9.443 0 6.627-6.185 10.327-13.584 10.327h-18.665v-38.656Zm21.094 11.818c0-2.706-1.546-4.03-4.804-4.03h-5.908v7.675h5.908c3.203 0 4.804-1.16 4.804-3.645Zm.884 15.02c0-3.203-1.601-4.362-4.86-4.362h-6.736v8.338h6.736c3.204 0 4.86-1.436 4.86-3.976ZM687.712 269.633l-12.922-24.85.11-.276h10.16l7.787 16.18 7.787-16.18h10.16l.111.277-12.867 24.74v13.639h-10.326v-13.53Z"/></g><g><path fill="#fff" d="m731.148 275.874 7.014-.442v-18.886l-6.13 1.657-2.209-7.566 8.339-2.374.607-3.756h9.83v30.87l7.178.497v7.289h-24.629v-7.29ZM760.53 279.794l3.7-7.013c2.816 1.988 6.13 2.54 8.504 2.54 5.3 0 7.676-2.816 7.897-8.56-1.658 1.658-4.308 3.204-8.229 3.204-6.571 0-12.645-5.025-12.645-12.536 0-8.283 6.35-13.86 16.676-13.308 9.167.497 14.082 7.731 14.082 18.279 0 14.191-6.57 21.039-17.616 21.039-4.583 0-9.055-1.491-12.369-3.645Zm19.327-22.143c0-3.204-2.43-5.357-5.411-5.357-2.872 0-5.302 2.153-5.302 5.357 0 3.313 2.43 5.3 5.302 5.3 2.981 0 5.411-1.987 5.411-5.3Z"/></g><g><path fill="#fff" d="M808.077 270.462v-1.823l9.167-1.049v3.535c0 2.153 1.38 4.527 4.086 4.527 2.54 0 4.418-1.822 4.418-4.749v-26.396h10.326v24.132c0 8.45-4.473 14.966-14.799 14.966-8.67 0-13.198-4.805-13.198-13.143ZM842.151 268.474v-23.967h10.326v25.237c0 3.258 2.652 5.522 5.964 5.522 3.259 0 5.91-2.264 5.91-5.522v-25.237h10.326v23.967c0 9.056-7.234 15.13-16.125 15.13h-.276c-8.89 0-16.125-6.074-16.125-15.13Z"/></g><g><path fill="#fff" d="M880.638 244.507h10.327v30.814h14.579v7.842h-24.906v-38.656ZM914.547 269.633l-12.922-24.85.111-.276h10.16l7.786 16.18 7.787-16.18h10.16l.111.277-12.866 24.74v13.639h-10.327v-13.53Z"/></g><path fill="#fff" d="M222.621 58.517h51.327l52.539 141.45H277.99l-8.488-25.663H228.28l-8.083 25.663h-49.104l51.528-141.45Zm36.373 84.264-10.71-32.534-10.103 32.534h20.813ZM331.718 189.46l11.316-34.959c12.327 6.466 27.482 11.518 42.435 11.518 11.518 0 23.643-1.01 22.43-9.497-2.222-15.56-74.362-4.648-75.17-55.166-.607-27.886 26.067-44.455 64.46-44.455 23.44 0 44.658 6.062 57.187 12.932l-12.529 33.342c-14.145-7.073-30.714-10.912-42.03-10.912-14.146 0-20.612 3.637-19.4 8.891 2.223 13.539 73.757 7.275 74.565 55.368.606 29.906-27.684 45.062-62.845 45.062-24.248 0-46.476-5.456-60.419-12.124Z"/><g><path fill="#fff" d="M464.672 58.517h47.689v141.45h-47.69V58.517ZM570.757 58.517h51.326l52.539 141.45h-48.497l-8.488-25.663h-41.222l-8.083 25.663h-49.104l51.529-141.45Zm36.373 84.264-10.71-32.534-10.104 32.534h20.814Z"/></g><path fill="#fff" d="m732.952 189.46 11.316-34.959c12.326 6.466 27.482 11.518 42.436 11.518 11.517 0 23.642-1.01 22.43-9.497-2.223-15.56-74.363-4.648-75.171-55.166-.607-27.886 26.067-44.455 64.46-44.455 23.441 0 44.659 6.062 57.187 12.932l-12.528 33.342c-14.146-7.073-30.715-10.912-42.031-10.912-14.145 0-20.612 3.637-19.399 8.891 2.223 13.539 73.756 7.275 74.565 55.368.606 29.906-27.684 45.062-62.845 45.062-24.25 0-46.477-5.456-60.42-12.124Z"/><g><path fill="#fff" d="M903.903 58.517h51.326l52.54 141.45H959.27l-8.486-25.663H909.56l-8.083 25.663h-49.103l51.528-141.45Zm36.373 84.264-10.71-32.534-10.103 32.534h20.813ZM1015.237 58.517h47.487v107.502h52.943v33.948h-100.43V58.517Z"/></g><path fill="#fff" d="M1123.182 58.517h109.725l-4.041 33.746h-58.197v19.6h50.72v34.555h-50.72v19.601h60.015v33.948h-107.502V58.517ZM864.774 440.924a4.837 4.837 0 0 1-4.838-4.838v-47.06h82.483v47.06a4.838 4.838 0 0 1-4.84 4.838h-72.805Z"/><path fill="#fff" d="M864.774 337.127a4.838 4.838 0 0 0-4.838 4.838v47.061h82.483v-47.06a4.838 4.838 0 0 0-4.84-4.839h-72.805Z"/><path fill="#d40119" d="M909.432 389.118c0-14.019-2.86-20.106-8.208-20.106-5.35 0-8.301 6.087-8.301 20.106 0 14.388 2.766 20.014 8.3 20.014 5.534 0 8.209-5.626 8.209-20.014m-33.48 0c0-19.83 8.854-33.11 25.272-33.11 16.325 0 25.179 13.28 25.179 33.11 0 19.553-8.394 32.927-25.18 32.927-16.878 0-25.271-13.374-25.271-32.927"/><path fill="#bcbdbf" d="M931.548 392.478a.855.855 0 0 1-.854-.854v-5.196a.856.856 0 0 1 1.709 0v5.196a.856.856 0 0 1-.855.854M871.79 392.478a.854.854 0 0 1-.853-.854v-5.196c0-.47.382-.855.853-.855.47 0 .854.384.854.855v5.196a.855.855 0 0 1-.854.854"/><path fill="#bcbdbf" d="M859.936 388.551h82.483v.95h-82.483z"/><path fill="#fff" d="M777.676 440.924a4.838 4.838 0 0 1-4.84-4.838v-47.06h82.484v47.06a4.837 4.837 0 0 1-4.838 4.838h-72.806Z"/><path fill="#fff" d="M777.676 337.127a4.838 4.838 0 0 0-4.84 4.838v47.061h82.484v-47.06a4.838 4.838 0 0 0-4.838-4.839h-72.806Z"/><path fill="#d40119" d="M825.074 399.232c0-5.534-4.058-8.854-8.854-8.854-4.981 0-9.038 3.32-9.038 8.854 0 5.35 4.057 8.947 9.038 8.947 4.796 0 8.854-3.598 8.854-8.947M789.38 391.3c0-1.107 0-2.213.092-3.412 1.199-21.12 14.572-31.728 29.883-31.728 7.839 0 14.48 2.398 20.107 6.087l-6.18 11.714c-4.796-3.413-9.5-4.243-13.466-4.243-8.762 0-13.558 5.72-13.927 14.296 2.767-2.767 7.194-5.349 13.743-5.349 10.975 0 21.12 8.392 21.12 20.936 0 13.835-10.606 23.15-27.853 22.228-15.311-.83-23.52-12.913-23.52-30.529"/><path fill="#bcbdbf" d="M844.45 392.478a.856.856 0 0 1-.855-.854v-5.196c0-.47.384-.855.855-.855.47 0 .855.384.855.855v5.196a.856.856 0 0 1-.855.854M784.692 392.478a.855.855 0 0 1-.854-.854v-5.196c0-.47.383-.855.854-.855.47 0 .854.384.854.855v5.196a.855.855 0 0 1-.854.854"/><path fill="#bcbdbf" d="M772.837 388.551h82.483v.95h-82.483z"/><path fill="#fff" d="M951.873 440.924a4.837 4.837 0 0 1-4.84-4.838v-47.06h82.487v47.06a4.84 4.84 0 0 1-4.84 4.838h-72.807Z"/><path fill="#fff" d="M951.873 337.127a4.838 4.838 0 0 0-4.84 4.838v47.061h82.487v-47.06a4.84 4.84 0 0 0-4.84-4.839h-72.807Z"/><path fill="#d40119" d="M1010.71 405.647c0-5.442-1.2-7.932-3.7-7.932-2.33 0-3.62 2.49-3.62 7.932s1.21 7.748 3.62 7.748c2.5 0 3.7-2.306 3.7-7.748m-18.27 0c0-9.869 5.173-16.602 14.57-16.602 9.48 0 14.57 6.733 14.57 16.602 0 9.592-4.74 16.325-14.57 16.325-9.742 0-14.57-6.733-14.57-16.325m-18.531-33.11c0-5.443-1.207-7.933-3.706-7.933-2.328 0-3.621 2.49-3.621 7.932s1.207 7.747 3.62 7.747c2.5 0 3.707-2.305 3.707-7.747m25.687-15.864h11.034l-33.101 64.562h-11.033l33.1-64.562Zm-43.961 15.864c0-9.869 5.172-16.602 14.568-16.602 9.48 0 14.567 6.733 14.567 16.602 0 9.592-4.741 16.325-14.567 16.325-9.741 0-14.568-6.733-14.568-16.325"/><path fill="#bcbdbf" d="M1018.65 392.478a.86.86 0 0 1-.86-.854v-5.196c0-.47.39-.855.86-.855s.85.384.85.855v5.196c0 .471-.38.854-.85.854M958.889 392.478a.855.855 0 0 1-.854-.854v-5.196c0-.47.383-.855.854-.855s.854.384.854.855v5.196a.855.855 0 0 1-.854.854"/><path fill="#bcbdbf" d="M947.034 388.551h82.486v.95h-82.486z"/><path fill="#d40119" d="m1021.75 364.46-.53-1.262-.51 1.262-1.36 1.956-2.24-1.577 1.42-2.083.82-.63-1.04-.096-2.27-.694.82-2.619 2.18.852 1.1.568-.34-1.23v-2.24h2.83v2.24l-.34 1.324 1.2-.725 2.02-.758.75 2.556-2.05.663-1.32.126 1.01.852 1.35 1.862-2.24 1.641-1.26-1.988zM382.249 337.128v103.797h375.076V337.128H382.249z"/><g><path fill="#fff" d="m401.115 421.609 5.47-17.3c6.696 3.684 14.73 6.362 22.543 6.362 6.585 0 12.834-.67 12.834-7.031 0-12.612-40.177-1.563-40.177-31.026 0-17.187 13.616-24.552 33.258-24.552 10.825 0 20.758 2.79 27.231 6.138l-6.027 16.182c-6.026-3.348-13.057-5.469-20.981-5.469-8.817 0-12.276 2.344-12.276 5.694 0 12.164 40.735 1.449 40.735 31.695 0 17.744-14.508 25.668-32.477 25.668-12.053 0-23.101-2.902-30.133-6.361ZM494.187 348.954h21.428l28.235 78.123h-19.753L518.85 411.9h-27.566l-5.133 15.177h-19.754l27.79-78.123Zm19.084 46.65-8.37-24.997-8.147 24.998h16.517Z"/></g><g><path fill="#fff" d="m525.723 349.513.223-.559h20.535l17.187 55.914 16.852-55.914h20.535l.223.559-26.45 77.564h-22.21l-26.895-77.564ZM607.97 348.954h55.466l-1.785 15.848h-32.7v15.29h28.459v15.735H628.95v15.291h33.37v15.96H607.97v-78.124Z"/></g><path fill="#fff" d="M695.036 427.99h4.207v-29.545h9.359l.378-3.545h-23.587v3.545h9.643v29.544Zm30.644.377c8.65 0 15.647-5.53 15.647-16.97 0-10.778-6.996-16.876-15.647-16.876-8.697 0-15.646 6.098-15.646 16.876 0 11.44 6.949 16.97 15.646 16.97Zm0-3.546c-6.287 0-11.344-4.585-11.344-13.424 0-8.887 5.057-13.33 11.344-13.33 6.24 0 11.298 4.443 11.298 13.33 0 8.84-5.058 13.424-11.298 13.424ZM699.905 383.152h.236c7.09 0 12.385-4.254 12.385-12.857v-20.61h-4.207v20.751c0 5.956-2.978 9.171-8.273 9.171-5.247 0-8.32-3.215-8.32-9.17v-20.752h-4.206v20.61c0 8.603 5.294 12.857 12.385 12.857Zm19.403-.378h4.207v-11.392h8.036c5.53 0 11.58-3.829 11.58-10.73 0-6.57-4.726-10.967-12.147-10.967h-11.676v33.09Zm11.865-14.89h-7.658v-14.607h7.752c5.058 0 7.564 2.553 7.564 7.422 0 5.01-3.877 7.185-7.658 7.185Z"/><path fill="#f4f1ea" d="M520.648 541.64c-16.333 0-29.621-13.622-29.621-30.364 0-16.743 13.288-30.364 29.62-30.364h362.844c16.333 0 29.62 13.621 29.62 30.364 0 16.742-13.287 30.363-29.62 30.363H520.648Z"/><path fill="#a1f1ff" d="M883.49 479.452H520.649c-4.204 0-8.284.845-12.125 2.513a30.938 30.938 0 0 0-9.88 6.835c-5.853 6.007-9.077 13.99-9.077 22.475 0 8.487 3.224 16.47 9.077 22.476a30.94 30.94 0 0 0 9.88 6.836 30.264 30.264 0 0 0 12.125 2.512H883.49c4.204 0 8.283-.845 12.125-2.512a30.94 30.94 0 0 0 9.88-6.836c5.853-6.007 9.077-13.989 9.077-22.476 0-8.485-3.224-16.468-9.077-22.475a30.938 30.938 0 0 0-9.88-6.835 30.265 30.265 0 0 0-12.125-2.513m0 2.921c15.553 0 28.16 12.94 28.16 28.902 0 15.963-12.607 28.903-28.16 28.903H520.648c-15.553 0-28.161-12.94-28.161-28.903 0-15.962 12.608-28.902 28.16-28.902h362.844Z"/><g><path d="M559.11 499.599h14.067l-.395 3.525h-9.752v5.346h9.235v3.586h-9.235v5.164h9.843v3.646H559.11V499.6ZM575.786 516.46c0-4.039 3.98-5.133 7.595-5.133 1.155 0 1.762.03 2.34.09v-.486c0-1.518-1.58-2.156-3.342-2.156-1.641 0-3.038.699-4.345 1.427l-1.397-2.976c.88-.547 3.19-1.793 5.955-1.793 3.736 0 6.805 1.64 6.805 6.136v9.297h-3.646l-.091-2.308c-.577.97-1.854 2.55-4.679 2.55-3.129 0-5.195-1.914-5.195-4.648Zm9.904-2.46-1.428-.09c-4.192-.092-4.83 1.214-4.83 2.247 0 .91.699 1.58 2.157 1.58 2.856 0 4.01-1.853 4.101-3.738ZM593.221 505.675h3.069l.243 2.584h.091c.274-1.43 1.489-2.826 3.706-2.826a5.81 5.81 0 0 1 2.006.365v3.19l-.182.12c-.79-.365-1.58-.546-2.28-.546-1.974 0-3.007 1.246-3.007 3.007v9.297h-3.646v-15.191ZM605.098 505.675h3.372l.153 2.492c.941-1.58 3.22-2.734 5.286-2.734 3.28 0 5.316 1.732 5.316 5.498v9.935h-3.645v-9.144c0-2.035-1.033-2.947-2.856-2.947-2.188 0-3.98 1.732-3.98 3.767v8.324h-3.646v-15.191ZM630.978 505.675h3.403l.243 3.707c.699-1.854 2.187-3.95 4.891-3.95 4.314 0 6.107 3.555 6.107 7.444 0 4.83-2.4 8.233-6.715 8.233-2.126 0-3.645-.942-4.496-1.975v7.504h-3.433v-20.963Zm10.877 7.14c0-2.886-1.185-4.04-2.978-4.04-3.068 0-4.253 3.16-4.253 5.558v2.28c1.185.76 2.795 1.093 3.433 1.093 2.43 0 3.798-1.943 3.798-4.89ZM647.775 513.302c0-5.195 3.737-7.87 7.626-7.87s7.625 2.675 7.625 7.87c0 5.406-3.737 7.807-7.625 7.807s-7.626-2.4-7.626-7.807Zm11.605 0c0-3.281-1.914-4.74-3.98-4.74-2.065 0-4.01 1.488-4.01 4.74 0 3.25 1.945 4.648 4.01 4.648 2.066 0 3.98-1.55 3.98-4.648ZM666 503.519l-.03-1.67.03-1.672a12.296 12.296 0 0 1 1.854-.121c.607 0 1.245.03 1.944.12l.06 1.673-.06 1.67c-.607.06-1.246.12-1.884.12-.637 0-1.276-.06-1.913-.12Zm.092 2.156h3.645v15.191h-3.645v-15.191ZM673.716 505.675h3.372l.152 2.492c.941-1.58 3.22-2.734 5.286-2.734 3.28 0 5.317 1.732 5.317 5.498v9.935h-3.646v-9.144c0-2.035-1.033-2.947-2.856-2.947-2.187 0-3.98 1.732-3.98 3.767v8.324h-3.645v-15.191ZM692.822 515.64v-7.17h-2.37v-2.37c1.276-.152 2.491-.728 2.643-2.156l.213-2.279 3.16-.213v4.223h3.22l-.243 2.795h-2.977v7.201c0 1.549.425 2.37 2.308 2.37.274 0 .578-.03.912-.061v3.007c-.608.061-1.61.122-2.096.122-4.193 0-4.77-2.49-4.77-5.47ZM701.843 519.468l1.428-2.947c1.336.73 2.886 1.306 4.617 1.306 2.218 0 2.795-.607 2.705-1.517-.213-2.006-8.628-.82-8.628-6.41 0-3.04 2.551-4.467 6.076-4.467 3.342 0 5.833 1.396 5.833 1.396l-1.398 2.735c-1.093-.608-2.521-1.002-4.04-1.002-2.279 0-2.826.578-2.826 1.338 0 2.216 8.628.789 8.628 6.41 0 3.037-2.309 4.799-6.259 4.799-2.612 0-4.526-.79-6.136-1.641ZM724.472 513.302c0-5.195 3.737-7.87 7.625-7.87s7.626 2.675 7.626 7.87c0 5.406-3.737 7.807-7.626 7.807s-7.625-2.4-7.625-7.807Zm11.606 0c0-3.281-1.914-4.74-3.98-4.74s-4.01 1.488-4.01 4.74c0 3.25 1.944 4.648 4.01 4.648s3.98-1.55 3.98-4.648ZM742.789 505.675h3.372l.152 2.492c.942-1.58 3.22-2.734 5.286-2.734 3.282 0 5.317 1.732 5.317 5.498v9.935h-3.646v-9.144c0-2.035-1.033-2.947-2.855-2.947-2.188 0-3.98 1.732-3.98 3.767v8.324h-3.646v-15.191ZM767.908 516.46c0-4.039 3.98-5.133 7.596-5.133 1.154 0 1.761.03 2.339.09v-.486c0-1.518-1.58-2.156-3.342-2.156-1.64 0-3.038.699-4.345 1.427l-1.397-2.976c.881-.547 3.19-1.793 5.955-1.793 3.736 0 6.804 1.64 6.804 6.136v9.297h-3.645l-.091-2.308c-.577.97-1.854 2.55-4.679 2.55-3.129 0-5.195-1.914-5.195-4.648Zm9.904-2.46-1.427-.09c-4.193-.092-4.83 1.214-4.83 2.247 0 .91.698 1.58 2.156 1.58 2.856 0 4.01-1.853 4.101-3.738ZM785.344 516.886v-17.772l3.645-.425v17.529c0 1.367.73 1.732 1.367 1.732.183 0 .487 0 .82-.062v3.008a9.053 9.053 0 0 1-1.883.213c-1.975 0-3.95-.668-3.95-4.223ZM793.94 516.886v-17.772l3.646-.425v17.529c0 1.367.73 1.732 1.367 1.732.182 0 .486 0 .82-.062v3.008a9.053 9.053 0 0 1-1.884.213c-1.974 0-3.949-.668-3.949-4.223ZM811.619 515.64v-7.17h-2.37v-2.37c1.276-.152 2.492-.728 2.643-2.156l.213-2.279 3.16-.213v4.223h3.22l-.243 2.795h-2.978v7.201c0 1.549.426 2.37 2.31 2.37.273 0 .577-.03.911-.061v3.007c-.607.061-1.61.122-2.097.122-4.192 0-4.77-2.49-4.77-5.47ZM821.4 505.675h3.068l.243 2.584h.09c.274-1.43 1.49-2.826 3.708-2.826.668 0 1.336.12 2.004.365v3.19l-.182.12c-.79-.365-1.58-.546-2.279-.546-1.974 0-3.007 1.246-3.007 3.007v9.297h-3.646v-15.191Z"/></g><g><path d="M831.879 516.46c0-4.039 3.98-5.133 7.595-5.133 1.155 0 1.762.03 2.34.09v-.486c0-1.518-1.58-2.156-3.343-2.156-1.64 0-3.038.699-4.344 1.427l-1.398-2.976c.882-.547 3.19-1.793 5.955-1.793 3.737 0 6.805 1.64 6.805 6.136v9.297h-3.645l-.091-2.308c-.577.97-1.854 2.55-4.679 2.55-3.129 0-5.195-1.914-5.195-4.648Zm9.904-2.46-1.428-.09c-4.192-.092-4.83 1.214-4.83 2.247 0 .91.698 1.58 2.156 1.58 2.857 0 4.011-1.853 4.102-3.738ZM847.158 505.798l.09-.123h3.677l4.131 10.543 3.616-10.543h3.828l.06.123-5.742 15.068h-3.766l-5.894-15.068ZM863.469 513.302c0-5.106 3.432-7.87 7.685-7.87 3.828 0 6.806 2.28 6.806 7.079 0 .426-.121 1.52-.243 1.822l-.152.123h-10.451c.213 2.522 2.248 3.494 4.283 3.494 2.157 0 3.16-.73 4.193-1.52l1.944 2.491c-1.185.941-3.16 2.188-6.288 2.188-4.071 0-7.777-2.37-7.777-7.807Zm7.473-4.74c-2.005 0-3.433 1.002-3.828 3.1h7.2c-.03-1.46-.88-3.1-3.372-3.1Z"/></g><g><path d="M880.998 516.886v-17.772l3.645-.425v17.529c0 1.367.73 1.732 1.367 1.732.183 0 .487 0 .82-.062v3.008a9.053 9.053 0 0 1-1.883.213c-1.975 0-3.95-.668-3.95-4.223ZM893.391 506.86l-.516-1.214-.487 1.215-1.305 1.882-2.157-1.517 1.367-2.006.79-.608-1.003-.091-2.188-.668.79-2.522 2.097.82 1.063.547-.334-1.185v-2.156h2.734v2.156l-.334 1.277 1.154-.699 1.945-.729.73 2.461-1.976.637-1.276.121.973.82 1.305 1.793-2.157 1.58-1.215-1.913Z"/></g><path fill="#001ede" d="M529.656 497.76c-.031.016-.062.037-.093.052-.011.005-.016.01-.026.016-.026.015-.047.031-.073.046a.762.762 0 0 1-.046.031l-.052.037-.062.046c-.01.01-.026.016-.036.026-.031.021-.052.041-.083.062 0 0-.01.01-.016.01-.756.611-1.434 1.59-1.625 2.44-.347 1.148-.228 2.888.683 3.21a.517.517 0 0 0 .098.026c.016 0 .032.01.047.01.02 0 .04.004.062.01.026 0 .052.005.078.005h.176c.04 0 .083-.01.124-.02.01 0 .016 0 .02-.006a1.33 1.33 0 0 0 .136-.036c.01 0 .02-.01.03-.01.042-.016.089-.032.13-.052.016-.01.036-.016.057-.026.036-.016.072-.037.109-.052.036-.016.072-.04.108-.062.016-.01.032-.015.047-.026a3.44 3.44 0 0 0 .326-.202c.01-.01.02-.015.03-.02.032-.02.063-.047.094-.068.02-.015.042-.03.068-.052l.057-.046.093-.078c.01-.01.015-.016.03-.026.037-.036.073-.066.115-.103 1.087-1.03 1.683-2.667 1.387-4.096-.15-.694-.45-1.298-1.113-1.315h-.191a2.15 2.15 0 0 0-.684.255s-.01 0-.01.004v.01h.005ZM517.008 508.307c0-.061-.011-.124-.021-.192l-.011-.046a1.84 1.84 0 0 0-.082-.228c-.006-.016-.016-.03-.021-.047l-.016-.03a2.963 2.963 0 0 0-.662-.84c-.016-.015-.037-.03-.052-.046l-.026-.025c-.647-.576-1.538-1.03-2.283-1.135h-.016a3.776 3.776 0 0 0-.57-.072h-.046a4.206 4.206 0 0 0-1.45.156c-.01 0-.02 0-.031.01-.015 0-.036.01-.051.015-.461.15-.83.398-.953.756 0 0 0 .01-.005.015a.447.447 0 0 0-.021.078l-.015.088v.015c-.016.145.01.301.072.477.01.032.02.062.036.093 0 .01.01.021.016.031.083.171.202.362.367.564.839 1.077 2.325 1.688 3.692 1.636a4.05 4.05 0 0 0 1.004-.155c.606-.18 1.145-.492 1.16-1.046v-.052h-.005l-.01-.02M514.6 500.691c-.932-.01-1.626.461-1.243 1.874.068.295.17.58.3.85.01.015.016.036.032.056l.015.031c.658 1.31 2.009 2.325 3.412 2.578.259.047.523.078.777.078h.119c.394-.01.746-.103.968-.356.026-.037.052-.069.073-.1.015-.025.036-.057.05-.088 0-.01.012-.015.017-.025.052-.109.098-.233.119-.384v-.05c.129-1.223-1.056-3.082-2.31-3.755-.646-.404-1.573-.72-2.33-.715v.006ZM516.397 512.278c0-.057-.011-.109-.021-.166 0-.02-.011-.046-.016-.067v-.01c-.062-.213-.212-.394-.42-.544-.01-.01-.02-.016-.03-.02-.016-.01-.036-.022-.052-.037-.45-.295-1.123-.456-1.77-.518a5.56 5.56 0 0 0-1.207 0 2.46 2.46 0 0 0-.217.036 3.158 3.158 0 0 0-.41.083 4.437 4.437 0 0 0-1.29.58c-.01 0-.02.011-.03.021-.43.285-.745.631-.735.978v.047c.016.176.125.347.347.512a11.888 11.888 0 0 0 .078.058c.046.036.093.067.145.098h.005l.155.093h.01c.052.026.099.052.156.078.01 0 .02.01.03.015l.14.062c.016.011.037.016.058.021.036.016.077.026.119.041l.093.032c.03.01.057.015.088.026.042.01.083.025.13.036.015 0 .036.01.056.015.052.016.109.026.16.037h.027c.067.01.129.026.19.036.354.057.72.077 1.089.062h.02c.063 0 .13 0 .192-.01h.057c.052 0 .098-.01.15-.016.036 0 .067-.01.104-.016.036 0 .067-.01.103-.015.052-.01.099-.015.15-.026.016 0 .037 0 .052-.01.067-.01.129-.03.192-.042h.01c.554-.134 1.066-.357 1.46-.673.01-.01.026-.02.036-.03.026-.022.052-.047.078-.068.026-.026.052-.047.083-.073l.026-.026c.165-.16.3-.34.403-.538l.01-.036.01-.037h.012-.026v.011ZM535.274 505.89l-.068.02c-.026.01-.057.015-.088.031h-.01c-.42.15-.84.373-1.217.652 0 0-.01 0-.01.01-.031.021-.062.047-.088.068-.011.01-.021.015-.036.026-.021.015-.042.036-.068.052-.015.015-.036.03-.057.046-.015.01-.026.026-.041.036-.026.022-.047.042-.073.067 0 0-.015.011-.02.021a3.239 3.239 0 0 0-.689.865v.01c-.015.031-.031.052-.041.083 0 .01 0 .015-.011.031-.01.021-.015.043-.026.067 0 .016-.01.031-.015.047l-.016.047c-.01.025-.015.046-.02.067v.01l-.011.047a.797.797 0 0 0 .016.528.935.935 0 0 0 .347.445l.015.016c.016.01.03.02.047.036l.052.031c.057.036.114.067.176.093.393.213.895.321 1.434.332a4.917 4.917 0 0 0 2.428-.534c.544-.269 1.02-.63 1.336-1.082.518-.61.585-1.092.383-1.46-.414-.776-2.024-.999-3.04-.813a3.157 3.157 0 0 0-.548.114h-.026v-.015l-.015.005ZM530.075 517.543h-.046c-.171 0-.326.026-.456.088 0 0-.036.016-.052.031-.015.011-.025.016-.036.026 0 0-.01 0-.015.011-.585.41-.632 1.537-.394 2.34.383 1.62 1.688 3.044 3.293 3.494 2.2.705 2.055-1.936 1.34-3.37-.382-.927-1.366-1.838-2.35-2.299-.031-.015-.062-.026-.088-.04h-.01c-.41-.182-.823-.286-1.18-.27v-.01h-.006ZM518.882 502.384c.58.689 1.703 1.553 2.542 1.341.269-.057.512-.233.689-.57l.025-.046.016-.042v-.01a2.07 2.07 0 0 0 .083-.192c.01-.03.015-.057.03-.088.016-.04.032-.083.037-.129a.964.964 0 0 0 .036-.182c0-.015 0-.03.01-.046.192-1.118-.196-2.666-.967-3.495-.56-.683-1.435-1.305-2.165-1.35-.611-.053-1.128.3-1.29 1.386a3.75 3.75 0 0 0 0 1.29c.115.776.44 1.537.949 2.133h.005ZM517.986 523.052a4.72 4.72 0 0 0 .518-.304c1.18-.778 2.08-2.088 2.149-3.5.046-.56-.058-.949-.254-1.197 0 0-.01-.01-.016-.02-.02-.027-.036-.048-.057-.068a.929.929 0 0 0-.44-.249c-.01 0-.026 0-.036-.01-.031 0-.052-.016-.083-.016-.036 0-.072-.01-.108-.015h-.016c-.86-.088-2.055.492-2.78 1.128-1.12.85-1.921 2.796-1.507 3.947l.015.05c.265 1 1.704.761 2.625.265l-.01-.01M523.277 524.595s.01-.016.016-.026c.155-.223.29-.456.394-.688.59-1.114.574-3.045-.073-3.972l-.031-.046c-.673-1.16-1.926-.068-2.423.911a4.817 4.817 0 0 0-.414 3.624c.538 1.931 1.76 1.3 2.53.202v-.005ZM525.338 496.84c-.222-.255-.445-.306-.652-.224-.29.093-.575.44-.803 1.108a4.913 4.913 0 0 0-.3 1.217 5.844 5.844 0 0 0 .109 2.138c.16.7.435 1.227.75 1.476.223.191.43.212.617.12.3-.13.595-.555.812-1.353.166-.533.259-1.102.264-1.475v-.404a5.747 5.747 0 0 0-.113-1.025c-.14-.73-.39-1.284-.684-1.579ZM537.272 513.93c.067-.01.135-.015.202-.032.026 0 .047-.01.072-.01l.16-.03c.032 0 .058-.017.089-.022l.119-.03.155-.047c.01 0 .026-.01.037-.01.3-.094.585-.218.818-.373.367-.234.517-.487.476-.75-.026-.28-.26-.597-.802-.938-.586-.415-1.41-.653-2.232-.715h-.036c-.083 0-.166-.01-.25-.01h-.423c-.047 0-.1 0-.145.01-.062 0-.12.01-.176.016-.037 0-.068.01-.1.01a3.19 3.19 0 0 0-.211.036c-.016 0-.036 0-.057.011-.083.015-.165.036-.248.057h-.011a2.819 2.819 0 0 0-.55.196l-.066.031-.057.026s-.01 0-.021.011c-.724.331-.9.71-.766 1.071.099.332.45.653.958.927.865.482 1.947.684 2.94.575h.02c.038 0 .079-.01.12-.016h-.015v.005ZM518.007 515.985l.01-.052v-.072c.057-.352-.046-.622-.248-.824-.326-.367-.922-.502-1.548-.497a3.597 3.597 0 0 0-.901.084 5.82 5.82 0 0 0-.637.15c-1.227.373-2.31 1.304-2.832 2.47-.295.6-.331 1.045-.202 1.376a.417.417 0 0 0 .047.104.44.44 0 0 0 .04.067c.01.01.017.021.022.031.02.031.046.062.072.093a1.153 1.153 0 0 0 .435.285c.72.306 1.864.202 2.677-.067 1.377-.357 2.894-1.91 3.054-3.132l.01-.016ZM528.47 525.15c.047-.079.083-.156.12-.239.01-.02.02-.047.03-.068.177-.377.275-.849.306-1.356a5.1 5.1 0 0 0-.424-2.433 3.471 3.471 0 0 0-.684-1.057 2.29 2.29 0 0 0-.378-.352c-1.43-1.108-2.138 1.44-2.004 2.74 0 .621.233 1.361.586 1.987.33.601.776 1.103 1.258 1.29l.046.015c.456.171.849 0 1.15-.528h-.006ZM536.52 519.439h.058c.026 0 .052 0 .073-.01.036 0 .067-.01.098-.01l.166-.033h.015c.109-.025.207-.056.295-.098.705-.305.767-.979.513-1.683-.01-.03-.021-.057-.031-.082 0 0 0-.01-.005-.016a4.514 4.514 0 0 0-1.093-1.6c-.952-1.03-2.982-1.605-4.126-1.159l-.052.02c-.414.13-.621.394-.694.72-.134.45.042 1.004.337 1.517.18.348.409.663.632.89.93 1.072 2.407 1.72 3.815 1.554v-.01ZM531.075 506.143s.01 0 .02.01c.01 0 .026.01.042.015.823.301 2.179-.082 3.008-.604 1.289-.674 2.449-2.632 2.247-3.864l-.01-.05c-.068-1.083-1.662-1.037-2.636-.663-1.615.537-2.997 1.977-3.272 3.676-.026.15-.041.278-.047.403-.025.585.239.921.637 1.087l.01-.01"/><path fill="#2744ff" d="M527.166 492.593c-.016.042-.037.084-.052.124l-.047.11c-.015.041-.031.082-.046.13-.016.035-.026.076-.037.112-.015.043-.025.083-.041.13l-.031.12c-.01.04-.021.082-.031.128-.01.043-.016.083-.026.125-.01.041-.015.083-.026.13-.01.041-.015.082-.021.13 0 .04-.01.081-.015.123 0 .046-.01.093-.016.134 0 .037-.01.078-.01.12 0 .046 0 .093-.01.14v.367c0 .052 0 .098.01.15 0 .036 0 .073.01.104 0 .047.01.098.016.15 0 .036.01.072.015.103.01.047.016.094.026.14 0 .036.016.073.02.11.01.045.022.087.032.128l.03.12a.83.83 0 0 0 .037.113c.016.047.03.088.042.13.01.031.02.062.036.093.016.036.026.072.04.11 0 .01.012.025.017.035 0 .01 0 .015.01.026.15.357.327.58.529.7.01.01.025.014.036.02 0 0 .01.005.015.01.352.197.772.088 1.243-.332a3.41 3.41 0 0 0 .844-1.076c.046-.083.088-.17.124-.254.264-.502.404-1.165.414-1.828.026-.673-.083-1.33-.357-1.848-.026-.047-.047-.088-.073-.13-.01-.015-.015-.03-.031-.046l-.031-.047a1.167 1.167 0 0 0-.16-.228s0-.01-.01-.01l-.052-.052c-.016-.01-.026-.026-.042-.036-.01-.005-.015-.015-.026-.02-.02-.016-.046-.037-.067-.047-.202-.135-.435-.15-.668-.088h-.01s-.047.015-.073.02c-.01 0-.02.006-.031.011-.015.005-.036.01-.051.021-.016.01-.037.015-.052.025-.01 0-.016.011-.026.011-.026.01-.052.026-.078.041-.316.176-.621.471-.854.792-.01.011-.016.026-.031.037 0 .005-.01.01-.01.015-.1.14-.187.285-.254.425-.01.02-.021.046-.036.067-.021.041-.042.083-.063.12l-.046.108v-.016h-.005ZM506.57 501.83c.093.285.238.574.414.833.088.135.186.27.29.4.02.025.04.051.067.077a4.76 4.76 0 0 0 2.542 1.537c.01 0 .026 0 .037.011.03 0 .062.01.093.015.026 0 .052.011.078.016.015 0 .036 0 .057.01.036 0 .072.01.103.016h.04c.038 0 .074.01.115.01h.285c.15 0 .3 0 .456-.015.134-.01.264-.032.378-.052.025 0 .05-.01.072-.016.016 0 .03-.01.047-.01.538-.135.797-.445.87-.834v-.026c0-.03.01-.056.01-.088v-.119c0-.129-.016-.259-.047-.398-.01-.047-.02-.083-.031-.13 0-.01-.01-.026-.01-.036-.01-.03-.016-.057-.026-.088-.01-.036-.026-.072-.036-.108v-.016a4.485 4.485 0 0 0-1.196-1.704 3.408 3.408 0 0 0-.704-.538c-.016-.01-.031-.016-.047-.025-.067-.037-.13-.074-.197-.11-.026-.01-.046-.026-.072-.036a5.556 5.556 0 0 0-.192-.092c-.02-.012-.046-.017-.067-.032-.073-.03-.14-.057-.212-.088-.011 0-.021-.01-.037-.01-.89-.327-1.88-.415-2.542-.13l-.052.022a.852.852 0 0 0-.58.569c-.14.336-.082.745.068 1.154l.026.025v.006ZM537.008 503.533v.124c-.01.824.777 1.13 1.657 1.155.6.021 1.258-.093 1.765-.28.037-.01.068-.02.099-.03.869-.285 1.79-1.036 2.34-1.854.005-.01.01-.016.015-.02.016-.027.037-.053.052-.084.01-.02.026-.036.036-.057.01-.015.016-.03.026-.046.016-.026.03-.057.047-.088 0-.01.01-.016.01-.02.016-.037.037-.073.052-.11v-.01c.036-.078.073-.155.104-.238.015-.037.026-.078.04-.114v-.01c.01-.037.022-.073.032-.104 0-.005 0-.016.005-.02.005-.032.016-.063.02-.089 0-.01.006-.026.01-.035 0-.027.012-.048.012-.073 0-.02.005-.037.01-.058v-.103l.005-.036c.062-.383-.062-.673-.295-.88-.342-.352-.932-.477-1.543-.466a3.712 3.712 0 0 0-1.092.134c-1.46.332-2.786 1.424-3.278 2.843a2.164 2.164 0 0 0-.145.574h.016v-.005ZM532.669 497.382c-.108.358-.17.715-.17 1.041v.067c0 .244.036.471.108.673l.016.047c.243.622.766.756 1.346.678.285-.036.59-.124.885-.238.016-.005.03-.015.047-.02.01 0 .02-.01.03-.01.016-.01.037-.017.058-.026 0 0 .005 0 .01-.006 1.512-.637 2.806-2.22 2.858-3.904.186-2.594-2.583-1.548-3.816-.455-.621.481-1.128 1.315-1.382 2.153h.01ZM514.957 499.77c.337.123.627.18.875.18.989.016 1.29-.838 1.212-1.8v-.017c0-.04-.01-.088-.01-.129 0-.042-.011-.083-.016-.119v-.026a4.727 4.727 0 0 0-.507-1.538c-.425-.922-1.517-1.833-2.532-2.22-.011 0-.016-.006-.026-.01-.031-.012-.062-.022-.093-.038l-.047-.015c-.026-.01-.052-.016-.078-.026a.739.739 0 0 0-.057-.016c-.025-.005-.046-.015-.072-.02-.016 0-.036-.01-.052-.01l-.077-.016a.104.104 0 0 1-.037-.01l-.093-.016h-.015a1.542 1.542 0 0 0-.404-.016h-.052c-.041.005-.078.016-.12.026h-.01c-.905.171-.973 1.17-.864 2.081.207 1.642 1.49 3.248 3.09 3.764l-.015-.01M519.674 525.418a3.569 3.569 0 0 0-.135-.44 1.464 1.464 0 0 0-.352-.549c-.015-.01-.031-.026-.041-.036-.192-.16-.445-.243-.766-.192l-.047.011c-.466.083-.973.404-1.43.84-.02.014-.04.035-.061.056-.59.574-1.082 1.33-1.253 2.008-.145.43-.217.98-.197 1.507v.114c.042.678.244 1.29.658 1.563l.072.042c.016.01.03.016.047.026.005 0 .015.006.02.006.337.145.788.088 1.372-.286 1.155-.652 1.983-1.962 2.159-3.287a3.76 3.76 0 0 0-.046-1.388v.005ZM530.67 524.388c-.361.098-.651.398-.791 1a2.412 2.412 0 0 0-.062.3 3.894 3.894 0 0 0-.062.61v.213c.025 1.014.424 2.045 1.097 2.79.435.487 1.124 1.015 1.77 1.165l.089.016c.02 0 .036.005.057.005h.04s.058 0 .084.005h.124c.03 0 .062 0 .088-.01h.02l.073-.016a.1.1 0 0 0 .037-.01c.015-.005.036-.01.05-.016.022-.005.038-.015.058-.02a.04.04 0 0 0 .026-.01.645.645 0 0 0 .083-.042c.202-.114.378-.31.518-.61l.02-.053c.492-1.102.094-3.132-.86-4.106-.672-.77-1.728-1.444-2.484-1.216h.026v.005ZM538.623 521.038a4.813 4.813 0 0 0-1.672-.652c-.021 0-.041 0-.067-.01-.026 0-.047 0-.073-.01-.942-.146-1.786.097-1.822 1.091v.176c.01.197.046.42.114.68.409 1.661 1.967 3.053 3.619 3.364.393.067.802.11 1.17.062h.036c.03 0 .057-.01.088-.015.026 0 .052-.01.073-.016l.067-.016c.03-.01.057-.015.083-.025a.212.212 0 0 0 .057-.026c.026-.01.05-.02.077-.036l.068-.037c.02-.01.036-.02.057-.036a.277.277 0 0 0 .072-.062c.01-.01.026-.016.036-.03.026-.027.052-.058.083-.089 0-.005.01-.01.016-.016a.469.469 0 0 0 .077-.124c.057-.103.099-.223.12-.362v-.052c.144-1.206-1.052-3.07-2.284-3.743v-.016h.005ZM545.328 509.627c.28-.44.17-.926-.766-1.336a4.695 4.695 0 0 0-1.056-.32c-1.051-.213-2.242-.067-3.18.456-.905.486-1.59 1.376-.305 2.008l.057.031c1.155.637 3.247.631 4.427-.13.425-.248.689-.486.828-.714h-.005v.005ZM504.105 509.218v.016l.01.036c.042.124.115.248.213.362 0 0 .01.01.01.016a.35.35 0 0 0 .042.046c.01.011.02.026.036.036l.02.021c.016.021.037.037.058.058.383.362.989.657 1.589.838h.01l.104.031c.01 0 .026 0 .036.01.026.011.052.016.078.022.02 0 .04.01.062.015.016 0 .036.01.052.01.03 0 .057.016.083.021h.026a.81.81 0 0 0 .108.02c.197.038.384.063.56.073.73.103 1.915-.114 2.599-.544.305-.19.512-.419.533-.688v-.047c0-.3-.228-.647-.808-1.02-1.134-.735-2.718-.937-4.002-.554-.43.14-.906.327-1.186.611-.155.155-.253.342-.233.57v.031h.01-.01v.01ZM514.072 520.37s-.01 0-.016-.01c-.01 0-.015-.01-.025-.016a1.14 1.14 0 0 0-.358-.155l-.051-.01c-1.197-.249-3.133.755-3.92 1.926-.538.704-1.02 1.843-.926 2.666 0 .026.005.052.01.078v.02c.098.637.554 1.067 1.63.906a3.932 3.932 0 0 0 1.18-.32c.017-.01.037-.016.053-.02.016-.007.03-.017.046-.022 1.228-.564 2.232-1.709 2.61-2.962.114-.383.197-.787.186-1.154-.005-.383-.12-.72-.414-.932h-.005v.005ZM519.969 495.705c.02.046.047.088.073.13.01.015.02.036.03.056.016.031.037.057.052.083l.057.093.03.048c.032.04.058.082.089.118 0 0 0 .01.01.01.275.348.607.622 1.01.782.736.166 1.067-.46 1.326-1.18a3.27 3.27 0 0 0 .108-.346c.192-.72.146-1.622-.098-2.45 0-.02-.01-.041-.015-.062-.005-.02-.016-.042-.021-.068-.29-.926-.834-1.739-1.58-2.06l-.046-.016a.707.707 0 0 0-.238-.052h-.067c-.404 0-.72.347-.896.725-.554.994-.518 2.858.166 4.18 0 .004 0 .01.01.014v-.005ZM511.043 515.861v-.042c-.02-.43-.31-.802-1.041-1.009a4.218 4.218 0 0 0-1.325-.186h-.031c-.062 0-.124 0-.186.01-.896.057-1.787.383-2.475.942-.906.673-1.74 2.164-.55 2.74l.053.03c1.02.595 3.049.42 4.1-.383.746-.492 1.47-1.352 1.46-2.076v-.02h-.005v-.006ZM544.728 517.445v-.02c0-.031-.006-.063-.011-.094v-.016c-.005-.03-.01-.066-.021-.098 0 0 0-.01-.005-.015a.345.345 0 0 0-.031-.099c0-.01-.005-.015-.01-.02a.679.679 0 0 0-.036-.094c0-.01-.006-.02-.011-.03-.01-.027-.026-.058-.036-.084-.005-.015-.015-.026-.021-.04-.01-.027-.026-.048-.036-.074a.554.554 0 0 1-.031-.056.314.314 0 0 0-.036-.057l-.047-.073c-.01-.015-.015-.026-.026-.04-.02-.032-.041-.058-.062-.089 0 0-.01-.016-.015-.02a4.423 4.423 0 0 0-1.196-1.094c-.068-.046-.13-.088-.197-.129a1.26 1.26 0 0 0-.124-.067c-.026-.01-.052-.026-.073-.036-.538-.264-1.206-.404-1.853-.415h-.316c-.062 0-.12.011-.181.016-.031 0-.068 0-.1.01-.05 0-.102.017-.154.021-.036 0-.073.01-.104.016-.051.01-.103.02-.155.036a.61.61 0 0 1-.093.02c-.057.016-.114.032-.166.052a.104.104 0 0 0-.057.021 7.49 7.49 0 0 0-.191.078h-.011c-.082.041-.165.082-.243.13l-.036.02c-.036.02-.073.042-.11.067-.004 0-.015.01-.025.016-.021.015-.036.031-.057.041-.015.015-.036.026-.046.041l-.021.021c-.021.021-.042.041-.062.067a.83.83 0 0 0-.182.611c0 .037.006.062.01.095v.02s.006.046.016.072c0 .01.006.026.01.036 0 .015.01.036.016.052.006.015.01.036.016.052 0 .01.01.025.015.036.006.026.016.046.026.072 0 .011.005.016.005.021a3.13 3.13 0 0 0 .503.777c.015.02.036.041.05.057.012.015.027.025.038.041.01.01.015.015.02.026.202.217.425.41.627.538.03.021.062.047.093.067.02.016.04.032.067.047l.17.11.048.025c.067.036.129.072.197.108.01 0 .015.011.026.011.072.036.15.072.222.11h.01c.964.423 2.087.511 3.07.164.41-.129.669-.316.808-.538l.005-.01a.482.482 0 0 0 .037-.073c0-.01.01-.02.015-.03a.169.169 0 0 0 .02-.058l.016-.047c0-.015.006-.03.01-.046a3.82 3.82 0 0 1 .016-.062v-.037s.006-.05.006-.077v-.114h-.006v.026l.006.005ZM525.897 527.437c-.26-.869-.554-1.33-.844-1.49 0 0-.015-.01-.02-.01-.337-.177-.658.045-.922.45 0 0-.015.03-.026.046-.098.16-.191.352-.274.56 0 .015-.011.035-.021.051v.01a5.067 5.067 0 0 0-.316 1.616v.088c-.036 1.046.28 2.366.917 2.997.145.13.279.176.409.171h.03c.358-.03.653-.486.824-.854.285-.6.425-1.32.435-2.045a5.65 5.65 0 0 0-.181-1.579l-.011-.01"/><path fill="#738eff" d="M538.598 497.698c0 .042.01.078.015.12 0 .03.01.056.016.087l.015.068c.01.041.026.082.042.124a1.071 1.071 0 0 0 .227.383c.13.124.264.217.414.29l.037.015c.026.011.05.026.083.037l.119.046c.279.093.574.114.875.078h.02l.109-.016s.03-.005.047-.01c.026-.005.057-.01.083-.02a.408.408 0 0 0 .072-.02l.062-.017.093-.03.047-.017c.036-.015.067-.025.104-.04.01 0 .02-.01.036-.016a1.33 1.33 0 0 0 .108-.052l.032-.016c.036-.015.067-.036.103-.057.01-.005.02-.015.036-.02.03-.016.063-.037.093-.056.016-.012.026-.022.042-.033.026-.015.052-.036.078-.056a.222.222 0 0 1 .057-.042.278.278 0 0 0 .057-.052c.02-.014.04-.036.067-.056l.04-.042.074-.072c.01-.01.015-.02.026-.032.025-.03.05-.062.077-.093.005-.01.01-.015.016-.02.026-.037.052-.068.072-.104 0-.005.006-.01.01-.015.026-.037.047-.073.068-.109 0-.005.01-.016.01-.02.02-.037.036-.073.057-.11l.016-.03c.015-.031.026-.063.04-.094a.264.264 0 0 0 .022-.057c.005-.02.015-.046.02-.067.01-.03.016-.067.027-.099 0-.01 0-.015.005-.025.036-.166.05-.347.036-.529v-.072c-.052-.906-.818-1.274-1.621-1.263-.445 0-.895.12-1.247.331-.668.357-1 1.186-.943 1.874v.042-.016h.006ZM502.94 504.527v.016s0 .057.01.088v.01c0 .031.01.062.016.093v.016c0 .031.016.057.026.088v.01l.016.062a1.59 1.59 0 0 0 .388.684l.073.072a.307.307 0 0 1 .04.037c.017.015.037.03.053.046.02.016.046.036.072.053.01.01.02.014.03.02.032.02.069.041.1.062h.01c.362.212.797.315 1.222.296.046 0 .088 0 .129-.012h.016c.036 0 .078-.01.114-.015h.03c.037 0 .068-.016.099-.02.016 0 .03-.01.047-.01.03-.012.057-.017.083-.027.015 0 .036-.01.05-.016.027-.01.048-.015.074-.025.02-.01.04-.016.062-.026l.057-.026a.536.536 0 0 0 .072-.036c.016-.01.032-.016.047-.026l.078-.046a.097.097 0 0 1 .036-.022c.03-.02.057-.04.083-.062.005 0 .015-.01.02-.015l.094-.078h.005c.155-.15.279-.33.367-.544 0-.015.006-.03.01-.046v-.037a.33.33 0 0 0 .016-.098v-.207c0-.03 0-.052-.01-.083 0-.02-.01-.046-.016-.072a.506.506 0 0 0-.02-.083c-.005-.02-.016-.047-.021-.067-.01-.03-.015-.057-.031-.088-.01-.02-.016-.042-.026-.061-.015-.033-.031-.064-.041-.095-.011-.015-.021-.036-.031-.052a1.479 1.479 0 0 0-.057-.098c-.011-.015-.021-.03-.031-.04l-.073-.105c-.01-.01-.015-.02-.026-.03-.031-.037-.057-.073-.088-.103a.327.327 0 0 0-.026-.027c-.036-.036-.067-.073-.103-.104-.005-.005-.016-.01-.021-.016a1.029 1.029 0 0 0-.12-.098c-.004 0-.01-.01-.015-.015-.046-.03-.088-.063-.134-.093-.005 0-.01-.005-.016-.01a1.859 1.859 0 0 0-.688-.254c-.787-.15-1.828.248-2.035 1.004v.01l-.015.073v.253h.01l-.01-.005ZM514.724 492.03v.066c0 .031.006.062.01.093 0 .026 0 .052.01.078 0 .026.012.047.017.072.005.032.01.068.02.094 0 .015.01.036.016.052.01.036.02.077.036.113 0 .011.01.021.01.031.016.048.03.088.052.13 0 .005.005.01.01.015.02.047.047.094.073.14.109.207.249.39.414.54h.01c.037.04.078.071.114.102l.026.016c.037.026.068.052.104.072l.046.031c.032.016.058.037.083.053a.454.454 0 0 0 .078.035c.02.011.04.016.062.031a.812.812 0 0 0 .109.042c.005 0 .01.005.015.01l.063.021c.155.052.305.072.44.067h.015s.042 0 .062-.005c.01 0 .026 0 .037-.005.01 0 .025 0 .036-.005.02 0 .04-.01.062-.016h.01c.445-.124.75-.554.906-1.035v-.01l.016-.063c0-.01.01-.025.01-.036 0-.01 0-.02.01-.036 0-.02.01-.042.016-.068.047-.216.067-.429.052-.63.026-.602-.347-1.187-.834-1.544 0 0-.01-.01-.015-.01h-.005c-.192-.135-.394-.233-.601-.285a1.1 1.1 0 0 0-.715.046c-.56.233-.812.896-.874 1.491v.037c-.011.057-.011.108-.011.165v.104h.005ZM543.21 504.641v.01a.288.288 0 0 0-.015.094c0 .01 0 .026-.005.036 0 .021-.005.041-.005.063 0 .025 0 .051-.006.077v.02c0 .094 0 .187.01.28a.76.76 0 0 0 .058.186v.011c.015.036.036.072.057.108.005.011.01.016.015.026.02.031.047.063.068.093.005.011.015.021.026.032.025.031.05.051.077.082.01.011.02.021.036.032a.693.693 0 0 0 .088.072c.01.01.026.021.037.032.03.025.067.046.098.066.01.011.026.016.036.021.037.021.073.042.114.062.01 0 .026.011.037.016.04.02.082.036.129.052.01 0 .02.01.03.01l.14.046h.027c.05.016.098.026.155.037h.02c.052.01.109.015.16.02h.198c.057 0 .109 0 .165-.01h.016c.057 0 .109-.015.16-.026h.016a.878.878 0 0 0 .155-.046h.016c.047-.016.098-.037.145-.057h.01c.42-.191.74-.549.906-.948v-.01l.026-.073.016-.04c0-.017.01-.032.015-.042.006-.025.016-.047.02-.073v-.01c.099-.383.058-.787-.175-1.097 0 0-.036-.047-.057-.068-.01-.01-.016-.02-.026-.03-.01-.017-.026-.027-.036-.043-.016-.015-.036-.036-.057-.052-.005 0-.01-.01-.016-.015a1.45 1.45 0 0 0-.481-.264 1.41 1.41 0 0 0-.394-.119h-.02c-.026 0-.047-.005-.073-.01h-.196c-.798.03-1.554.673-1.74 1.45h.02ZM547.384 513.76s.01-.033.01-.048c.01-.036.015-.073.02-.109v-.03c0-.042.006-.089 0-.13v-.073l-.01-.05-.015-.059c0-.01-.005-.02-.011-.025-.01-.037-.026-.073-.036-.104v-.01c-.166-.404-.502-.694-.896-.86a1.81 1.81 0 0 0-.75-.18c-.156 0-.311.015-.471.056-.368.078-.7.26-.906.56a1.06 1.06 0 0 0-.24.71v.014c.027.554.618 1.196 1.317 1.362.098.026.2.036.305.041h.072c.632 0 1.367-.399 1.585-.994a.473.473 0 0 0 .026-.083v.011ZM521.393 530.508c-.031-.032-.057-.068-.093-.093 0-.006-.016-.01-.021-.016-.026-.02-.052-.047-.078-.067a2.404 2.404 0 0 0-.052-.037c-.02-.015-.036-.03-.056-.04-.032-.017-.057-.037-.094-.053a1.516 1.516 0 0 0-.315-.124c-.332-.088-.694.01-1.005.222 0 0-.01.006-.015.011a1.374 1.374 0 0 0-.068.052c-.026.015-.046.036-.072.058-.342.29-.59.718-.616 1.174-.11.906.569 2.066 1.579 1.88l.062-.01c1.268-.27 1.62-2.072.839-2.952h.005v-.005ZM523.53 490.486v.016s0 .031.01.046c.1.544.317.906.597 1.113.398.311.906.264 1.315-.067l.016-.016c.02-.015.04-.036.062-.05.02-.022.04-.043.062-.064l.015-.015c.239-.249.425-.6.518-1.05v-.022c0-.03.01-.057.016-.083v-.046s.01-.016.01-.03v-.074c.02-.18 0-.367-.047-.548v-.01c-.01-.032-.02-.068-.031-.099-.186-.575-.657-1.05-1.284-1-.74.13-1.304 1.072-1.263 1.952 0 .016 0 .031.01.047h-.005ZM531.836 492.521s0 .046.01.072v.021s.01.036.01.052c0 .015 0 .026.01.041v.031c0 .021.01.047.016.067v.011c.15.497.487.922.969 1.035.01 0 .015 0 .025.005.016 0 .032.006.047.011.016 0 .036.005.052.01h.015c.135.016.28.005.435-.03l.068-.015s.01 0 .02-.006c.036-.01.073-.016.109-.032l.052-.015.088-.03a.48.48 0 0 0 .077-.037c.02-.01.037-.016.057-.032.037-.015.068-.036.099-.056.01-.006.02-.01.03-.02.042-.027.084-.053.12-.084 0 0 .01-.005.01-.01.264-.192.482-.456.632-.75 0 0 0-.01.005-.01.02-.043.036-.084.057-.126 0-.01.01-.02.016-.03.015-.037.025-.073.036-.104l.015-.051a.472.472 0 0 0 .02-.089l.017-.073c.005-.026.01-.05.01-.082 0-.026.01-.052.01-.078.005-.052.01-.109.01-.166v-.228c-.036-.6-.31-1.247-.885-1.434a.876.876 0 0 0-.212-.046 1.33 1.33 0 0 0-.43.01 1.881 1.881 0 0 0-.631.238c-.54.311-.99.865-1.02 1.496a2.573 2.573 0 0 0 0 .534h.03ZM508.475 498.672c.31.13.684.191 1.04.181.798-.01 1.559-.404 1.575-1.326v-.072a1.783 1.783 0 0 0-.337-1.186c-.28-.44-.714-.787-1.237-.89a.62.62 0 0 0-.104-.02c-.647-.167-1.351-.053-1.848.475a1.3 1.3 0 0 0-.285.673c-.145.813.3 1.885 1.186 2.175l.01-.01ZM538.908 528.235c-.072-.953-.927-1.719-1.833-1.828h-.072a1.137 1.137 0 0 0-.476 0c-1.005.171-1.305 1.538-.953 2.44.18.547.704.951 1.263 1.143.192.067.383.108.57.124h.05c.276.016.535-.026.737-.134.388-.202.595-.586.673-1.005.05-.248.062-.502.036-.74h.005ZM529.677 530.27s-.011-.006-.016-.01c-.02-.01-.046-.027-.067-.037l-.057-.026s-.01-.005-.016-.01l-.025-.01c-.73-.374-1.321.155-1.595.812v.016c-.01.02-.016.041-.021.057 0 .01-.01.025-.015.036 0 .015-.011.031-.016.046l-.015.047c0 .016-.011.031-.016.047 0 .015-.01.031-.01.041a1.96 1.96 0 0 0-.068.538c0 .083.01.166.02.254 0 .031.012.058.017.088v.021c.165.766.895 1.372 1.48 1.351h.088s.052-.005.073-.01c.015 0 .036 0 .052-.01h.01c.207-.052.388-.166.539-.316a1.67 1.67 0 0 0 .502-.917c.212-.756-.202-1.636-.85-2.008h.01-.004ZM503.816 514.758h.108c.725-.047 1.439-.533 1.626-1.238.14-.78-.694-1.434-1.553-1.496h-.031c-.182-.015-.368 0-.54.047-.574.16-1.148.662-1.272 1.242l-.011.052c-.11.735.72 1.305 1.424 1.388.083.01.166.016.243.016h.006v-.01ZM514.217 528.157c0-.03.005-.062.01-.093v-.026c.006-.114 0-.233-.015-.347a1.421 1.421 0 0 0-.192-.62c-.005-.012-.01-.017-.015-.027a1.555 1.555 0 0 1-.031-.047c-.011-.014-.026-.036-.042-.052 0-.005-.01-.01-.015-.015-.295-.347-.772-.476-1.26-.45h-.035s-.046 0-.067.005a2.269 2.269 0 0 0-1.134.435c-.005 0-.01.01-.015.016 0 0-.011.01-.016.01-.016.01-.031.025-.046.037-.006 0-.011.01-.016.014a.874.874 0 0 0-.124.12l-.026.025-.093.11c-.011.015-.026.03-.037.051l-.067.098c-.015.026-.031.047-.041.073-.016.031-.031.057-.042.083-.015.031-.031.062-.041.093-.011.026-.016.046-.031.072-.016.036-.026.074-.036.11a.663.663 0 0 0-.016.066c-.01.036-.016.078-.026.12 0 .02-.01.041-.01.067l-.016.113c0 .026 0 .047-.005.074v.274c0 .03 0 .061.01.093 0 .025.006.052.01.077 0 .036.01.067.016.104 0 .021.01.041.016.062.01.036.015.072.03.103.006.016.01.037.016.052.01.036.026.068.037.098.01.016.015.037.026.052.015.031.025.057.046.088.01.021.026.042.036.062a.412.412 0 0 1 .042.068c.015.026.036.046.052.067a.09.09 0 0 1 .02.026s.01.006.01.01c.01.012.02.026.032.037.057.051.119.098.18.134.006 0 .01.011.016.011l.083.051c.016.011.037.021.057.031.02.011.036.016.057.026.026.011.052.026.083.037.01 0 .026.01.036.015l.099.031c.01 0 .02.005.03.011.037.005.073.015.109.02h.032c.036.005.072.011.103.011h.32s.053-.006.079-.01c.02 0 .04-.006.062-.01.026 0 .046-.01.072-.017l.068-.015.067-.016a.411.411 0 0 1 .072-.02c.02-.006.042-.016.068-.02a.402.402 0 0 0 .067-.027c.02-.01.047-.016.067-.026.02-.01.042-.015.062-.026.026-.01.052-.026.073-.036.015-.01.03-.016.047-.026.03-.016.056-.036.088-.052l.03-.014c.037-.022.068-.047.099-.069 0 0 .005 0 .01-.005.43-.31.756-.76.86-1.258 0-.01 0-.026.005-.036 0-.026.01-.057.01-.083h-.01ZM544.722 522.664c.187-.528.01-1.186-.372-1.709-.011-.015-.021-.026-.026-.04l-.052-.069c-.368-.455-.891-.787-1.476-.78h-.155c-.134.01-.27.04-.41.087-.04.015-.077.031-.113.046-.005 0-.015 0-.021.011a1.045 1.045 0 0 0-.108.051l-.093.047s-.026.015-.037.026c-.041.026-.083.052-.12.083a1.2 1.2 0 0 0-.304.352s-.005.01-.005.015c-.021.037-.037.073-.057.114a.245.245 0 0 0-.016.042l-.031.088-.016.067-.015.067-.016.1v.04c0 .042-.005.083-.005.124v.021c0 .047 0 .093.005.14v.01c0 .048.01.093.02.145v.016c.01.046.017.088.032.13 0 .01.005.02.01.03.01.036.02.073.037.11.005.02.015.04.02.061.006.026.016.047.026.073.016.036.026.067.047.098 0 .01.01.015.01.026.31.647.943 1.196 1.662 1.242h.14c.047 0 .088 0 .135-.01h.01c.073-.005.145-.02.217-.036h.02s.012-.005.017-.005l.05-.01.048-.016c.466-.119.75-.373.896-.689.01-.02.015-.04.026-.062.005-.016.015-.036.02-.056v.02ZM508.004 522.555l.026-.04a.49.49 0 0 0 .04-.069c.017-.03.038-.062.053-.093 0-.005.005-.01.01-.015.285-.554.327-1.222-.046-1.77-.337-.43-1.061-.653-1.735-.56-.414.046-.802.212-1.071.517-.658.685-.813 1.89-.161 2.522.016.016.03.026.042.041l.015.016c.176.155.404.264.694.321h.005c.217.073.43.093.637.073.04 0 .088-.01.129-.016h.016a.94.94 0 0 0 .114-.025c.01 0 .015 0 .02-.006l.114-.03c.006 0 .01 0 .016-.006.036-.016.078-.026.114-.047h.01c.342-.145.642-.388.87-.694l.072-.103.016-.016Z"/></svg>