<svg xmlns="http://www.w3.org/2000/svg" xmlns:xlink="http://www.w3.org/1999/xlink" id="Layer_1" data-name="Layer 1" viewBox="0 0 1404 600"><defs><clipPath id="clippath"><path d="M-2.83 48.99h791.7v395.85H-2.83z" class="cls-10"/></clipPath><clipPath id="clippath-1"><path d="M-2.83 48.99h791.7v395.85H-2.83z" class="cls-10"/></clipPath><clipPath id="clippath-2"><path d="M169.12 463.56h447.79v58.91H169.12z" class="cls-10"/></clipPath><clipPath id="clippath-3"><path d="M1196.44 346.04h62.73v78.94h-62.73z" class="cls-10"/></clipPath><clipPath id="clippath-4"><path d="M1130.2 346.04h62.73v78.94h-62.73z" class="cls-10"/></clipPath><clipPath id="clippath-5"><path d="M1063.96 346.04h62.73v78.94h-62.73z" class="cls-10"/></clipPath><clipPath id="clippath-6"><path d="M997.72 346.04h62.73v78.94h-62.73z" class="cls-10"/></clipPath><clipPath id="clippath-7"><path d="M1328.91 346.04h62.73v78.94h-62.73z" class="cls-10"/></clipPath><clipPath id="clippath-8"><path d="M1262.67 346.04h62.73v78.94h-62.73z" class="cls-10"/></clipPath><clipPath id="clippath-9"><path d="M1008.83 465.8h371.69v55.55h-371.69z" class="cls-10"/></clipPath><clipPath id="clippath-10"><path d="M1008.83 465.8h371.69v55.55h-371.69z" class="cls-10"/></clipPath><clipPath id="clippath-11"><path d="M1295.79 162.3h62.73v78.94h-62.73z" class="cls-10"/></clipPath><clipPath id="clippath-12"><path d="M1229.56 162.3h62.73v78.94h-62.73z" class="cls-10"/></clipPath><clipPath id="clippath-13"><path d="M1163.32 162.3h62.73v78.94h-62.73z" class="cls-10"/></clipPath><clipPath id="clippath-14"><path d="M1097.08 162.3h62.73v78.94h-62.73z" class="cls-10"/></clipPath><clipPath id="clippath-15"><path d="M1030.84 162.3h62.73v78.94h-62.73z" class="cls-10"/></clipPath><style>.cls-8{fill:#fff}.cls-10{fill:none}.cls-12{fill:#738eff}.cls-19{fill:#bcbdbf}.cls-20{fill:#001ede}.cls-22{fill:#2744ff}.cls-25{fill:#d40119}</style></defs><g clip-path="url(#clippath)"><g><path d="M204.44 60.39h29.29l39.58 49.23V60.39h37.36v110.82h-28.5l-40.37-50.82v50.82h-37.36V60.39ZM326.65 60.39h85.96l-3.17 26.44h-45.59v15.36h39.74v27.07h-39.74v15.36h47.02v26.6h-84.22V60.39ZM418.79 61.18l.32-.79h37.68l13.61 72.98 16.15-72.98h30.87l16.31 72.98 13.46-72.98h37.68l.32.79-29.13 110.03h-42.43l-11.56-51.13-11.56 51.13h-42.59L418.79 61.18Z" class="cls-8"/></g></g><g><path d="m9.36 278.11 50.34-61.58H12.06v-26.44h91.5v22.8l-50.98 61.42h50.34v26.6H9.36v-22.8ZM117.33 190.09h85.96l-3.17 26.44h-45.59v15.36h39.74v27.07h-39.74v15.36h47.02v26.6h-84.22V190.1ZM248.73 190.09h40.21l41.16 110.82h-37.99l-6.65-20.11h-32.3l-6.33 20.11h-38.47l40.37-110.82Zm28.49 66.01-8.39-25.49-7.92 25.49h16.31ZM337.7 190.09h37.2v84.22h41.48v26.6H337.7V190.09ZM462.28 190.09h40.21l41.16 110.82h-37.99l-6.65-20.11h-32.3l-6.33 20.11h-38.47l40.37-110.82Zm28.5 66.01-8.39-25.49-7.92 25.49h16.31ZM551.25 190.09h29.29l39.58 49.23v-49.23h37.36v110.82h-28.5l-40.37-50.82v50.82h-37.36V190.09ZM673.15 190.09h48.6c40.69 0 58.89 23.27 58.89 53.51s-19.31 57.31-58.89 57.31h-48.6V190.09Zm69.34 53.5c0-17.73-8.39-27.07-22.16-27.07h-9.82v57.78h9.82c17.73 0 22.16-12.67 22.16-30.71Z" class="cls-8"/></g><g clip-path="url(#clippath-1)"><g><path d="m194.01 422.36 8.87-27.39c9.66 5.07 21.53 9.02 33.25 9.02 9.02 0 18.52-.79 17.57-7.44-1.74-12.19-58.26-3.64-58.89-43.22-.48-21.85 20.42-34.83 50.5-34.83 18.36 0 34.99 4.75 44.8 10.13l-9.82 26.12c-11.08-5.54-24.06-8.55-32.93-8.55-11.08 0-16.15 2.85-15.2 6.97 1.74 10.61 57.78 5.7 58.42 43.38.48 23.43-21.69 35.3-49.23 35.3-19 0-36.41-4.27-47.33-9.5ZM332.84 319.78h40.21l41.16 110.82h-37.99l-6.65-20.11h-32.3l-6.33 20.11h-38.47l40.37-110.82Zm28.5 66.01-8.39-25.49-7.92 25.49h16.31ZM421.81 319.78h37.2V404h41.48v26.6h-78.68V319.78ZM508.09 319.78h85.96l-3.17 26.44h-45.59v15.36h39.74v27.07h-39.74v15.36h47.02v26.6h-84.22V319.79Z" class="cls-8"/></g></g><path d="M169.12 463.56h447.79v58.91H169.12z" class="cls-25"/><g clip-path="url(#clippath-2)"><path d="M582.07 509.85h9.24v-12.2l11.51-22.13-.1-.25h-9.09l-6.97 14.47-6.96-14.47h-9.09l-.1.25 11.56 22.23v12.1Zm-28.67 0h22.27v-7.01h-13.04v-27.56h-9.24v34.57Zm-20.29.4h.25c7.95 0 14.42-5.43 14.42-13.53v-21.44h-9.24v22.57c0 2.91-2.37 4.94-5.28 4.94s-5.34-2.03-5.34-4.94v-22.57h-9.24v21.44c0 8.1 6.47 13.53 14.42 13.53m-33.15 0c9.24 0 13.24-5.83 13.24-13.39v-21.58h-9.24v23.61c0 2.62-1.68 4.25-3.95 4.25-2.42 0-3.65-2.12-3.65-4.05v-3.16l-8.2.94v1.63c0 7.46 4.05 11.75 11.8 11.75m-41.64-18.47c-2.57 0-4.74-1.78-4.74-4.74s2.17-4.79 4.74-4.79 4.84 1.93 4.84 4.79-2.17 4.74-4.84 4.74m-1.38 18.32c9.88 0 15.76-6.12 15.76-18.82 0-9.43-4.4-15.9-12.6-16.35-9.24-.49-14.92 4.49-14.92 11.9 0 6.72 5.43 11.21 11.31 11.21 3.51 0 5.88-1.38 7.36-2.87-.2 5.14-2.32 7.65-7.06 7.65-2.12 0-5.09-.49-7.61-2.27l-3.31 6.27c2.96 1.93 6.96 3.26 11.06 3.26m-37.43-.23h22.03v-6.52l-6.42-.44v-27.61h-8.79l-.54 3.36-7.46 2.12 1.98 6.77 5.48-1.48v16.89l-6.27.39v6.52h-.01Zm-38.82 0h9.24v-12.2l11.51-22.13-.1-.25h-9.09l-6.96 14.47-6.96-14.47h-9.09l-.1.25 11.56 22.23v12.1h-.01Zm-26.66-20.74h-5.28v-6.87h5.28c2.91 0 4.3 1.19 4.3 3.61 0 2.22-1.43 3.26-4.3 3.26m.74 13.73h-6.02v-7.46h6.02c2.91 0 4.35 1.04 4.35 3.9 0 2.27-1.48 3.56-4.35 3.56m-15.31 7.01h16.69c6.62 0 12.15-3.31 12.15-9.24 0-5.53-3.65-7.56-7.06-8.45 3.06-.74 6.27-3.31 6.27-7.41 0-5.93-4.99-9.48-11.8-9.48h-16.25v34.57Zm-45.05 0h9.24v-13.14h.79l8.2 13.14h10.37l-11.16-17.88 10.87-16.69h-9.48l-8.49 12.99h-1.09v-12.99h-9.24v34.57h-.01Zm-22.09-6.96c-4.64 0-8.4-3.26-8.4-10.37s3.75-10.27 8.4-10.27 8.35 3.36 8.35 10.27-3.75 10.37-8.35 10.37m0 7.36c9.78 0 17.73-5.78 17.73-17.73 0-11.26-7.95-17.63-17.73-17.63s-17.73 6.37-17.73 17.63c0 11.95 7.9 17.73 17.73 17.73m-38.4-7.36c-4.64 0-8.4-3.26-8.4-10.37s3.75-10.27 8.4-10.27 8.35 3.36 8.35 10.27-3.75 10.37-8.35 10.37m0 7.36c9.78 0 17.73-5.78 17.73-17.73 0-11.26-7.95-17.63-17.73-17.63s-17.73 6.37-17.73 17.63c0 11.95 7.9 17.73 17.73 17.73m-34.88-21.14h-5.28v-6.87h5.28c2.91 0 4.3 1.19 4.3 3.61 0 2.22-1.43 3.26-4.3 3.26m.74 13.73h-6.02v-7.46h6.02c2.91 0 4.35 1.04 4.35 3.9 0 2.27-1.48 3.56-4.35 3.56m-15.31 7.01h16.69c6.62 0 12.15-3.31 12.15-9.24 0-5.53-3.65-7.56-7.06-8.45 3.06-.74 6.27-3.31 6.27-7.41 0-5.93-4.99-9.48-11.8-9.48h-16.25v34.57Z" class="cls-8"/></g><path d="M0 0h1404v600H0z" class="cls-10"/><path d="M1064.79 282.82h259.78v52.57h-259.78z" class="cls-25"/><g><path d="M1077.18 291.66h9.13v12.88h11.42v-12.88h9.08v34.01h-9.08v-13.26h-11.42v13.26h-9.13v-34.01ZM1111.19 308.62c0-11.08 7.77-17.34 17.44-17.34s17.44 6.27 17.44 17.34c0 11.76-7.82 17.44-17.44 17.44s-17.44-5.68-17.44-17.44Zm25.65 0c0-6.8-3.69-10.11-8.21-10.11s-8.26 3.4-8.26 10.11 3.69 10.2 8.26 10.2 8.21-3.21 8.21-10.2ZM1150.45 291.66h9.09v27.11h12.83v6.9h-21.91v-34.01ZM1175.62 291.66h9.13v34.01h-9.13v-34.01ZM1190.34 291.66h13.46c11.27 0 17.15 7.14 17.15 16.42s-6.17 17.59-17.15 17.59h-13.46v-34.01Zm21.08 16.42c0-6.75-3.89-9.62-8.02-9.62h-3.98v20.31h3.98c5.3 0 8.02-3.89 8.02-10.69ZM1233.48 291.66h9.33l12.29 34.01h-8.6l-2.28-6.61h-12l-2.23 6.61h-8.6l12.1-34.01Zm8.31 20.31-3.64-10.88-3.55 10.88h7.19ZM1263.9 313.76l-11.37-21.86.1-.24h8.94l6.85 14.24 6.85-14.24h8.94l.1.24-11.32 21.77v12h-9.08v-11.9ZM1285.52 323.29l2.38-7.53c2.92 1.6 6.41 2.77 9.81 2.77 2.87 0 5.59-.29 5.59-3.06 0-5.49-17.49-.68-17.49-13.51 0-7.48 5.93-10.69 14.48-10.69 4.71 0 9.04 1.21 11.85 2.67l-2.62 7.04a18.576 18.576 0 0 0-9.13-2.38c-3.84 0-5.34 1.02-5.34 2.48 0 5.29 17.73.63 17.73 13.8 0 7.73-6.32 11.17-14.14 11.17-5.25 0-10.06-1.26-13.12-2.77Z" class="cls-8"/></g><g clip-path="url(#clippath-3)"><path d="M1200.12 424.97c-2.03 0-3.68-1.65-3.68-3.68V385.5h62.73v35.79c0 2.03-1.65 3.68-3.68 3.68h-55.37Z" class="cls-8"/><path d="M1200.12 346.04c-2.03 0-3.68 1.65-3.68 3.68v35.79h62.73v-35.79c0-2.03-1.65-3.68-3.68-3.68h-55.37Z" class="cls-8"/><path d="m1209.25 398.62 9.68-5.96c.98 3.72 3.44 6.52 7.65 6.52 3.51 0 7.08-2.53 7.08-6.73 0-4.84-3.65-6.8-7.08-6.8-2.46 0-4.56.84-6.45 2.38l-8.98-5.19 3.09-22.16h29.53v9.96h-19.15l-.98 6.45c1.47-.42 3.3-.84 5.33-.84 11.64 0 17.39 7.58 17.39 16.62 0 10.24-8.84 17.47-18.52 17.47-8 0-15.22-4.21-18.59-11.71" class="cls-25"/><path d="M1250.9 388.13c-.36 0-.65-.29-.65-.65v-3.95c0-.36.29-.65.65-.65s.65.29.65.65v3.95c0 .36-.29.65-.65.65M1205.45 388.13c-.36 0-.65-.29-.65-.65v-3.95c0-.36.29-.65.65-.65s.65.29.65.65v3.95c0 .36-.29.65-.65.65" class="cls-19"/><path d="M1196.44 385.14h62.73v.72h-62.73z" class="cls-19"/></g><g clip-path="url(#clippath-4)"><path d="M1133.88 424.97c-2.03 0-3.68-1.65-3.68-3.68V385.5h62.73v35.79c0 2.03-1.65 3.68-3.68 3.68h-55.37Z" class="cls-8"/><path d="M1133.88 346.04c-2.03 0-3.68 1.65-3.68 3.68v35.79h62.73v-35.79c0-2.03-1.65-3.68-3.68-3.68h-55.37Z" class="cls-8"/><path d="m1143.22 398.69 9.68-6.1c1.61 3.72 4.49 6.52 8.28 6.52 2.95 0 5.68-1.96 5.68-5.4 0-5.19-3.23-6.45-7.79-6.45-1.19 0-2.38.07-3.65.21l-4.77-7.64 12.06-9.19h-17.82v-9.96h33.04v9.96l-11.36 8.91c9.54 1.12 13.33 7.43 13.33 14.87 0 10.24-8.91 15.92-17.89 15.92-8.07 0-15.29-4.14-18.8-11.64" class="cls-25"/><path d="M1184.66 388.13c-.36 0-.65-.29-.65-.65v-3.95c0-.36.29-.65.65-.65s.65.29.65.65v3.95c0 .36-.29.65-.65.65M1139.21 388.13c-.36 0-.65-.29-.65-.65v-3.95c0-.36.29-.65.65-.65s.65.29.65.65v3.95c0 .36-.29.65-.65.65" class="cls-19"/><path d="M1130.2 385.14h62.73v.72h-62.73z" class="cls-19"/></g><g clip-path="url(#clippath-5)"><path d="M1067.64 424.97c-2.03 0-3.68-1.65-3.68-3.68V385.5h62.73v35.79c0 2.03-1.65 3.68-3.68 3.68h-55.37Z" class="cls-8"/><path d="M1067.64 346.04c-2.03 0-3.68 1.65-3.68 3.68v35.79h62.73v-35.79c0-2.03-1.65-3.68-3.68-3.68h-55.37Z" class="cls-8"/><path d="m1076.21 396.34 11.36-3.72c.84 4.42 3.23 6.45 7.15 6.66 5.12.14 7.08-1.82 6.94-4.07-.56-6.59-23.99-4.98-23.71-20.2.21-7.01 5.96-11.5 13.82-12.77v-7.01h8.98v7.08c6.59 1.26 12.34 5.4 13.68 12.49l-10.73 3.37c-1.05-4.77-3.44-6.45-7.5-6.45-3.65 0-5.61 1.33-5.4 3.44.56 5.82 23.57 4.42 23.57 19.92 0 8.07-6.24 12.42-13.61 13.89v6.8h-8.98v-6.52c-8.28-.91-14.66-5.47-15.57-12.91" class="cls-25"/><path d="M1118.42 388.13c-.36 0-.65-.29-.65-.65v-3.95c0-.36.29-.65.65-.65s.65.29.65.65v3.95c0 .36-.29.65-.65.65M1072.97 388.13c-.36 0-.65-.29-.65-.65v-3.95c0-.36.29-.65.65-.65s.65.29.65.65v3.95c0 .36-.29.65-.65.65" class="cls-19"/><path d="M1063.96 385.14h62.73v.72h-62.73z" class="cls-19"/></g><g clip-path="url(#clippath-6)"><path d="M1001.4 424.97c-2.03 0-3.68-1.65-3.68-3.68V385.5h62.73v35.79c0 2.03-1.65 3.68-3.68 3.68h-55.37Z" class="cls-8"/><path d="M1001.4 346.04c-2.03 0-3.68 1.65-3.68 3.68v35.79h62.73v-35.79c0-2.03-1.65-3.68-3.68-3.68h-55.37Z" class="cls-8"/><path d="M1005.87 355.22h7.93l-.25 2.04h-5.41v3.1h4.88v2.07h-4.88v5.12h-2.27v-12.33zM1015.29 355.22h4.53c3.1 0 4.7 1.5 4.7 3.77 0 1.81-.85 3.15-2.47 3.73l2.73 4.83h-2.48l-2.47-4.51h-2.27v4.51h-2.27v-12.33Zm6.86 3.88c0-1.23-.92-1.83-2.13-1.83h-2.45v3.66h2.52c1.32 0 2.06-.69 2.06-1.83M1025.93 361.37c0-3.66 2.68-6.29 6.02-6.29s6.02 2.62 6.02 6.29c0 4.09-2.87 6.32-6.02 6.32s-6.02-2.24-6.02-6.32m9.78 0c0-2.64-1.67-4.23-3.75-4.23s-3.77 1.58-3.77 4.23c0 2.82 1.85 4.23 3.77 4.23s3.75-1.41 3.75-4.23M1039.74 355.22h1.87l4.4 7.21 4.33-7.21h1.87v12.33h-2.27v-7.94l-3.26 5.44h-1.39l-3.28-5.46v7.96h-2.27v-12.33z" class="cls-25"/><path d="M1052.18 388.13c-.36 0-.65-.29-.65-.65v-3.95c0-.36.29-.65.65-.65s.65.29.65.65v3.95c0 .36-.29.65-.65.65M1006.74 388.13c-.36 0-.65-.29-.65-.65v-3.95c0-.36.29-.65.65-.65s.65.29.65.65v3.95c0 .36-.29.65-.65.65" class="cls-19"/><path d="M997.72 385.14h62.73v.72h-62.73z" class="cls-19"/></g><g clip-path="url(#clippath-7)"><path d="M1332.59 424.97c-2.03 0-3.68-1.65-3.68-3.68V385.5h62.73v35.79c0 2.03-1.65 3.68-3.68 3.68h-55.37Z" class="cls-8"/><path d="M1332.59 346.04c-2.03 0-3.68 1.65-3.68 3.68v35.79h62.73v-35.79c0-2.03-1.65-3.68-3.68-3.68h-55.37Z" class="cls-8"/><path d="M1383.37 388.13c-.36 0-.65-.29-.65-.65v-3.95c0-.36.29-.65.65-.65s.65.29.65.65v3.95c0 .36-.29.65-.65.65M1337.93 388.13c-.36 0-.65-.29-.65-.65v-3.95c0-.36.29-.65.65-.65s.65.29.65.65v3.95c0 .36-.29.65-.65.65" class="cls-19"/><path d="M1328.91 385.14h62.73v.72h-62.73z" class="cls-19"/><path d="M1335.59 354.57h3.48c2.08 0 3.41 1.24 3.41 3.08 0 1.94-1.7 3.01-3.25 3.01h-1.92v3.2h-1.71v-9.29Zm5.1 3.08c0-1.01-.45-1.53-1.7-1.53h-1.69v3h1.66c.93 0 1.73-.45 1.73-1.47M1343.75 354.57h6.14l-.17 1.54h-4.26v2.34h4.03v1.57h-4.03v2.25h4.3v1.6h-6.01v-9.3zM1351.22 354.57h3.41c2.34 0 3.54 1.13 3.54 2.84 0 1.37-.64 2.38-1.86 2.81l2.06 3.64h-1.87l-1.86-3.4h-1.71v3.4h-1.71v-9.29Zm5.17 2.92c0-.93-.69-1.38-1.61-1.38h-1.85v2.76h1.9c.99 0 1.55-.52 1.55-1.38M1335.59 367.85h3.48c2.08 0 3.41 1.24 3.41 3.08 0 1.94-1.7 3.01-3.25 3.01h-1.92v3.2h-1.71v-9.29Zm5.1 3.08c0-1.01-.45-1.53-1.7-1.53h-1.69v3h1.66c.93 0 1.73-.45 1.73-1.47M1343.75 367.85h6.14l-.17 1.54h-4.26v2.34h4.03v1.56h-4.03v2.26h4.3v1.59h-6.01v-9.29zM1351.22 367.85h3.41c2.34 0 3.54 1.13 3.54 2.84 0 1.37-.64 2.38-1.86 2.81l2.06 3.64h-1.87l-1.86-3.4h-1.71v3.4h-1.71v-9.29Zm5.17 2.92c0-.93-.69-1.38-1.61-1.38h-1.85v2.76h1.9c.99 0 1.55-.52 1.55-1.38M1359.24 376.11l.77-1.38c.92.61 1.77.88 2.75.88.78 0 1.53-.33 1.53-1.22 0-1.88-4.8-.73-4.8-4.1 0-1.63 1.53-2.54 3.35-2.54 1.25 0 2.42.49 3.11.96l-.68 1.34c-.88-.54-1.59-.76-2.42-.76-1.17 0-1.67.35-1.67 1.02 0 1.65 4.82.86 4.82 4.06 0 2.07-1.59 2.88-3.16 2.88-1.33 0-2.63-.47-3.58-1.14M1366.91 372.48c0-2.76 2.02-4.74 4.54-4.74s4.54 1.98 4.54 4.74c0 3.08-2.16 4.77-4.54 4.77s-4.54-1.69-4.54-4.77m7.37 0c0-1.99-1.26-3.19-2.83-3.19s-2.84 1.19-2.84 3.19c0 2.12 1.39 3.19 2.84 3.19s2.83-1.06 2.83-3.19M1377.32 367.85h1.33l4.59 6.12v-6.12h1.72v9.29h-1.26l-4.66-6.28v6.28h-1.72v-9.29z" class="cls-25"/></g><g clip-path="url(#clippath-8)"><path d="M1266.35 424.97c-2.03 0-3.68-1.65-3.68-3.68V385.5h62.73v35.79c0 2.03-1.65 3.68-3.68 3.68h-55.37Z" class="cls-8"/><path d="M1266.35 346.04c-2.03 0-3.68 1.65-3.68 3.68v35.79h62.73v-35.79c0-2.03-1.65-3.68-3.68-3.68h-55.37Z" class="cls-8"/><path d="m1275.24 405.87 4.7-8.91c3.58 2.53 7.79 3.23 10.8 3.23 6.73 0 9.75-3.58 10.03-10.87-2.1 2.1-5.47 4.07-10.45 4.07-8.35 0-16.06-6.38-16.06-15.92 0-10.52 8.07-17.6 21.18-16.9 11.64.63 17.89 9.82 17.89 23.22 0 18.03-8.35 26.72-22.38 26.72-5.82 0-11.5-1.89-15.71-4.63m24.55-28.14c0-4.07-3.09-6.8-6.87-6.8s-6.73 2.74-6.73 6.8 3.09 6.73 6.73 6.73 6.87-2.52 6.87-6.73" class="cls-25"/><path d="M1317.14 388.13c-.36 0-.65-.29-.65-.65v-3.95c0-.36.29-.65.65-.65s.65.29.65.65v3.95c0 .36-.29.65-.65.65M1271.69 388.13c-.36 0-.65-.29-.65-.65v-3.95c0-.36.29-.65.65-.65s.65.29.65.65v3.95c0 .36-.29.65-.65.65" class="cls-19"/><path d="M1262.67 385.14h62.73v.72h-62.73z" class="cls-19"/><path d="m1319.5 366.82-.41-.96-.39.96-1.03 1.49-1.7-1.2 1.08-1.58.62-.48-.79-.08-1.73-.52.63-2 1.65.65.84.43-.26-.93v-1.71h2.16v1.71l-.27 1.01.92-.56 1.53-.57.58 1.94-1.56.51-1.01.09.77.65 1.03 1.42-1.7 1.24-.96-1.51z" class="cls-25"/></g><g clip-path="url(#clippath-9)"><path fill="#f4f1ea" d="M1035.96 520.07c-14.26 0-25.85-11.89-25.85-26.5s11.6-26.5 25.85-26.5h316.69c14.25 0 25.85 11.89 25.85 26.5s-11.6 26.5-25.85 26.5h-316.69Z"/><path fill="#a1f1ff" d="M1352.65 468.35c13.57 0 24.58 11.29 24.58 25.23s-11.01 25.23-24.58 25.23h-316.69c-13.57 0-24.58-11.29-24.58-25.23s11-25.23 24.58-25.23h316.69Zm0-2.55h-316.69c-3.67 0-7.23.74-10.58 2.19-3.23 1.4-6.13 3.41-8.62 5.97-5.11 5.24-7.92 12.21-7.92 19.62s2.81 14.37 7.92 19.62a27.07 27.07 0 0 0 8.62 5.97c3.35 1.45 6.91 2.19 10.58 2.19h316.69c3.67 0 7.23-.74 10.58-2.19 3.23-1.4 6.13-3.41 8.62-5.97 5.11-5.24 7.92-12.21 7.92-19.62s-2.81-14.37-7.92-19.62a27.07 27.07 0 0 0-8.62-5.97 26.485 26.485 0 0 0-10.58-2.19"/></g><g><path d="M1069.53 483.39h12.27l-.34 3.07h-8.51v4.67h8.06v3.13h-8.06v4.51h8.59v3.18h-12.01V483.4ZM1084.06 498.1c0-3.53 3.47-4.48 6.63-4.48 1.01 0 1.54.03 2.04.08v-.42c0-1.33-1.38-1.88-2.92-1.88-1.43 0-2.65.61-3.79 1.25l-1.22-2.6c.77-.48 2.78-1.56 5.19-1.56 3.26 0 5.94 1.43 5.94 5.35v8.11h-3.18l-.08-2.01c-.5.85-1.62 2.23-4.08 2.23-2.73 0-4.53-1.67-4.53-4.05Zm8.64-2.15-1.25-.08c-3.66-.08-4.21 1.06-4.21 1.96 0 .79.61 1.38 1.88 1.38 2.49 0 3.5-1.62 3.58-3.26ZM1099.25 488.69h2.68l.21 2.25h.08c.24-1.25 1.3-2.46 3.23-2.46.58 0 1.17.11 1.75.32v2.78l-.16.11c-.69-.32-1.38-.48-1.99-.48-1.72 0-2.62 1.09-2.62 2.62v8.11h-3.18v-13.25ZM1109.59 488.69h2.94l.13 2.17c.82-1.38 2.81-2.38 4.61-2.38 2.86 0 4.64 1.51 4.64 4.8v8.67h-3.18v-7.98c0-1.78-.9-2.57-2.49-2.57-1.91 0-3.47 1.51-3.47 3.29v7.26h-3.18V488.7ZM1132.12 488.69h2.97l.21 3.23c.61-1.62 1.91-3.45 4.27-3.45 3.76 0 5.33 3.1 5.33 6.49 0 4.21-2.09 7.18-5.86 7.18-1.86 0-3.18-.82-3.92-1.72v6.55h-3v-18.29Zm9.49 6.23c0-2.52-1.03-3.53-2.6-3.53-2.68 0-3.71 2.76-3.71 4.85v1.99c1.03.66 2.44.95 3 .95 2.12 0 3.31-1.7 3.31-4.27ZM1146.76 495.34c0-4.53 3.26-6.86 6.65-6.86s6.65 2.33 6.65 6.86-3.26 6.81-6.65 6.81-6.65-2.09-6.65-6.81Zm10.12 0c0-2.86-1.67-4.13-3.47-4.13s-3.5 1.3-3.5 4.13 1.7 4.05 3.5 4.05 3.47-1.35 3.47-4.05ZM1162.64 486.81l-.03-1.46.03-1.46c.53-.08 1.06-.11 1.62-.11s1.09.03 1.7.11l.05 1.46-.05 1.46c-.53.05-1.09.11-1.64.11s-1.11-.05-1.67-.11Zm.08 1.88h3.18v13.25h-3.18v-13.25ZM1169.35 488.69h2.94l.13 2.17c.82-1.38 2.81-2.38 4.61-2.38 2.86 0 4.64 1.51 4.64 4.8v8.67h-3.18v-7.98c0-1.78-.9-2.57-2.49-2.57-1.91 0-3.47 1.51-3.47 3.29v7.26h-3.18V488.7ZM1185.99 497.38v-6.25h-2.07v-2.07c1.11-.13 2.17-.64 2.31-1.88l.19-1.99 2.76-.19v3.68h2.81l-.21 2.44h-2.6v6.28c0 1.35.37 2.07 2.01 2.07.24 0 .5-.03.79-.05v2.62c-.53.05-1.4.11-1.83.11-3.66 0-4.16-2.17-4.16-4.77ZM1193.84 500.72l1.25-2.57c1.17.64 2.52 1.14 4.03 1.14 1.94 0 2.44-.53 2.36-1.33-.19-1.75-7.53-.72-7.53-5.59 0-2.65 2.23-3.9 5.3-3.9 2.92 0 5.09 1.22 5.09 1.22l-1.22 2.39c-.95-.53-2.2-.88-3.53-.88-1.99 0-2.46.5-2.46 1.17 0 1.94 7.53.69 7.53 5.59 0 2.65-2.01 4.19-5.46 4.19-2.28 0-3.95-.69-5.35-1.43ZM1213.54 495.34c0-4.53 3.26-6.86 6.65-6.86s6.65 2.33 6.65 6.86-3.26 6.81-6.65 6.81-6.65-2.09-6.65-6.81Zm10.12 0c0-2.86-1.67-4.13-3.47-4.13s-3.5 1.3-3.5 4.13 1.7 4.05 3.5 4.05 3.47-1.35 3.47-4.05ZM1229.5 488.69h2.94l.13 2.17c.82-1.38 2.81-2.38 4.61-2.38 2.86 0 4.64 1.51 4.64 4.8v8.67h-3.18v-7.98c0-1.78-.9-2.57-2.49-2.57-1.91 0-3.47 1.51-3.47 3.29v7.26h-3.18V488.7ZM1251.37 498.1c0-3.53 3.47-4.48 6.63-4.48 1.01 0 1.54.03 2.04.08v-.42c0-1.33-1.38-1.88-2.92-1.88-1.43 0-2.65.61-3.79 1.25l-1.22-2.6c.77-.48 2.78-1.56 5.2-1.56 3.26 0 5.94 1.43 5.94 5.35v8.11h-3.18l-.08-2.01c-.5.85-1.62 2.23-4.08 2.23-2.73 0-4.53-1.67-4.53-4.05Zm8.64-2.15-1.25-.08c-3.66-.08-4.21 1.06-4.21 1.96 0 .79.61 1.38 1.88 1.38 2.49 0 3.5-1.62 3.58-3.26ZM1266.56 498.47v-15.51l3.18-.37v15.29c0 1.19.64 1.51 1.19 1.51.16 0 .42 0 .71-.05v2.62c-.5.11-1.06.19-1.64.19-1.72 0-3.45-.58-3.45-3.68ZM1274.04 498.47v-15.51l3.18-.37v15.29c0 1.19.64 1.51 1.19 1.51.16 0 .42 0 .72-.05v2.62c-.5.11-1.06.19-1.64.19-1.72 0-3.45-.58-3.45-3.68ZM1289.41 497.38v-6.25h-2.07v-2.07c1.11-.13 2.17-.64 2.31-1.88l.19-1.99 2.76-.19v3.68h2.81l-.21 2.44h-2.6v6.28c0 1.35.37 2.07 2.01 2.07.24 0 .5-.03.79-.05v2.62c-.53.05-1.4.11-1.83.11-3.66 0-4.16-2.17-4.16-4.77ZM1298.19 488.69h2.68l.21 2.25h.08c.24-1.25 1.3-2.46 3.23-2.46.58 0 1.17.11 1.75.32v2.78l-.16.11c-.69-.32-1.38-.48-1.99-.48-1.72 0-2.62 1.09-2.62 2.62v8.11h-3.18v-13.25ZM1307.6 498.1c0-3.53 3.47-4.48 6.63-4.48 1.01 0 1.54.03 2.04.08v-.42c0-1.33-1.38-1.88-2.92-1.88-1.43 0-2.65.61-3.79 1.25l-1.22-2.6c.77-.48 2.78-1.56 5.19-1.56 3.26 0 5.94 1.43 5.94 5.35v8.11h-3.18l-.08-2.01c-.5.85-1.62 2.23-4.08 2.23-2.73 0-4.53-1.67-4.53-4.05Zm8.64-2.15-1.25-.08c-3.66-.08-4.21 1.06-4.21 1.96 0 .79.61 1.38 1.88 1.38 2.49 0 3.5-1.62 3.58-3.26ZM1320.96 488.79l.08-.11h3.21l3.6 9.2 3.15-9.2h3.34l.05.11-5.01 13.15h-3.29l-5.14-13.15ZM1335.23 495.34c0-4.45 3-6.86 6.71-6.86 3.34 0 5.94 1.99 5.94 6.17 0 .37-.11 1.33-.21 1.59l-.13.11h-9.12c.19 2.2 1.96 3.05 3.74 3.05 1.88 0 2.76-.64 3.66-1.33l1.7 2.17c-1.03.82-2.76 1.91-5.49 1.91-3.55 0-6.79-2.07-6.79-6.81Zm6.52-4.13c-1.75 0-3 .88-3.34 2.7h6.28c-.03-1.27-.77-2.7-2.94-2.7ZM1350.52 498.47v-15.51l3.18-.37v15.29c0 1.19.64 1.51 1.19 1.51.16 0 .42 0 .71-.05v2.62c-.5.11-1.06.19-1.64.19-1.72 0-3.45-.58-3.45-3.68ZM1361.36 489.72l-.45-1.06-.42 1.06-1.14 1.64-1.88-1.33 1.19-1.75.69-.53-.88-.08-1.91-.58.69-2.2 1.83.71.93.48-.29-1.03v-1.88h2.38v1.88l-.29 1.11 1.01-.61 1.7-.64.64 2.15-1.72.56-1.11.11.85.71 1.14 1.56-1.88 1.38-1.06-1.67Z"/></g><g clip-path="url(#clippath-10)"><path d="M1043.82 481.78s-.05.03-.08.05c0 0-.01 0-.02.01-.02.01-.04.03-.06.04-.01 0-.03.02-.04.03-.01 0-.03.02-.05.03-.02.01-.04.03-.05.04 0 0-.02.01-.03.02-.03.02-.04.04-.07.06h-.01c-.66.53-1.25 1.39-1.42 2.13-.3 1-.2 2.52.6 2.8h.01c.03 0 .05.01.07.02h.32s.07 0 .11-.02h.02c.04 0 .08-.02.12-.03h.03a.37.37 0 0 0 .11-.05c.01 0 .03-.01.05-.02.03-.01.06-.03.1-.04.03-.01.06-.04.1-.06.01 0 .03-.01.04-.02.1-.05.2-.11.29-.18 0 0 .02-.01.03-.02.03-.02.05-.04.08-.06.02-.01.04-.03.06-.04.02-.01.03-.03.05-.04.03-.02.05-.05.08-.07 0 0 .01-.01.03-.02.03-.03.06-.06.1-.09.95-.9 1.47-2.33 1.21-3.57-.13-.61-.39-1.13-.97-1.15h-.17c-.19.03-.39.11-.6.22h-.01ZM1032.78 490.98c0-.05 0-.11-.02-.17v-.04s-.04-.09-.05-.13c0-.02-.02-.05-.03-.07 0-.01-.01-.03-.02-.04v-.03c-.14-.25-.34-.5-.59-.73l-.04-.04-.02-.02c-.57-.5-1.34-.9-1.99-.99h-.01c-.15-.03-.32-.06-.5-.06h-.04a3.6 3.6 0 0 0-1.27.14h-.03c-.01 0-.03 0-.04.01-.4.13-.72.35-.83.66v.01c0 .02-.01.05-.02.07 0 .03 0 .05-.01.08-.01.14 0 .28.06.43 0 .03.02.05.03.08 0 0 0 .02.01.03.07.15.18.32.32.49.73.94 2.03 1.47 3.22 1.43.3 0 .6-.06.88-.14.53-.16 1-.43 1.01-.91v-.07ZM1030.68 484.33c-.81 0-1.42.4-1.09 1.64.06.26.15.51.26.74 0 .01.01.03.03.05 0 0 0 .02.01.03.57 1.14 1.75 2.03 2.98 2.25.23.04.46.07.68.07h.1c.34 0 .65-.09.85-.31.02-.03.05-.06.06-.09.01-.02.03-.05.05-.08 0 0 0-.01.01-.02.04-.1.09-.2.1-.33v-.05c.11-1.07-.92-2.69-2.02-3.28-.56-.35-1.37-.63-2.03-.62ZM1032.25 494.45s0-.09-.02-.14c0-.02 0-.04-.01-.06-.05-.19-.19-.35-.37-.48 0 0-.02-.01-.03-.02-.01 0-.03-.02-.04-.03-.39-.26-.98-.4-1.55-.45-.4-.04-.78-.04-1.05 0-.07 0-.13.02-.19.03-.1.01-.23.04-.36.07-.34.09-.77.27-1.12.51 0 0-.02 0-.03.02-.38.25-.65.55-.64.85v.04c.01.15.11.3.3.45.02.01.04.03.05.04a1.463 1.463 0 0 0 .14.1s.09.05.14.08.09.05.14.07c0 0 .02 0 .03.01.04.02.08.04.12.05.01 0 .03.01.05.02.03.01.07.02.1.04.03 0 .05.02.08.03.03 0 .05.01.08.02.04 0 .07.02.11.03.01 0 .03 0 .05.01.04.01.1.02.14.03h.02c.06 0 .11.02.17.03.31.05.63.07.95.05h.24s.09 0 .13-.01c.03 0 .06 0 .09-.01.03 0 .06 0 .09-.01.04 0 .09-.01.13-.02h.04c.06 0 .11-.03.17-.04.48-.12.93-.31 1.27-.59l.03-.03c.02-.02.05-.04.07-.06.02-.02.05-.04.07-.06l.02-.02c.15-.14.26-.3.35-.47v-.03l.02-.03h-.02ZM1048.73 488.87s-.04.01-.06.02a.16.16 0 0 0-.08.03c-.37.13-.73.33-1.06.57h-.01c-.03.02-.05.04-.08.06 0 0-.02.01-.03.02-.02.01-.04.03-.06.04-.01.01-.03.03-.05.04-.01 0-.02.02-.04.03l-.06.06s-.01 0-.02.02c-.03.02-.05.05-.08.07-.22.22-.41.45-.52.68s-.03.05-.04.08v.03c0 .02-.01.04-.02.06 0 .01 0 .03-.01.04 0 .01 0 .03-.01.04 0 .02-.01.04-.02.06s0 .05 0 .05c-.05.17-.04.32.01.46.05.16.16.28.3.39 0 0 0 .01.01.01s.03.02.04.03c.01 0 .03.02.04.03.05.03.1.06.15.08.34.19.78.28 1.25.29.72.03 1.47-.13 2.12-.47.47-.24.89-.55 1.17-.94.45-.53.51-.95.34-1.27-.36-.68-1.77-.87-2.65-.71-.15.02-.32.05-.48.1h-.03ZM1044.19 499.04h-.04c-.15 0-.28.02-.4.08 0 0-.03.01-.04.03-.01 0-.02.01-.03.02h-.01c-.51.36-.55 1.34-.34 2.04.33 1.41 1.47 2.66 2.87 3.05 1.92.61 1.79-1.69 1.17-2.94-.33-.81-1.19-1.6-2.05-2.01-.03-.01-.06-.02-.08-.04-.36-.16-.72-.25-1.03-.24ZM1034.42 485.81c.51.6 1.49 1.36 2.22 1.17.24-.05.45-.2.6-.5l.02-.04s0-.02.01-.04c.03-.06.05-.12.07-.18 0-.03.01-.05.03-.08.01-.04.03-.07.03-.11.01-.05.03-.1.03-.16v-.04c.17-.98-.17-2.33-.85-3.05-.49-.6-1.25-1.14-1.89-1.18-.53-.05-.99.26-1.13 1.21-.07.37-.06.75 0 1.12.1.68.38 1.34.83 1.86ZM1033.64 503.85c.17-.09.32-.18.45-.27 1.03-.68 1.82-1.82 1.88-3.05.04-.49-.05-.83-.22-1.04l-.01-.02c-.02-.02-.03-.04-.05-.06a.797.797 0 0 0-.39-.22h-.03c-.03 0-.05-.01-.07-.01-.03 0-.06 0-.09-.01h-.01c-.75-.08-1.79.43-2.43.99-.98.74-1.68 2.44-1.31 3.44v.05c.24.87 1.5.66 2.31.23ZM1038.26 505.2s0-.01.01-.02c.13-.19.25-.4.34-.6.51-.97.5-2.66-.06-3.47l-.03-.04c-.59-1.01-1.68-.06-2.12.8-.47.85-.64 1.91-.43 2.87.02.09.04.19.07.29.47 1.69 1.54 1.13 2.21.18ZM1040.06 480.97c-.19-.22-.39-.27-.57-.19-.25.08-.5.38-.7.97-.14.35-.23.74-.26 1.06-.08.6-.06 1.26.1 1.87.14.61.38 1.07.65 1.29.19.17.38.18.54.1.26-.11.52-.48.71-1.18.15-.47.23-.96.23-1.29v-.35c0-.32-.04-.62-.1-.9-.12-.64-.34-1.12-.6-1.38M1050.47 495.89c.06 0 .12-.01.18-.03h.06c.05 0 .1-.02.14-.03.03 0 .05-.01.08-.02.04 0 .07-.02.1-.03.05-.01.09-.03.14-.04h.03c.26-.08.51-.19.71-.33.32-.2.45-.42.42-.66-.02-.24-.23-.52-.7-.82-.51-.36-1.23-.57-1.95-.62h-.75c-.06 0-.1 0-.15.01h-.09c-.06 0-.12.02-.19.03h-.05c-.07.01-.14.03-.22.05-.17.05-.33.1-.48.17l-.06.03s-.03.01-.05.02h-.02c-.63.29-.79.62-.67.94.09.29.39.57.84.81.75.42 1.7.6 2.57.5h.02s.07 0 .1-.01h-.01ZM1033.66 497.68v-.1c.05-.31-.04-.54-.22-.72-.28-.32-.8-.44-1.35-.43-.28 0-.55.02-.79.07-.2.04-.39.08-.56.13-1.07.33-2.02 1.14-2.47 2.16-.26.52-.29.91-.18 1.2v.01c0 .03.02.05.04.08 0 .02.02.04.04.06 0 0 .01.02.02.03.02.03.04.05.06.08a.95.95 0 0 0 .34.23c.01 0 .03.01.04.02.63.27 1.63.18 2.34-.06 1.2-.31 2.53-1.67 2.67-2.73ZM1042.79 505.68c.04-.07.07-.14.1-.21 0-.02.02-.04.03-.06.15-.33.24-.74.27-1.18.05-.72-.07-1.47-.37-2.12a2.93 2.93 0 0 0-.6-.92c0-.01-.02-.02-.03-.04-.1-.11-.2-.2-.3-.27-1.25-.97-1.87 1.26-1.75 2.39 0 .54.2 1.19.51 1.74.29.52.68.96 1.1 1.12h.04c.4.16.74.01 1-.45ZM1049.82 500.7h.2c.05 0 .1-.02.14-.03h.01c.1-.02.18-.05.26-.09.61-.27.67-.85.45-1.47 0-.03-.02-.05-.03-.07v-.01c-.19-.51-.57-1.03-.95-1.4-.83-.9-2.6-1.4-3.6-1.01l-.05.02c-.36.11-.54.34-.6.63-.12.39.04.88.29 1.32.16.3.36.58.55.78.81.94 2.1 1.5 3.33 1.36ZM1045.06 489.09h.02s.02 0 .04.01c.72.26 1.9-.07 2.63-.53 1.12-.59 2.14-2.3 1.96-3.37v-.04c-.07-.94-1.46-.9-2.31-.58-1.41.47-2.62 1.73-2.86 3.21-.02.13-.04.24-.04.35-.02.51.21.8.56.95Z" class="cls-20"/><path d="M1041.65 477.27s-.03.07-.05.11c-.01.03-.03.06-.04.1-.01.04-.03.07-.04.11l-.03.1c-.01.04-.02.07-.04.11 0 .03-.02.07-.03.1 0 .04-.02.07-.03.11-.01.04-.01.07-.02.11 0 .04-.01.07-.02.11 0 .04-.01.07-.02.11 0 .04 0 .07-.01.11 0 .04 0 .08-.01.12v.76c0 .04 0 .09.01.13 0 .03 0 .06.01.09 0 .04.01.08.02.12 0 .03.01.06.02.09 0 .04.02.08.03.11 0 .03.02.07.03.1 0 .04.02.07.03.1.01.04.03.08.04.11 0 .03.02.05.03.08.01.03.02.06.04.09 0 0 0 .02.01.03v.02c.13.31.28.51.46.61 0 0 .02.01.03.02h.01c.31.17.67.08 1.08-.29.29-.24.54-.56.74-.94.04-.07.08-.15.11-.22.23-.44.35-1.02.36-1.59.02-.59-.07-1.16-.31-1.61-.02-.04-.04-.08-.06-.11 0-.01-.01-.03-.03-.04l-.03-.04c-.04-.08-.09-.14-.14-.2l-.04-.04s-.02-.02-.04-.03l-.02-.02c-.02-.01-.04-.03-.06-.04-.18-.12-.38-.13-.58-.08s-.04.01-.06.02h-.03c-.01 0-.03 0-.04.02-.01 0-.03.01-.04.02h-.02c-.02 0-.04.02-.07.04-.28.15-.54.41-.74.69 0 0-.01.02-.03.03v.01c-.08.12-.16.25-.22.37 0 .02-.02.04-.03.06-.02.04-.04.07-.05.1-.01.03-.03.06-.04.1s0-.01 0-.01ZM1023.67 485.33c.08.25.21.5.36.73.08.12.16.24.25.35.02.02.04.05.06.07.57.67 1.37 1.15 2.22 1.34h.03c.03 0 .05 0 .08.01.02 0 .05 0 .07.01h.05c.03 0 .06 0 .09.01h.39c.13 0 .26 0 .4-.01.12 0 .23-.03.33-.04.02 0 .05 0 .06-.01h.04c.47-.12.7-.39.76-.73v-.2c0-.11-.01-.23-.04-.35 0-.04-.02-.07-.03-.11v-.03c0-.03-.01-.05-.02-.08 0-.03-.02-.06-.03-.09-.21-.57-.62-1.14-1.04-1.5-.17-.18-.38-.33-.62-.47-.01 0-.03-.01-.04-.02-.06-.03-.11-.06-.17-.1-.02 0-.04-.02-.06-.03-.06-.03-.11-.05-.17-.08-.02 0-.04-.01-.06-.03-.06-.03-.12-.05-.19-.08h-.03c-.78-.28-1.64-.36-2.22-.11l-.04.02c-.27.09-.43.26-.51.5-.12.29-.07.65.06 1.01l.02.02ZM1050.24 486.82v.11c0 .72.68.99 1.45 1.01.52.02 1.1-.08 1.54-.24.03 0 .06-.02.09-.03.76-.25 1.56-.9 2.04-1.62 0 0 0-.01.01-.02.01-.02.03-.05.04-.07 0-.02.02-.03.03-.05 0-.01.01-.03.02-.04.01-.02.03-.05.04-.08v-.02c.01-.03.03-.06.04-.1.03-.08.06-.15.09-.22.01-.03.02-.07.04-.1s.02-.07.03-.1v-.02c0-.03.01-.05.02-.08v-.26a.797.797 0 0 0-.25-.77c-.3-.31-.81-.42-1.35-.41-.34 0-.69.04-.95.12-1.27.29-2.43 1.24-2.86 2.48-.07.19-.11.35-.13.5h.01ZM1046.45 481.45c-.1.31-.15.62-.15.91v.06c0 .21.03.41.1.59v.04c.23.54.68.66 1.19.59.25-.03.51-.11.77-.21.01 0 .03-.01.04-.02h.03c.01 0 .03-.01.05-.02 1.32-.56 2.45-1.94 2.5-3.41.16-2.26-2.26-1.35-3.33-.4-.54.42-.99 1.15-1.21 1.88ZM1030.99 483.53c.29.11.55.16.76.16.86.01 1.12-.73 1.06-1.57s0-.09 0-.13 0-.07-.01-.1v-.02c-.07-.47-.23-.96-.44-1.34-.37-.8-1.32-1.6-2.21-1.94h-.02c-.03 0-.05-.02-.08-.03-.01 0-.03 0-.04-.01-.02 0-.05-.01-.07-.02-.01 0-.03 0-.05-.01-.02 0-.04-.01-.06-.02h-.05c-.02 0-.04 0-.07-.01h-.03c-.03 0-.05 0-.08-.01h-.01c-.12-.02-.24-.03-.35-.01h-.05s-.07.01-.1.02c-.79.15-.85 1.02-.75 1.82.18 1.43 1.3 2.83 2.7 3.28h-.01ZM1035.11 505.92c-.03-.14-.07-.26-.12-.38-.07-.19-.18-.36-.31-.48-.01 0-.03-.02-.04-.03a.825.825 0 0 0-.67-.17h-.04c-.41.08-.85.36-1.25.74a.12.12 0 0 0-.05.05c-.52.5-.94 1.16-1.09 1.75-.13.38-.19.85-.17 1.31v.1c.04.59.21 1.12.57 1.36 0 0 .04.02.06.04.01 0 .03.01.04.02h.02c.29.13.69.08 1.2-.25 1.01-.57 1.73-1.71 1.88-2.87.06-.41.05-.82-.04-1.21ZM1044.71 505.02c-.32.09-.57.35-.69.87-.02.08-.04.17-.06.26-.03.18-.05.35-.05.53v.19c.02.88.37 1.78.96 2.43.38.43.98.89 1.55 1.02.03 0 .05 0 .08.01H1046.87s.04 0 .06-.01h.03c.01 0 .03 0 .04-.01.02 0 .03-.01.05-.02h.02c.02 0 .05-.02.07-.04.18-.1.33-.27.45-.53l.02-.05c.43-.96.08-2.73-.75-3.58-.59-.67-1.51-1.26-2.17-1.06h.02ZM1051.65 502.09a4.24 4.24 0 0 0-1.46-.57h-.12c-.82-.13-1.56.09-1.59.95v.15c0 .17.04.37.1.59.36 1.45 1.72 2.67 3.16 2.94.34.06.7.1 1.02.05h.03s.05 0 .08-.01c.02 0 .04 0 .06-.01.02 0 .04 0 .06-.01.03 0 .05-.01.07-.02.02 0 .04-.01.05-.02.02 0 .04-.02.07-.03.02 0 .04-.02.06-.03.02 0 .03-.02.05-.03.02-.01.05-.03.06-.05 0 0 .02-.01.03-.03.02-.02.04-.05.07-.08l.01-.01c.03-.03.05-.07.07-.11.05-.09.09-.19.1-.32v-.05c.13-1.05-.92-2.68-1.99-3.27s0-.01 0-.01ZM1057.5 492.13c.24-.38.15-.81-.67-1.17-.24-.11-.5-.19-.77-.25l-.15-.03c-.92-.18-1.96-.06-2.77.4-.79.42-1.39 1.2-.27 1.75l.05.03c1.01.56 2.83.55 3.86-.11.37-.22.6-.43.72-.62ZM1021.52 491.78v.05c.04.11.1.22.18.32v.01c0 .01.02.03.04.04l.03.03.02.02c.01.02.03.03.05.05.33.32.86.57 1.39.73s.06.02.09.03h.03c.02 0 .04.01.07.02.02 0 .04 0 .05.01h.05c.03 0 .05.01.07.02h.02s.06.01.09.02c.17.03.34.05.49.06.64.09 1.67-.1 2.27-.47.27-.17.45-.37.47-.6v-.04c0-.26-.2-.57-.7-.89-.99-.64-2.37-.82-3.49-.48-.38.12-.79.28-1.03.53-.14.14-.22.3-.2.5v.03ZM1030.22 501.51h-.01s-.01 0-.02-.01c-.09-.06-.19-.1-.31-.14h-.04c-1.04-.23-2.73.65-3.42 1.67-.47.61-.89 1.61-.81 2.33V505.45c.09.56.48.93 1.42.79.35-.04.7-.14 1.03-.28.01 0 .03-.01.05-.02.01 0 .03-.01.04-.02 1.07-.49 1.95-1.49 2.28-2.58.1-.34.17-.69.16-1.01 0-.33-.1-.63-.36-.81ZM1035.37 479.98s.04.08.06.11c0 .01.02.03.03.05.01.03.03.05.05.07.02.03.03.05.05.08 0 .01.02.03.03.04.03.04.05.07.08.1.24.3.53.54.88.68.64.15.93-.4 1.16-1.03.04-.1.07-.2.1-.3.17-.63.13-1.41-.09-2.14 0-.02 0-.04-.01-.05 0-.02-.01-.04-.02-.06-.25-.81-.73-1.52-1.38-1.8h-.04a.42.42 0 0 0-.21-.06h-.06c-.35 0-.63.3-.78.63-.48.87-.45 2.49.15 3.65v.01ZM1027.58 497.57v-.04c-.02-.38-.27-.7-.91-.88-.37-.12-.76-.17-1.16-.16h-.19c-.78.05-1.56.33-2.16.82-.79.59-1.52 1.89-.48 2.39l.04.03c.89.52 2.66.37 3.58-.33.65-.43 1.28-1.18 1.27-1.81v-.02ZM1056.98 498.96v-.1s0-.07-.02-.1v-.01c0-.03-.01-.06-.03-.09v-.02c0-.03-.02-.05-.03-.08v-.03c0-.02-.02-.05-.03-.07 0-.01-.01-.02-.02-.04 0-.02-.02-.04-.03-.06 0-.01-.02-.03-.03-.05 0-.02-.02-.03-.03-.05-.01-.02-.03-.04-.04-.06 0-.01-.01-.02-.02-.04-.02-.03-.04-.05-.05-.08 0 0 0-.01-.01-.02a3.73 3.73 0 0 0-1.04-.95c-.06-.04-.11-.08-.17-.11-.04-.02-.07-.04-.11-.06-.02 0-.04-.02-.06-.03-.47-.23-1.05-.35-1.62-.36h-.28c-.05 0-.1 0-.16.01h-.09c-.04 0-.09.01-.14.02-.03 0-.06 0-.09.01-.04 0-.09.02-.14.03-.03 0-.05.01-.08.02-.05.01-.1.03-.15.05-.02 0-.04 0-.05.02-.06.02-.11.05-.17.07-.07.04-.14.07-.21.11l-.03.02s-.06.04-.1.06c0 0-.01 0-.02.01-.02.01-.03.03-.05.04-.01.01-.03.02-.04.04l-.02.02c-.02.02-.04.04-.05.06-.13.16-.17.34-.16.53v.1s0 .04.01.06v.03c0 .01 0 .03.01.05 0 .01 0 .03.01.05 0 0 0 .02.01.03 0 .02.01.04.02.06v.02c0 .03.02.05.04.08.1.2.23.41.39.59v.01c.01.02.03.04.05.05 0 .01.02.02.03.04 0 .01.01.01.02.02.18.19.37.36.55.47.03.02.06.04.08.06.02.01.04.03.06.04l.15.1.04.02c.06.03.11.06.17.1h.02c.06.03.13.06.19.1.84.37 1.82.45 2.68.14.36-.11.58-.27.71-.47s.02-.05.03-.07c0 0 0-.02.01-.03 0-.01.01-.03.02-.05 0-.01 0-.03.01-.04v-.04c0-.02 0-.04.01-.05v-.2.02ZM1040.54 507.68c-.23-.76-.48-1.16-.74-1.3h-.02c-.29-.15-.57.04-.8.39 0 0-.01.03-.02.04-.09.14-.17.31-.24.49 0 .01 0 .03-.02.05-.17.46-.27.98-.28 1.42v.08c-.03.91.24 2.06.8 2.62.13.11.24.15.36.15h.03c.31-.03.57-.43.72-.75.25-.52.37-1.15.38-1.78 0-.47-.04-.95-.16-1.38Z" class="cls-22"/><path d="M1051.63 481.72s0 .07.01.1c0 .03 0 .05.01.08 0 .02 0 .04.01.06 0 .04.02.07.04.11v.01c.05.12.11.23.19.32.11.11.23.19.36.25h.03s.04.04.07.05c.04.01.07.03.1.04.24.08.5.1.76.07h.11s.03-.02.04-.02c.02 0 .05 0 .07-.02.02 0 .04 0 .06-.02h.05s.05-.03.08-.04h.04s.06-.04.09-.05c0 0 .02 0 .03-.01.03-.01.06-.03.09-.05 0 0 .02 0 .03-.01.03-.01.06-.03.09-.05.01 0 .02-.01.03-.02.03-.01.05-.03.08-.05.01 0 .02-.02.04-.03.02-.01.04-.03.07-.05.01-.01.03-.03.05-.04.02-.01.04-.03.05-.04.02-.01.04-.03.06-.05l.04-.04.06-.06s.01-.02.02-.03a.27.27 0 0 1 .07-.08s0-.01.01-.02l.06-.09v-.01c.02-.03.04-.06.06-.1v-.02c.02-.03.03-.06.05-.09 0 0 0-.02.01-.03a.3.3 0 0 1 .04-.08c0-.02.01-.03.02-.05 0-.02.01-.04.02-.06 0-.03.01-.06.02-.09v-.02c.03-.14.05-.3.03-.46v-.06c-.05-.79-.71-1.11-1.41-1.1-.39 0-.78.1-1.09.29-.58.31-.87 1.03-.82 1.64v.04-.01ZM1020.51 487.68v.09s0 .06.01.09.01.06.02.09.01.06.01.06c.06.23.18.42.33.58h.01s.04.05.06.08c.01 0 .03.02.04.03.01.01.03.03.05.04.02.01.04.03.06.05 0 0 .02.01.03.02.03.02.06.04.09.05.32.19.69.28 1.07.26h.12s.07 0 .1-.01h.03s.06-.01.09-.02h.04c.03 0 .05-.01.07-.02.01 0 .03 0 .04-.01.02 0 .04-.01.06-.02.02 0 .04-.01.05-.02.02 0 .03-.01.05-.02.02 0 .04-.02.06-.03.01 0 .03-.01.04-.02l.07-.04s.02-.01.03-.02c.03-.02.05-.04.07-.05 0 0 .01 0 .02-.01.03-.02.05-.05.08-.07.14-.13.24-.29.32-.47v-.07s.01-.06.01-.09v-.25c0-.02 0-.04-.01-.06 0-.03 0-.04-.02-.07 0-.02-.01-.04-.02-.06 0-.03-.01-.05-.03-.08 0-.02-.01-.04-.02-.06-.01-.03-.03-.05-.04-.08 0-.01-.02-.03-.03-.04-.01-.03-.03-.06-.05-.09 0-.01-.02-.03-.03-.04l-.06-.09c-.01 0-.01-.02-.02-.03-.03-.03-.05-.06-.08-.09l-.02-.02-.09-.09s-.01 0-.02-.01c-.03-.03-.07-.06-.1-.09l-.01-.01c-.04-.03-.08-.05-.12-.08h-.01c-.04-.03-.09-.05-.13-.07-.14-.07-.3-.12-.47-.15-.69-.13-1.6.22-1.78.88s0 .05-.01.07v.22ZM1030.79 476.77V476.98c0 .02 0 .04.01.06 0 .03 0 .06.02.08 0 .01 0 .03.01.05 0 .03.02.07.03.1v.03c.01.04.03.08.05.11v.01l.06.12c.1.18.22.34.36.47s.07.06.1.09c0 0 .01 0 .02.01.03.02.06.05.09.06.01 0 .03.02.04.03.03.01.05.03.07.05.02.01.05.02.07.03.02 0 .04.01.05.03.03.01.06.03.1.04h.01l.05.02c.14.05.27.06.38.06h.12c.02 0 .04 0 .05-.01.39-.11.66-.48.79-.9s0-.05.01-.06v-.06c0-.02 0-.04.01-.06.04-.19.06-.38.05-.55.02-.52-.3-1.03-.73-1.35h-.01c-.17-.12-.34-.2-.52-.25a.92.92 0 0 0-.52 0c-.04 0-.07.02-.1.04-.49.2-.71.78-.76 1.3v.27ZM1055.65 487.78s-.01.06-.01.09V488.28c0 .06.03.11.05.16s.03.07.05.1a.555.555 0 0 0 .07.1s.01.02.02.03c.02.03.04.04.07.07l.03.03c.02.02.05.04.08.06l.03.03.09.06s.02.01.03.02c.03.02.06.04.1.06 0 0 .02 0 .03.01.04.02.07.03.11.04h.03c.04.01.08.03.12.04h.02l.14.03h.02s.09.01.14.02H1057.19c.05 0 .1-.01.14-.02h.01s.09-.02.13-.04h.01s.09-.03.13-.05c.37-.17.65-.48.79-.83s.01-.05.02-.07c0-.01 0-.02.01-.04 0-.01 0-.03.01-.04 0-.02.01-.04.02-.06.09-.34.05-.7-.15-.97 0 0-.03-.04-.05-.06 0 0-.01-.02-.02-.03 0-.01-.02-.02-.03-.04a.218.218 0 0 0-.05-.04l-.01-.01c-.11-.1-.25-.17-.42-.23-.11-.05-.23-.09-.34-.1h-.25c-.7.03-1.36.59-1.52 1.26h.02ZM1059.3 495.74v-.04c0-.03.01-.06.02-.1v-.25s-.02-.03-.02-.05c0 0 0-.02-.01-.02 0-.03-.02-.06-.03-.09-.15-.36-.44-.61-.78-.76-.21-.1-.44-.16-.66-.16-.14 0-.27.01-.41.05-.32.07-.61.23-.79.49-.14.17-.22.38-.21.62.02.5.54 1.06 1.15 1.2.09.02.18.03.27.04h.06c.55 0 1.19-.35 1.38-.87 0-.02.02-.05.02-.07ZM1036.61 510.36s-.05-.06-.08-.08c0 0-.01 0-.02-.01-.02-.02-.05-.04-.07-.06-.01 0-.03-.02-.04-.03-.02-.01-.03-.03-.05-.04-.03-.01-.05-.03-.08-.05 0 0-.02 0-.03-.01-.08-.04-.16-.07-.25-.1-.29-.08-.61 0-.88.19h-.01c-.02.01-.04.03-.06.05-.02.01-.04.03-.06.05-.3.25-.51.63-.54 1.03-.09.79.5 1.8 1.38 1.64h.05c1.11-.24 1.42-1.82.73-2.58ZM1038.48 475.43v.05c.09.48.28.79.52.97.35.27.79.23 1.15-.06l.01-.01a.12.12 0 0 0 .05-.05c.02-.02.04-.04.06-.05h.01c.21-.23.37-.54.45-.93v-.02s0-.05.01-.07v-.13c.02-.16 0-.32-.04-.48s-.02-.07-.03-.1c-.16-.5-.57-.92-1.12-.87-.65.11-1.14.94-1.1 1.7v.04ZM1045.73 477.2v.2s0 .04.01.06c.13.44.42.81.85.91h.11c.12.01.24 0 .38-.03h.06s0-.01.02-.02c.03 0 .06-.01.1-.03.01 0 .03 0 .04-.01.03 0 .05-.02.08-.03.02 0 .04-.02.07-.03.02 0 .03-.01.05-.03.03-.01.06-.03.08-.05 0 0 .02 0 .03-.02a.36.36 0 0 0 .1-.07c.23-.17.42-.4.55-.66.02-.04.03-.07.05-.11 0 0 0-.02.01-.03l.03-.09c0-.01 0-.03.01-.05 0-.03.01-.05.02-.08 0-.02 0-.04.01-.06V476.48c-.03-.52-.27-1.09-.77-1.25-.06-.02-.12-.04-.19-.04-.12-.02-.24-.01-.38 0-.18.03-.38.1-.55.21-.47.27-.86.75-.89 1.31-.02.15-.01.31 0 .46h.03ZM1025.34 482.57c.27.11.6.17.91.16.7 0 1.36-.35 1.37-1.16v-.06c.03-.39-.09-.74-.29-1.03-.24-.38-.62-.69-1.08-.78-.03 0-.06-.01-.09-.02-.56-.15-1.18-.04-1.61.42-.14.16-.22.36-.25.59-.13.71.26 1.65 1.03 1.9ZM1051.9 508.37c-.06-.83-.81-1.5-1.6-1.59h-.06a.99.99 0 0 0-.42 0c-.88.15-1.14 1.34-.83 2.13.16.48.61.83 1.1 1 .17.06.33.1.5.11h.04c.24.01.47-.02.64-.12.34-.18.52-.51.59-.88.04-.22.05-.44.03-.65ZM1043.84 510.15h-.01c-.02 0-.04-.02-.06-.03l-.05-.02h-.03c-.64-.34-1.15.13-1.39.7s-.01.05-.02.06c0 0 0 .02-.01.03 0 .01 0 .03-.01.04 0 .01 0 .03-.01.04 0 .01 0 .03-.01.04v.04c-.04.16-.06.32-.06.47 0 .07 0 .14.02.22 0 .03 0 .05.01.08v.02c.14.67.78 1.2 1.29 1.18H1043.68c.18-.05.34-.15.47-.28.23-.21.38-.49.44-.8.18-.66-.18-1.43-.74-1.75h.01ZM1021.27 496.61h.09c.63-.04 1.26-.46 1.42-1.08.12-.68-.61-1.25-1.36-1.31h-.03c-.16-.01-.32 0-.47.04-.5.14-1 .58-1.11 1.08v.05c-.1.64.62 1.14 1.23 1.21.07.01.15.01.21.01ZM1030.35 508.31v-.1c0-.1 0-.2-.01-.3-.01-.18-.06-.33-.13-.47-.01-.03-.03-.05-.04-.07 0 0 0-.01-.01-.02 0-.01-.02-.03-.03-.04 0-.01-.02-.03-.04-.05 0 0-.01 0-.01-.01-.26-.3-.67-.42-1.1-.39h-.09c-.36.04-.72.17-.99.38l-.01.01h-.01c-.01 0-.03.02-.04.03l-.01.01c-.04.03-.08.07-.11.1l-.02.02c-.03.03-.05.06-.08.1 0 .01-.02.03-.03.05l-.06.09c-.01.02-.03.04-.04.06-.01.03-.03.05-.04.07-.01.03-.03.05-.04.08 0 .02-.01.04-.03.06l-.03.09c0 .02-.01.04-.01.06 0 .03-.01.07-.02.1v.06c0 .03 0 .07-.01.1v.45c0 .03 0 .06.01.09 0 .02 0 .04.01.06 0 .03.01.06.03.09 0 .01 0 .03.01.05 0 .03.02.06.03.09 0 .01.01.03.02.05a.3.3 0 0 0 .04.08c0 .02.02.04.03.05.01.02.03.04.04.06.01.02.03.04.05.06l.02.02.03.03c.05.05.1.09.16.12 0 0 0 .01.01.01.02.01.05.03.07.05.01 0 .03.02.05.03.02 0 .03.01.05.02.02 0 .05.02.07.03 0 0 .02 0 .03.01.03 0 .06.02.08.03h.03c.03 0 .06.01.09.02h.52c.02 0 .04 0 .06-.01.02 0 .04 0 .06-.01.02 0 .04 0 .06-.01.02 0 .04-.01.06-.02.02 0 .04-.01.06-.02.02 0 .04-.01.06-.02s.04-.01.06-.02c.02 0 .04-.01.06-.02.02 0 .05-.02.06-.03.01 0 .03-.01.04-.02.03-.01.05-.03.08-.05 0 0 .02 0 .03-.01l.09-.06c.38-.27.66-.66.75-1.1v-.1ZM1056.97 503.51c.16-.46 0-1.03-.33-1.49 0-.01-.02-.02-.02-.04-.01-.02-.03-.04-.04-.06-.32-.4-.78-.69-1.29-.68h-.14c-.12 0-.24.04-.36.08-.04.01-.07.03-.1.04h-.02c-.03.01-.06.03-.1.05l-.08.04s-.02.01-.03.02c-.04.02-.07.05-.1.07-.11.09-.2.19-.27.31v.01c-.02.03-.03.06-.05.1 0 0 0 .02-.01.04 0 .03-.02.06-.03.08 0 .02 0 .04-.01.06 0 .02 0 .04-.01.06 0 .03-.01.06-.01.09v.29s0 .09.02.14c0 .05.01.09.03.13v.03c0 .03.02.06.03.09 0 .02.01.04.02.05 0 .02.01.04.02.06.01.03.02.06.04.09v.02c.27.57.82 1.04 1.45 1.09h.24c.06 0 .13-.02.19-.03h.07s.03-.02.04-.02c.41-.1.65-.33.78-.6 0-.02.01-.04.02-.05 0-.01.01-.03.02-.05v.02ZM1024.93 503.42l.02-.04c.01-.02.03-.04.04-.06.01-.03.03-.05.04-.08v-.01c.25-.48.28-1.07-.04-1.55-.29-.38-.93-.57-1.51-.49-.36.04-.7.18-.94.45-.57.6-.71 1.65-.14 2.2.01.01.03.02.04.04l.01.01c.15.14.35.23.6.28.19.06.38.08.56.06.04 0 .08 0 .11-.01h.01s.07-.01.1-.02h.02c.03 0 .06-.02.1-.03h.01c.03-.01.07-.02.1-.04.3-.13.56-.34.76-.61l.06-.09h.01Z" class="cls-12"/></g><g clip-path="url(#clippath-11)"><path d="M1299.47 241.24c-2.03 0-3.68-1.65-3.68-3.68v-35.79h62.73v35.79c0 2.03-1.65 3.68-3.68 3.68h-55.37ZM1299.47 162.3c-2.03 0-3.68 1.65-3.68 3.68v35.79h62.73v-35.79c0-2.03-1.65-3.68-3.68-3.68h-55.37Z" class="cls-8"/><path d="M1350.25 204.4c-.36 0-.65-.29-.65-.65v-3.95c0-.36.29-.65.65-.65s.65.29.65.65v3.95c0 .36-.29.65-.65.65M1304.81 204.4c-.36 0-.65-.29-.65-.65v-3.95c0-.36.29-.65.65-.65s.65.29.65.65v3.95c0 .36-.29.65-.65.65" class="cls-19"/><path d="M1295.79 201.41h62.73v.72h-62.73z" class="cls-19"/><path d="M1302.48 207.44h3.48c2.08 0 3.41 1.24 3.41 3.08 0 1.94-1.7 3.01-3.25 3.01h-1.92v3.2h-1.71v-9.29Zm5.09 3.08c0-1.01-.45-1.53-1.7-1.53h-1.69v3h1.66c.93 0 1.73-.45 1.73-1.47M1310.63 207.44h6.14l-.17 1.54h-4.26v2.34h4.04v1.57h-4.04v2.25h4.3v1.6h-6.01v-9.3zM1318.1 207.44h3.41c2.34 0 3.54 1.13 3.54 2.84 0 1.37-.64 2.38-1.86 2.82l2.06 3.64h-1.87l-1.86-3.4h-1.71v3.4h-1.71v-9.29Zm5.17 2.92c0-.93-.69-1.38-1.61-1.38h-1.85v2.76h1.9c.99 0 1.55-.52 1.55-1.38M1302.6 220.49h3.34c3.26 0 4.77 2.05 4.77 4.66s-1.46 4.97-4.77 4.97h-3.34v-9.63Zm6.3 4.61c0-2.43-1.38-3.01-2.9-3.01h-1.62v6.4h1.62c1.5 0 2.9-.82 2.9-3.38M1314.06 220.49h1.83l3.41 9.63h-1.8l-.77-2.2h-3.49l-.78 2.2h-1.8l3.41-9.63Zm2.11 5.82-1.18-3.34-1.18 3.34h2.37ZM1321.08 226.38l-3.01-5.89h1.88l2.02 4.35 1.98-4.35h1.92l-3.02 5.92v3.71h-1.77v-3.74zM1302.48 170.84h3.48c2.08 0 3.41 1.24 3.41 3.08 0 1.94-1.7 3.01-3.25 3.01h-1.92v3.2h-1.71v-9.29Zm5.09 3.08c0-1.01-.45-1.53-1.7-1.53h-1.69v3h1.66c.93 0 1.73-.45 1.73-1.47M1310.63 170.84h6.14l-.17 1.54h-4.26v2.34h4.04v1.56h-4.04v2.26h4.3v1.59h-6.01v-9.29zM1318.1 170.84h3.41c2.34 0 3.54 1.13 3.54 2.84 0 1.37-.64 2.38-1.86 2.81l2.06 3.64h-1.87l-1.86-3.4h-1.71v3.4h-1.71v-9.29Zm5.17 2.92c0-.93-.69-1.38-1.61-1.38h-1.85v2.76h1.9c.99 0 1.55-.52 1.55-1.38M1302.48 184.12h3.48c2.08 0 3.41 1.24 3.41 3.08 0 1.94-1.7 3.01-3.25 3.01h-1.92v3.2h-1.71v-9.29Zm5.09 3.08c0-1.01-.45-1.53-1.7-1.53h-1.69v3h1.66c.93 0 1.73-.45 1.73-1.47M1310.63 184.12h6.14l-.17 1.54h-4.26v2.33h4.04v1.57h-4.04v2.26h4.3v1.59h-6.01v-9.29zM1318.1 184.12h3.41c2.34 0 3.54 1.13 3.54 2.84 0 1.37-.64 2.38-1.86 2.81l2.06 3.64h-1.87l-1.86-3.4h-1.71v3.4h-1.71v-9.29Zm5.17 2.92c0-.93-.69-1.38-1.61-1.38h-1.85v2.76h1.9c.99 0 1.55-.52 1.55-1.38M1326.12 192.37l.77-1.38c.92.61 1.77.88 2.75.88.78 0 1.53-.33 1.53-1.22 0-1.89-4.8-.73-4.8-4.1 0-1.63 1.53-2.54 3.35-2.54 1.25 0 2.42.49 3.11.96l-.68 1.34c-.88-.54-1.59-.76-2.42-.76-1.17 0-1.67.35-1.67 1.02 0 1.65 4.82.86 4.82 4.06 0 2.07-1.59 2.88-3.16 2.88-1.33 0-2.63-.47-3.58-1.14M1333.8 188.75c0-2.76 2.02-4.74 4.54-4.74s4.54 1.98 4.54 4.74c0 3.08-2.16 4.77-4.54 4.77s-4.54-1.69-4.54-4.77m7.36 0c0-1.99-1.26-3.19-2.83-3.19s-2.84 1.19-2.84 3.19c0 2.12 1.39 3.19 2.84 3.19s2.83-1.06 2.83-3.19M1344.2 184.12h1.33l4.6 6.12v-6.12h1.71v9.29h-1.26l-4.66-6.28v6.28h-1.72v-9.29z" class="cls-25"/></g><g clip-path="url(#clippath-12)"><path d="M1233.23 241.24c-2.03 0-3.68-1.65-3.68-3.68v-35.79h62.73v35.79c0 2.03-1.65 3.68-3.68 3.68h-55.37ZM1233.23 162.3c-2.03 0-3.68 1.65-3.68 3.68v35.79h62.73v-35.79c0-2.03-1.65-3.68-3.68-3.68h-55.37Z" class="cls-8"/><path d="m1242.37 214.89 9.68-5.96c.98 3.72 3.44 6.52 7.64 6.52 3.51 0 7.08-2.52 7.08-6.73 0-4.84-3.65-6.8-7.08-6.8-2.45 0-4.56.84-6.45 2.38l-8.98-5.19 3.09-22.17h29.53v9.96h-19.15l-.98 6.45c1.47-.42 3.3-.84 5.33-.84 11.64 0 17.39 7.58 17.39 16.62 0 10.24-8.84 17.47-18.52 17.47-8 0-15.22-4.21-18.59-11.71" class="cls-25"/><path d="M1284.02 204.4c-.36 0-.65-.29-.65-.65v-3.95c0-.36.29-.65.65-.65s.65.29.65.65v3.95c0 .36-.29.65-.65.65M1238.57 204.4c-.36 0-.65-.29-.65-.65v-3.95c0-.36.29-.65.65-.65s.65.29.65.65v3.95c0 .36-.29.65-.65.65" class="cls-19"/><path d="M1229.55 201.41h62.73v.72h-62.73z" class="cls-19"/><path d="m1286.38 183.09-.41-.96-.38.96-1.04 1.49-1.7-1.2 1.08-1.59.62-.48-.79-.07-1.73-.53.63-1.99 1.65.65.84.43-.26-.94v-1.7h2.16v1.7l-.26 1.01.91-.55 1.53-.58.58 1.95-1.56.5-1.01.1.77.65 1.03 1.41-1.7 1.25-.96-1.51z" class="cls-25"/></g><g clip-path="url(#clippath-13)"><path d="M1167 241.24c-2.03 0-3.68-1.65-3.68-3.68v-35.79h62.73v35.79c0 2.03-1.65 3.68-3.68 3.68H1167ZM1167 162.3c-2.03 0-3.68 1.65-3.68 3.68v35.79h62.73v-35.79c0-2.03-1.65-3.68-3.68-3.68H1167Z" class="cls-8"/><path d="M1195 216.64h-20.13v-8.7l18.59-30.72h14.73v29.88h6.31v9.05l-6.31.42v9.75H1195v-9.68Zm0-9.54v-12.98l-7.51 12.98h7.51Z" class="cls-25"/><path d="M1217.78 204.4c-.36 0-.65-.29-.65-.65v-3.95c0-.36.29-.65.65-.65s.65.29.65.65v3.95c0 .36-.29.65-.65.65M1172.33 204.4c-.36 0-.65-.29-.65-.65v-3.95c0-.36.29-.65.65-.65s.65.29.65.65v3.95c0 .36-.29.65-.65.65" class="cls-19"/><path d="M1163.32 201.41h62.73v.72h-62.73z" class="cls-19"/></g><g clip-path="url(#clippath-14)"><path d="M1100.76 241.24c-2.03 0-3.68-1.65-3.68-3.68v-35.79h62.73v35.79c0 2.03-1.65 3.68-3.68 3.68h-55.37ZM1100.76 162.3c-2.03 0-3.68 1.65-3.68 3.68v35.79h62.73v-35.79c0-2.03-1.65-3.68-3.68-3.68h-55.37Z" class="cls-8"/><path d="m1109.33 212.61 11.36-3.72c.84 4.42 3.23 6.45 7.15 6.66 5.12.14 7.08-1.82 6.94-4.07-.56-6.59-23.99-4.98-23.71-20.2.21-7.01 5.96-11.5 13.82-12.77v-7.01h8.98v7.08c6.59 1.26 12.35 5.4 13.68 12.48l-10.73 3.37c-1.05-4.77-3.44-6.45-7.5-6.45-3.65 0-5.61 1.33-5.4 3.44.56 5.82 23.57 4.42 23.57 19.92 0 8.07-6.24 12.42-13.61 13.89v6.81h-8.98v-6.52c-8.28-.91-14.66-5.47-15.57-12.91" class="cls-25"/><path d="M1151.54 204.4c-.36 0-.65-.29-.65-.65v-3.95c0-.36.29-.65.65-.65s.65.29.65.65v3.95c0 .36-.29.65-.65.65M1106.09 204.4c-.36 0-.65-.29-.65-.65v-3.95c0-.36.29-.65.65-.65s.65.29.65.65v3.95c0 .36-.29.65-.65.65" class="cls-19"/><path d="M1097.08 201.41h62.73v.72h-62.73z" class="cls-19"/></g><g clip-path="url(#clippath-15)"><path d="M1034.52 241.24c-2.03 0-3.68-1.65-3.68-3.68v-35.79h62.73v35.79c0 2.03-1.65 3.68-3.68 3.68h-55.37ZM1034.52 162.3c-2.03 0-3.68 1.65-3.68 3.68v35.79h62.73v-35.79c0-2.03-1.65-3.68-3.68-3.68h-55.37Z" class="cls-8"/><path d="M1038.99 171.49h7.93l-.25 2.04h-5.41v3.1h4.88v2.06h-4.88v5.13h-2.27v-12.33zM1048.41 171.49h4.53c3.1 0 4.7 1.5 4.7 3.77 0 1.81-.85 3.15-2.47 3.73l2.73 4.83h-2.48l-2.47-4.51h-2.27v4.51h-2.27v-12.33Zm6.86 3.87c0-1.23-.92-1.83-2.13-1.83h-2.45v3.66h2.52c1.32 0 2.06-.69 2.06-1.83M1059.05 177.63c0-3.66 2.68-6.29 6.02-6.29s6.02 2.62 6.02 6.29c0 4.09-2.87 6.32-6.02 6.32s-6.02-2.24-6.02-6.32m9.78 0c0-2.64-1.67-4.23-3.75-4.23s-3.77 1.58-3.77 4.23c0 2.82 1.85 4.23 3.77 4.23s3.75-1.41 3.75-4.23M1072.86 171.49h1.87l4.4 7.2 4.33-7.2h1.87v12.33h-2.27v-7.95l-3.26 5.45h-1.39l-3.28-5.46v7.96h-2.27v-12.33z" class="cls-25"/><path d="M1085.3 204.4c-.36 0-.65-.29-.65-.65v-3.95c0-.36.29-.65.65-.65s.65.29.65.65v3.95c0 .36-.29.65-.65.65M1039.86 204.4c-.36 0-.65-.29-.65-.65v-3.95c0-.36.29-.65.65-.65s.65.29.65.65v3.95c0 .36-.29.65-.65.65" class="cls-19"/><path d="M1030.84 201.41h62.73v.72h-62.73z" class="cls-19"/></g><path d="M1039.73 99.08h309.91v52.57h-309.91z" class="cls-25"/><g><path d="M1052.12 107.92h14.77c8.16 0 13.41 4.62 13.41 11.42 0 4.91-3.06 8.31-6.95 9.96l7.53 12.63h-10.2l-6.12-11.37h-3.35v11.37h-9.08v-34.01Zm19.04 11.37c0-3.21-1.89-4.47-5.73-4.47h-4.23v8.84h4.52c2.87 0 5.44-.97 5.44-4.37ZM1083.46 124.88c0-11.08 7.77-17.34 17.44-17.34s17.44 6.27 17.44 17.34c0 11.76-7.82 17.44-17.44 17.44s-17.44-5.68-17.44-17.44Zm25.65 0c0-6.8-3.69-10.11-8.21-10.11s-8.26 3.4-8.26 10.11 3.69 10.2 8.26 10.2 8.21-3.21 8.21-10.2ZM1131.17 107.92h9.33l12.29 34.01h-8.6l-2.28-6.61h-12l-2.24 6.61h-8.6l12.1-34.01Zm8.3 20.31-3.64-10.88-3.55 10.88h7.19ZM1156.14 107.92h13.46c11.27 0 17.15 7.14 17.15 16.42s-6.17 17.59-17.15 17.59h-13.46v-34.01Zm21.09 16.43c0-6.75-3.89-9.62-8.02-9.62h-3.98v20.31h3.98c5.29 0 8.02-3.89 8.02-10.69ZM1210.17 114.78h-8.99v-6.85h27.16l-.78 6.85h-8.31v27.16h-9.09v-27.16ZM1231.74 107.92h14.77c8.16 0 13.41 4.62 13.41 11.42 0 4.91-3.06 8.31-6.95 9.96l7.53 12.63h-10.2l-6.12-11.37h-3.35v11.37h-9.08v-34.01Zm19.05 11.37c0-3.21-1.89-4.47-5.73-4.47h-4.23v8.84h4.52c2.87 0 5.44-.97 5.44-4.37ZM1264.58 107.92h9.13v34.01h-9.13v-34.01ZM1279.35 107.92h14.77c8.21 0 13.46 4.91 13.46 12.24s-6.7 11.95-12.83 11.95h-6.27v9.81h-9.13v-34.01Zm19.1 12.2c0-3.45-1.89-5.3-5.73-5.3h-4.23v10.45h4.52c2.87 0 5.44-1.55 5.44-5.15ZM1310.69 139.55l2.38-7.53c2.92 1.6 6.41 2.77 9.81 2.77 2.87 0 5.59-.29 5.59-3.06 0-5.49-17.49-.68-17.49-13.51 0-7.48 5.93-10.69 14.48-10.69 4.71 0 9.04 1.21 11.85 2.67l-2.62 7.04a18.576 18.576 0 0 0-9.13-2.38c-3.84 0-5.34 1.02-5.34 2.48 0 5.3 17.73.63 17.73 13.8 0 7.73-6.32 11.17-14.14 11.17-5.25 0-10.06-1.26-13.12-2.77Z" class="cls-8"/></g></svg>