<?xml version="1.0" encoding="utf-8"?>
<!-- Generator: Adobe Illustrator 28.3.0, SVG Export Plug-In . SVG Version: 6.00 Build 0)  -->
<svg version="1.1" xmlns="http://www.w3.org/2000/svg" xmlns:xlink="http://www.w3.org/1999/xlink" x="0px" y="0px"
	 viewBox="0 0 200 35" style="enable-background:new 0 0 200 35;" xml:space="preserve">
<style type="text/css">
	.st0{fill:#D40119;}
	.st1{fill-rule:evenodd;clip-rule:evenodd;fill:#D40119;}
</style>
<g id="Layer_1">
</g>
<g id="Layer_2">
	<g>
		<path class="st0" d="M3.2,30.8L0,24.6h1.1l2.6,5.1l2.6-5.1h1.1l-3.2,6.2v4.1h-1V30.8z"/>
		<path class="st0" d="M7.1,31.2c0-2.5,1.6-3.8,3.4-3.8s3.4,1.3,3.4,3.8c0,2.6-1.6,3.8-3.4,3.8S7.1,33.8,7.1,31.2z M12.7,31.2
			c0-2.1-1.1-2.9-2.3-2.9s-2.3,0.8-2.3,2.9c0,2.1,1.1,2.9,2.3,2.9S12.7,33.2,12.7,31.2z"/>
		<path class="st0" d="M15.4,32.3v-4.8h1v4.7c0,1.3,0.5,1.9,1.7,1.9c1.6,0,2.4-1.3,2.4-2.7v-3.8h1v7.3h-0.8l-0.1-1.7
			c-0.5,1.1-1.6,1.8-2.9,1.8C16.4,35,15.4,34.2,15.4,32.3z"/>
		<path class="st0" d="M23.6,27.6h0.8l0.1,1.2h0c0.1-0.7,0.9-1.4,1.8-1.4c0.3,0,0.6,0.1,0.9,0.2v0.9l-0.1,0.1
			c-0.4-0.2-0.7-0.3-1-0.3c-0.8,0-1.5,0.7-1.5,1.6v5h-1V27.6z"/>
		<path class="st0" d="M30.7,31.2c0-2.6,1.8-3.8,3.5-3.8c1,0,1.8,0.3,2.6,0.9l-0.6,0.7c-0.5-0.4-1.1-0.7-1.9-0.7
			c-1.6,0-2.6,1.2-2.6,2.9c0,1.7,0.9,2.9,2.6,2.9c0.8,0,1.5-0.4,2-0.8l0.6,0.7c-0.8,0.7-1.6,1-2.7,1C32.5,35,30.7,33.9,30.7,31.2z"
			/>
		<path class="st0" d="M37.9,31.2c0-2.3,1.5-3.8,3.4-3.8c1.8,0,3,1.1,3,3.3c0,0.2,0,0.5,0,0.7l-0.1,0.1h-5.3
			c0.1,2.1,1.3,2.6,2.6,2.6c0.9,0,1.6-0.3,2.1-0.8l0.5,0.7c-0.8,0.7-1.7,1-2.7,1C39.4,35,37.9,33.8,37.9,31.2z M41.3,28.3
			c-1.2,0-2.2,0.8-2.4,2.2h4.4C43.3,29.5,42.9,28.3,41.3,28.3z"/>
		<path class="st0" d="M45.9,27.6h0.9l0.1,1.3c0.6-0.9,1.5-1.4,2.6-1.4c1.4,0,2.4,0.8,2.4,2.7v4.8h-1V30c0-1.1-0.6-1.6-1.7-1.6
			c-1.3,0-2.4,0.9-2.4,2.1v4.5h-1V27.6z"/>
		<path class="st0" d="M54.4,32.8v-4.5h-1.1v-0.6c0.9-0.1,1.2-0.3,1.2-0.8l0.2-1.4l0.7,0v2h1.5l-0.1,0.8h-1.3v4.7c0,0.7,0.2,1,0.9,1
			c0.2,0,0.4,0,0.6-0.1v0.9c-0.3,0-0.5,0.1-0.8,0.1C54.6,35,54.4,34,54.4,32.8z"/>
		<path class="st0" d="M58.4,27.6h0.8l0.1,1.2h0c0.1-0.7,0.9-1.4,1.8-1.4c0.3,0,0.6,0.1,0.9,0.2v0.9l-0.1,0.1
			c-0.4-0.2-0.7-0.3-1-0.3c-0.8,0-1.5,0.7-1.5,1.6v5h-1V27.6z"/>
		<path class="st0" d="M62.6,31.2c0-2.3,1.5-3.8,3.4-3.8c1.8,0,3,1.1,3,3.3c0,0.2,0,0.5,0,0.7L69,31.5h-5.3c0.1,2.1,1.3,2.6,2.6,2.6
			c0.9,0,1.6-0.3,2.1-0.8l0.5,0.7c-0.8,0.7-1.7,1-2.7,1C64.2,35,62.6,33.8,62.6,31.2z M66.1,28.3c-1.2,0-2.2,0.8-2.4,2.2h4.4
			C68.1,29.5,67.7,28.3,66.1,28.3z"/>
		<path class="st0" d="M73.5,28.4h-1.1v-0.6c0.8-0.1,1.1-0.3,1.1-1.2c0-1,0.3-2.4,2.5-2.4c0.2,0,0.5,0,0.7,0V25c-0.2,0-0.5,0-0.6,0
			c-1.3,0-1.6,0.4-1.6,1.6v0.9h1.6L76,28.4h-1.5v6.5h-1V28.4z"/>
		<path class="st0" d="M76.9,31.2c0-2.5,1.6-3.8,3.4-3.8s3.4,1.3,3.4,3.8c0,2.6-1.6,3.8-3.4,3.8S76.9,33.8,76.9,31.2z M82.6,31.2
			c0-2.1-1.1-2.9-2.3-2.9S78,29.2,78,31.2c0,2.1,1.1,2.9,2.3,2.9S82.6,33.2,82.6,31.2z"/>
		<path class="st0" d="M85.3,27.6h0.8l0.1,1.2h0c0.1-0.7,0.9-1.4,1.8-1.4c0.3,0,0.6,0.1,0.9,0.2v0.9l-0.1,0.1
			c-0.4-0.2-0.7-0.3-1-0.3c-0.8,0-1.5,0.7-1.5,1.6v5h-1V27.6z"/>
		<path class="st0" d="M93.1,32.4v-3.5h-1.1v-1.1c0.6-0.1,1.2-0.4,1.3-1l0.1-1.1l1.5-0.1v2h1.6l-0.1,1.3h-1.4v3.5
			c0,0.7,0.2,1.1,1.1,1.1c0.1,0,0.3,0,0.4,0v1.5c-0.3,0-0.8,0.1-1,0.1C93.3,35,93.1,33.8,93.1,32.4z"/>
		<path class="st0" d="M97.6,27.6h1.5l0.1,1.2h0c0.1-0.7,0.7-1.4,1.8-1.4c0.3,0,0.6,0.1,1,0.2v1.5l-0.1,0.1
			c-0.4-0.2-0.8-0.3-1.1-0.3c-1,0-1.5,0.6-1.5,1.5v4.5h-1.8V27.6z"/>
		<path class="st0" d="M102.5,32.8c0-1.9,1.9-2.5,3.7-2.5c0.6,0,0.9,0,1.1,0v-0.2c0-0.7-0.8-1-1.6-1c-0.8,0-1.5,0.3-2.1,0.7
			l-0.7-1.4c0.4-0.3,1.5-0.9,2.9-0.9c1.8,0,3.3,0.8,3.3,3v4.5h-1.8l0-1.1c-0.3,0.5-0.9,1.2-2.3,1.2C103.5,35,102.5,34.1,102.5,32.8z
			 M107.3,31.6l-0.7,0c-2,0-2.3,0.6-2.3,1.1c0,0.4,0.3,0.8,1,0.8C106.7,33.4,107.3,32.5,107.3,31.6z"/>
		<path class="st0" d="M109.6,27.6L109.6,27.6l1.8-0.1l2,5.1l1.7-5.1h1.8l0,0.1l-2.8,7.3h-1.8L109.6,27.6z"/>
		<path class="st0" d="M117.2,31.2c0-2.5,1.7-3.8,3.7-3.8c1.8,0,3.3,1.1,3.3,3.4c0,0.2-0.1,0.7-0.1,0.9l-0.1,0.1h-5
			c0.1,1.2,1.1,1.7,2.1,1.7c1,0,1.5-0.4,2-0.7l0.9,1.2c-0.6,0.5-1.5,1.1-3,1.1C119,35,117.2,33.9,117.2,31.2z M120.8,28.9
			c-1,0-1.7,0.5-1.8,1.5h3.5C122.4,29.7,122,28.9,120.8,28.9z"/>
		<path class="st0" d="M125.4,33v-8.6l1.8-0.2v8.5c0,0.7,0.4,0.8,0.7,0.8c0.1,0,0.2,0,0.4,0v1.5c-0.3,0.1-0.6,0.1-0.9,0.1
			C126.3,35,125.4,34.7,125.4,33z"/>
		<path class="st0" d="M129.1,34.9l0-0.9l0-0.9c0.3,0,0.6-0.1,0.9-0.1c0.3,0,0.6,0,0.9,0.1l0,0.9l0,0.9c-0.3,0-0.6,0.1-0.9,0.1
			S129.4,34.9,129.1,34.9z"/>
	</g>
	<g>
		<polygon class="st0" points="0,0.2 0,17.4 5.9,17.4 5.9,11.8 12,11.8 12,7 5.9,7 5.9,5 12,5 12,0.2 		"/>
		<polygon class="st0" points="14,0.2 14,17.4 27.2,17.4 27.2,12.5 20,12.5 20,0.2 		"/>
		<rect x="29.1" y="0.2" class="st0" width="6.1" height="17.2"/>
		<path class="st1" d="M46.8,17.6c2.8,0,5.6-0.8,7.6-2.3l0.1,0V7.8h-7.3v3.7H49v0.8c-0.1,0-0.1,0.1-0.1,0.1
			c-0.8,0.3-1.2,0.5-2.1,0.5c-3.2,0-4.5-1.1-4.5-4c0-3.1,1.3-4.2,5.1-4.2c1.9,0,4,0.5,5.9,1.4c0,0,0.5,0.2,0.5,0.2V1.4l-0.1,0
			c-1-0.4-1.4-0.6-2.3-0.8C50,0.2,48.5,0,47,0c-6.2,0-10.3,3.5-10.3,8.8C36.6,14,40.8,17.6,46.8,17.6"/>
		<polygon class="st1" points="61.6,11.5 67.3,11.5 67.3,17.4 73,17.4 73,0.2 67.3,0.2 67.3,6.1 61.6,6.1 61.6,0.2 55.8,0.2 
			55.8,17.4 61.6,17.4 		"/>
		<polygon class="st1" points="79.6,17.4 86,17.4 86,5.2 91.2,5.2 91.2,0.2 74.4,0.2 74.4,5.2 79.6,5.2 		"/>
		<polygon class="st1" points="151.8,17.4 158.2,17.4 158.2,5.2 163.4,5.2 163.4,0.2 146.6,0.2 146.6,5.2 151.8,5.2 		"/>
		<path class="st1" d="M105.5,17.6c2.5,0,4.4-0.5,6.7-1.7l0.1,0v-4l0-1.5l-0.3,0.3c0,0-2,2-5,2.1c-2.3,0.1-3.7-0.9-4.4-1.6
			c-0.8-0.7-1.3-1.7-1.3-2.5c0-1.6,1.7-4,5.3-4c2.4,0,4,0.5,5.1,1.8l0.3,0.3V1.6l-0.1,0c-0.5-0.3-0.8-0.4-1.5-0.7
			c-1.6-0.6-2.9-0.8-4.7-0.8c-2.1,0-4,0.4-5.5,1.2c-3,1.5-4.8,4.4-4.8,7.6C95.5,14,99.6,17.6,105.5,17.6"/>
		<polygon class="st1" points="126.4,13.1 119.5,13.1 119.5,11.1 125.9,11.1 125.9,6.8 119.5,6.8 119.5,4.6 126.3,4.6 126.3,0.2 
			113.7,0.2 113.7,17.3 126.4,17.3 		"/>
		<polygon class="st1" points="195,13.1 188,13.1 188,11.1 194.5,11.1 194.5,6.8 188,6.8 188,4.6 194.8,4.6 194.8,0.2 182.3,0.2 
			182.3,17.3 195,17.3 		"/>
		<path class="st1" d="M133.5,9c0.5,0.6,7.3,8.3,7.3,8.3h4.9V0.2H140v8.4c-0.5-0.6-7-8.4-7-8.4h-5.2v17.1h5.7V9z"/>
		<path class="st1" d="M197.8,0.6L197.8,0.6c1,0,1.8,0.8,1.8,1.8c0,1-0.8,1.8-1.7,1.8c-1,0-1.8-0.8-1.8-1.8
			C196.1,1.4,196.9,0.6,197.8,0.6 M197.8,4.6c1.2,0,2.2-0.9,2.2-2.2c0-1.2-1-2.2-2.1-2.2h0c-1.2,0-2.2,1-2.2,2.2
			C195.7,3.6,196.6,4.6,197.8,4.6"/>
		<path class="st1" d="M197.4,1.5c0.1,0,0.2,0,0.3,0c0.4,0,0.6,0.2,0.6,0.4c0,0.3-0.3,0.4-0.6,0.4h-0.3V1.5z M197.4,2.6h0.3
			c0.3,0,0.5,0.1,0.5,0.4c0,0.3,0.1,0.5,0.2,0.6h0.4c0-0.1-0.1-0.2-0.2-0.6c0-0.4-0.2-0.5-0.4-0.6v0c0.3-0.1,0.5-0.3,0.5-0.6
			c0-0.2-0.1-0.4-0.2-0.5c-0.1-0.1-0.4-0.2-0.8-0.2c-0.3,0-0.5,0-0.7,0.1v2.4h0.4V2.6z"/>
		<path class="st1" d="M169.9,4.2h2c1.6,0,2.1,0.3,2.1,1.4c0,1-0.5,1.4-1.6,1.5c0,0-0.5,0-0.5,0c0,0-0.3,0-0.3,0h-1.6V4.2z
			 M169.9,10.8h0.5c0.7,0,0.8,0,1.2,0.1c0.7,0.2,0.9,0.7,1.4,1.9l0.2,0.3l0.6,1.4c0,0,0.5,1.1,0.5,1.1c0,0,0.3,0.8,0.3,0.8
			c0,0,0.4,1,0.4,1h6.4l-0.2-0.5c0,0-0.4-0.9-0.4-0.9c0,0-0.5-1.1-0.5-1.1c0,0-0.4-0.9-0.4-0.9l-0.7-1.4c-0.7-1.6-1.5-2.3-2.3-2.8
			c0.4-0.2,0.7-0.5,0.9-0.7l0.4-0.4c0.9-0.8,1.5-2.1,1.5-3.3c0-1.6-0.9-3.2-2.3-4.1c-1.1-0.7-2-0.9-4.5-0.9h-8.4v17.1h5.4V10.8z"/>
	</g>
</g>
</svg>
